M48
; DRILL file {KiCad (5.1.9)-1} date 08/06/21 18:06:22
; FORMAT={-:-/ absolute / inch / decimal}
; #@! TF.CreationDate,2021-08-06T18:06:22-04:00
; #@! TF.GenerationSoftware,Kicad,Pcbnew,(5.1.9)-1
; #@! TF.FileFunction,Plated,1,2,PTH
FMAT,2
INCH
T1C0.0150
T2C0.0250
T3C0.0400
T4C0.0450
T5C0.0500
T6C0.0600
T7C0.0800
%
G90
G05
T1
X1.35Y-1.2
X1.35Y-1.45
X1.35Y-1.7
X1.35Y-1.95
X1.35Y-2.2
X1.35Y-2.45
X1.35Y-2.7
X1.35Y-2.95
X1.6Y-1.2
X1.6Y-1.7
X1.6Y-1.95
X1.6Y-2.2
X1.6Y-2.45
X1.6Y-2.7
X1.6Y-2.95
X1.85Y-1.2
X1.85Y-1.7
X1.85Y-1.95
X1.85Y-2.2
X1.85Y-2.45
X1.85Y-2.7
X1.85Y-2.95
X2.1Y-2.7
X2.1Y-2.95
X2.35Y-2.2
X2.35Y-2.7
X2.35Y-2.95
X2.6Y-2.2
X2.845Y-2.755
X2.85Y-2.925
X2.895Y-1.445
X3.0Y-2.605
X3.055Y-1.44
X3.25Y-2.325
X3.25Y-2.55
X3.3Y-2.3
X3.3Y-2.8
X3.35Y-1.2
X3.35Y-1.45
X3.375Y-2.325
X3.4Y-2.8
X3.4Y-3.0
X3.4Y-3.05
X3.5Y-2.8
X3.6Y-1.2
X3.6Y-1.45
X3.6Y-1.7
X3.6Y-1.95
X3.6Y-2.2
X3.85Y-1.2
X3.85Y-1.45
X3.9147Y-1.9597
X3.915Y-2.8
X3.975Y-1.625
X4.025Y-1.825
X4.1Y-1.95
X4.1Y-2.45
X4.255Y-1.855
X4.255Y-1.92
X4.35Y-1.45
X4.355Y-2.725
X4.45Y-2.575
X4.45Y-2.625
X4.45Y-2.675
X4.53Y-1.78
X4.55Y-1.225
X4.6Y-1.45
X4.6Y-1.7
X4.6Y-1.95
X4.6Y-2.2
X4.6Y-2.55
X4.65Y-2.575
X4.65Y-2.705
X4.68Y-2.335
X4.745Y-2.955
X4.8Y-2.625
X4.8Y-2.675
X4.8Y-2.725
X4.8Y-2.775
X4.85Y-1.45
X4.85Y-1.7
X4.85Y-1.95
X4.915Y-2.44
X4.955Y-2.505
X5.0Y-1.8
X5.1Y-1.2
X5.1Y-1.45
X5.1Y-2.95
X5.115Y-2.47
X5.115Y-2.52
X5.13Y-2.02
X5.135Y-2.865
X5.2Y-2.075
X5.25Y-1.2
X5.28Y-2.755
X5.29Y-1.59
X5.35Y-1.225
X5.35Y-1.275
X5.35Y-1.325
X5.35Y-1.375
X5.375Y-1.725
X5.375Y-2.25
X5.395Y-2.385
X5.425Y-2.825
X5.45Y-1.725
X5.5Y-1.3
X5.5Y-1.875
X5.5Y-2.3
X5.545Y-2.15
X5.55Y-1.375
X5.575Y-1.95
X5.6Y-2.95
X5.67Y-1.585
X5.675Y-1.175
X5.675Y-2.25
X5.68Y-2.1
X5.71Y-2.215
X5.75Y-1.175
X5.8Y-1.515
X5.85Y-2.95
X5.865Y-1.3
X6.01Y-1.26
X6.35Y-1.7
X6.6Y-1.45
X6.6Y-1.7
X6.6Y-1.95
X6.6Y-2.2
X6.6Y-2.45
X6.6Y-2.95
X6.85Y-1.2
X6.85Y-1.45
X6.85Y-1.95
X6.85Y-2.2
X6.85Y-2.95
X7.1Y-1.2
X7.1Y-1.45
X7.1Y-1.7
X7.1Y-1.95
X7.1Y-2.2
X7.1Y-2.45
X7.1Y-2.7
X7.1Y-2.95
T2
X4.55Y-2.375
X5.55Y-2.5
T3
X1.8Y-1.0
X1.975Y-1.0
X2.1Y-2.525
X2.15Y-1.575
X2.15Y-1.675
X2.15Y-1.775
X2.2Y-1.0
X2.3Y-2.525
X2.375Y-1.0
X2.4Y-1.325
X2.5Y-1.325
X2.5Y-2.125
X2.5Y-2.325
X2.5Y-2.725
X2.5Y-2.925
X2.6Y-1.325
X2.7Y-2.525
X2.9Y-2.525
X3.15Y-1.1
X3.15Y-1.2
X3.15Y-1.3
X3.15Y-1.4
X3.15Y-1.5
X3.15Y-1.6
X3.15Y-1.7
X3.15Y-1.8
X3.15Y-1.9
X3.15Y-2.0
X3.15Y-2.1
X3.15Y-2.2
X3.15Y-2.3
X3.15Y-2.4
X3.15Y-2.5
X3.15Y-2.6
X3.15Y-2.7
X3.75Y-1.1
X3.75Y-1.2
X3.75Y-1.3
X3.75Y-1.4
X3.75Y-1.5
X3.75Y-1.6
X3.75Y-1.7
X3.75Y-1.8
X3.75Y-1.9
X3.75Y-2.0
X3.75Y-2.1
X3.75Y-2.2
X3.75Y-2.3
X3.75Y-2.4
X3.75Y-2.5
X3.75Y-2.6
X3.75Y-2.7
X4.0Y-2.6
X4.0Y-2.8
X4.3Y-1.1
X4.325Y-2.6
X4.325Y-2.8
X4.4Y-1.1
X4.5Y-1.1
X4.6Y-1.1
X4.7Y-1.1
X4.8Y-1.1
X4.9Y-1.1
X4.925Y-2.6
X4.925Y-2.8
X5.55Y-1.6
X5.55Y-1.8
X5.8Y-1.85
X5.85Y-1.4
X5.85Y-1.6
X5.85Y-1.9
X5.85Y-2.1
X5.875Y-1.775
X6.05Y-2.875
X6.15Y-1.2
X6.15Y-1.4
X6.15Y-1.7
X6.15Y-1.9
X6.15Y-2.875
X6.25Y-2.875
X6.275Y-1.0
X6.45Y-1.0
X6.45Y-1.5
X6.45Y-1.7
X6.5Y-2.425
X6.5Y-2.525
X6.5Y-2.625
X6.675Y-1.0
X6.85Y-1.0
T4
X2.725Y-1.55
X2.725Y-1.8
X2.9Y-1.55
X2.9Y-1.8
X5.75Y-2.4
X5.75Y-2.65
X5.925Y-2.4
X5.925Y-2.65
T5
X1.675Y-1.38
X1.675Y-2.76
X1.825Y-1.38
X5.105Y-2.655
X5.125Y-2.745
X5.16Y-2.58
X5.28Y-2.5
X5.28Y-2.92
X5.37Y-2.48
X5.37Y-2.9
X5.525Y-2.655
X5.545Y-2.745
X6.825Y-2.76
X6.975Y-1.38
X6.975Y-2.76
T6
X1.75Y-1.1
X2.02Y-1.1
X2.15Y-1.1
X2.3Y-1.425
X2.3Y-1.925
X2.42Y-1.1
X2.7Y-1.425
X2.7Y-1.925
X5.95Y-2.275
X5.95Y-2.775
X6.225Y-1.1
X6.35Y-2.275
X6.35Y-2.775
X6.5Y-1.1
X6.625Y-1.1
X6.9Y-1.1
T7
X1.75Y-1.575
X1.75Y-2.465
X6.9Y-1.675
X6.9Y-2.565
T0
M30
