%TF.GenerationSoftware,KiCad,Pcbnew,(5.1.9)-1*%
%TF.CreationDate,2021-08-06T18:06:19-04:00*%
%TF.ProjectId,MK2_1,4d4b325f-312e-46b6-9963-61645f706362,1*%
%TF.SameCoordinates,Original*%
%TF.FileFunction,Soldermask,Top*%
%TF.FilePolarity,Negative*%
%FSLAX45Y45*%
G04 Gerber Fmt 4.5, Leading zero omitted, Abs format (unit mm)*
G04 Created by KiCad (PCBNEW (5.1.9)-1) date 2021-08-06 18:06:19*
%MOMM*%
%LPD*%
G01*
G04 APERTURE LIST*
%ADD10C,1.778000*%
%ADD11R,1.016000X0.635000*%
%ADD12R,0.762000X0.508000*%
%ADD13R,0.508000X0.762000*%
G04 APERTURE END LIST*
%TO.C,G0*%
G36*
G01*
X17653000Y-4191000D02*
X17653000Y-4318000D01*
G75*
G02*
X17589500Y-4381500I-63500J0D01*
G01*
X17462500Y-4381500D01*
G75*
G02*
X17399000Y-4318000I0J63500D01*
G01*
X17399000Y-4191000D01*
G75*
G02*
X17462500Y-4127500I63500J0D01*
G01*
X17589500Y-4127500D01*
G75*
G02*
X17653000Y-4191000I0J-63500D01*
G01*
G37*
%TD*%
%TO.C,G0*%
G36*
G01*
X17653000Y-6451600D02*
X17653000Y-6578600D01*
G75*
G02*
X17589500Y-6642100I-63500J0D01*
G01*
X17462500Y-6642100D01*
G75*
G02*
X17399000Y-6578600I0J63500D01*
G01*
X17399000Y-6451600D01*
G75*
G02*
X17462500Y-6388100I63500J0D01*
G01*
X17589500Y-6388100D01*
G75*
G02*
X17653000Y-6451600I0J-63500D01*
G01*
G37*
%TD*%
%TO.C,P0*%
G36*
G01*
X17818100Y-3454400D02*
X17818100Y-3556000D01*
G75*
G02*
X17767300Y-3606800I-50800J0D01*
G01*
X17665700Y-3606800D01*
G75*
G02*
X17614900Y-3556000I0J50800D01*
G01*
X17614900Y-3454400D01*
G75*
G02*
X17665700Y-3403600I50800J0D01*
G01*
X17767300Y-3403600D01*
G75*
G02*
X17818100Y-3454400I0J-50800D01*
G01*
G37*
%TD*%
%TO.C,P0*%
G36*
G01*
X17437100Y-6959600D02*
X17437100Y-7061200D01*
G75*
G02*
X17386300Y-7112000I-50800J0D01*
G01*
X17284700Y-7112000D01*
G75*
G02*
X17233900Y-7061200I0J50800D01*
G01*
X17233900Y-6959600D01*
G75*
G02*
X17284700Y-6908800I50800J0D01*
G01*
X17386300Y-6908800D01*
G75*
G02*
X17437100Y-6959600I0J-50800D01*
G01*
G37*
%TD*%
%TO.C,P0*%
G36*
G01*
X17665700Y-6908800D02*
X17767300Y-6908800D01*
G75*
G02*
X17818100Y-6959600I0J-50800D01*
G01*
X17818100Y-7061200D01*
G75*
G02*
X17767300Y-7112000I-50800J0D01*
G01*
X17665700Y-7112000D01*
G75*
G02*
X17614900Y-7061200I0J50800D01*
G01*
X17614900Y-6959600D01*
G75*
G02*
X17665700Y-6908800I50800J0D01*
G01*
G37*
%TD*%
%TO.C,G0*%
G36*
G01*
X4318000Y-4064000D02*
X4318000Y-3937000D01*
G75*
G02*
X4381500Y-3873500I63500J0D01*
G01*
X4508500Y-3873500D01*
G75*
G02*
X4572000Y-3937000I0J-63500D01*
G01*
X4572000Y-4064000D01*
G75*
G02*
X4508500Y-4127500I-63500J0D01*
G01*
X4381500Y-4127500D01*
G75*
G02*
X4318000Y-4064000I0J63500D01*
G01*
G37*
%TD*%
%TO.C,G0*%
G36*
G01*
X4318000Y-6324600D02*
X4318000Y-6197600D01*
G75*
G02*
X4381500Y-6134100I63500J0D01*
G01*
X4508500Y-6134100D01*
G75*
G02*
X4572000Y-6197600I0J-63500D01*
G01*
X4572000Y-6324600D01*
G75*
G02*
X4508500Y-6388100I-63500J0D01*
G01*
X4381500Y-6388100D01*
G75*
G02*
X4318000Y-6324600I0J63500D01*
G01*
G37*
%TD*%
%TO.C,B0*%
G36*
G01*
X6261100Y-5949950D02*
X6261100Y-5861050D01*
G75*
G02*
X6305550Y-5816600I44450J0D01*
G01*
X6394450Y-5816600D01*
G75*
G02*
X6438900Y-5861050I0J-44450D01*
G01*
X6438900Y-5949950D01*
G75*
G02*
X6394450Y-5994400I-44450J0D01*
G01*
X6305550Y-5994400D01*
G75*
G02*
X6261100Y-5949950I0J44450D01*
G01*
G37*
G36*
G01*
X6261100Y-5441950D02*
X6261100Y-5353050D01*
G75*
G02*
X6305550Y-5308600I44450J0D01*
G01*
X6394450Y-5308600D01*
G75*
G02*
X6438900Y-5353050I0J-44450D01*
G01*
X6438900Y-5441950D01*
G75*
G02*
X6394450Y-5486400I-44450J0D01*
G01*
X6305550Y-5486400D01*
G75*
G02*
X6261100Y-5441950I0J44450D01*
G01*
G37*
%TD*%
%TO.C,P0*%
G36*
G01*
X14776450Y-4787900D02*
X14687550Y-4787900D01*
G75*
G02*
X14643100Y-4743450I0J44450D01*
G01*
X14643100Y-4654550D01*
G75*
G02*
X14687550Y-4610100I44450J0D01*
G01*
X14776450Y-4610100D01*
G75*
G02*
X14820900Y-4654550I0J-44450D01*
G01*
X14820900Y-4743450D01*
G75*
G02*
X14776450Y-4787900I-44450J0D01*
G01*
G37*
%TD*%
%TO.C,P0*%
G36*
G01*
X14966950Y-4597400D02*
X14878050Y-4597400D01*
G75*
G02*
X14833600Y-4552950I0J44450D01*
G01*
X14833600Y-4464050D01*
G75*
G02*
X14878050Y-4419600I44450J0D01*
G01*
X14966950Y-4419600D01*
G75*
G02*
X15011400Y-4464050I0J-44450D01*
G01*
X15011400Y-4552950D01*
G75*
G02*
X14966950Y-4597400I-44450J0D01*
G01*
G37*
%TD*%
%TO.C,B0*%
G36*
G01*
X12420600Y-6648450D02*
X12420600Y-6559550D01*
G75*
G02*
X12465050Y-6515100I44450J0D01*
G01*
X12553950Y-6515100D01*
G75*
G02*
X12598400Y-6559550I0J-44450D01*
G01*
X12598400Y-6648450D01*
G75*
G02*
X12553950Y-6692900I-44450J0D01*
G01*
X12465050Y-6692900D01*
G75*
G02*
X12420600Y-6648450I0J44450D01*
G01*
G37*
G36*
G01*
X12420600Y-7156450D02*
X12420600Y-7067550D01*
G75*
G02*
X12465050Y-7023100I44450J0D01*
G01*
X12553950Y-7023100D01*
G75*
G02*
X12598400Y-7067550I0J-44450D01*
G01*
X12598400Y-7156450D01*
G75*
G02*
X12553950Y-7200900I-44450J0D01*
G01*
X12465050Y-7200900D01*
G75*
G02*
X12420600Y-7156450I0J44450D01*
G01*
G37*
%TD*%
%TO.C,B0*%
G36*
G01*
X15532100Y-3092450D02*
X15532100Y-3003550D01*
G75*
G02*
X15576550Y-2959100I44450J0D01*
G01*
X15665450Y-2959100D01*
G75*
G02*
X15709900Y-3003550I0J-44450D01*
G01*
X15709900Y-3092450D01*
G75*
G02*
X15665450Y-3136900I-44450J0D01*
G01*
X15576550Y-3136900D01*
G75*
G02*
X15532100Y-3092450I0J44450D01*
G01*
G37*
G36*
G01*
X15532100Y-3600450D02*
X15532100Y-3511550D01*
G75*
G02*
X15576550Y-3467100I44450J0D01*
G01*
X15665450Y-3467100D01*
G75*
G02*
X15709900Y-3511550I0J-44450D01*
G01*
X15709900Y-3600450D01*
G75*
G02*
X15665450Y-3644900I-44450J0D01*
G01*
X15576550Y-3644900D01*
G75*
G02*
X15532100Y-3600450I0J44450D01*
G01*
G37*
%TD*%
%TO.C,B0*%
G36*
G01*
X16294100Y-3854450D02*
X16294100Y-3765550D01*
G75*
G02*
X16338550Y-3721100I44450J0D01*
G01*
X16427450Y-3721100D01*
G75*
G02*
X16471900Y-3765550I0J-44450D01*
G01*
X16471900Y-3854450D01*
G75*
G02*
X16427450Y-3898900I-44450J0D01*
G01*
X16338550Y-3898900D01*
G75*
G02*
X16294100Y-3854450I0J44450D01*
G01*
G37*
G36*
G01*
X16294100Y-4362450D02*
X16294100Y-4273550D01*
G75*
G02*
X16338550Y-4229100I44450J0D01*
G01*
X16427450Y-4229100D01*
G75*
G02*
X16471900Y-4273550I0J-44450D01*
G01*
X16471900Y-4362450D01*
G75*
G02*
X16427450Y-4406900I-44450J0D01*
G01*
X16338550Y-4406900D01*
G75*
G02*
X16294100Y-4362450I0J44450D01*
G01*
G37*
%TD*%
%TO.C,B0*%
G36*
G01*
X15532100Y-4362450D02*
X15532100Y-4273550D01*
G75*
G02*
X15576550Y-4229100I44450J0D01*
G01*
X15665450Y-4229100D01*
G75*
G02*
X15709900Y-4273550I0J-44450D01*
G01*
X15709900Y-4362450D01*
G75*
G02*
X15665450Y-4406900I-44450J0D01*
G01*
X15576550Y-4406900D01*
G75*
G02*
X15532100Y-4362450I0J44450D01*
G01*
G37*
G36*
G01*
X15532100Y-4870450D02*
X15532100Y-4781550D01*
G75*
G02*
X15576550Y-4737100I44450J0D01*
G01*
X15665450Y-4737100D01*
G75*
G02*
X15709900Y-4781550I0J-44450D01*
G01*
X15709900Y-4870450D01*
G75*
G02*
X15665450Y-4914900I-44450J0D01*
G01*
X15576550Y-4914900D01*
G75*
G02*
X15532100Y-4870450I0J44450D01*
G01*
G37*
%TD*%
%TO.C,B0*%
G36*
G01*
X14770100Y-4870450D02*
X14770100Y-4781550D01*
G75*
G02*
X14814550Y-4737100I44450J0D01*
G01*
X14903450Y-4737100D01*
G75*
G02*
X14947900Y-4781550I0J-44450D01*
G01*
X14947900Y-4870450D01*
G75*
G02*
X14903450Y-4914900I-44450J0D01*
G01*
X14814550Y-4914900D01*
G75*
G02*
X14770100Y-4870450I0J44450D01*
G01*
G37*
G36*
G01*
X14770100Y-5378450D02*
X14770100Y-5289550D01*
G75*
G02*
X14814550Y-5245100I44450J0D01*
G01*
X14903450Y-5245100D01*
G75*
G02*
X14947900Y-5289550I0J-44450D01*
G01*
X14947900Y-5378450D01*
G75*
G02*
X14903450Y-5422900I-44450J0D01*
G01*
X14814550Y-5422900D01*
G75*
G02*
X14770100Y-5378450I0J44450D01*
G01*
G37*
%TD*%
%TO.C,B0*%
G36*
G01*
X14770100Y-3600450D02*
X14770100Y-3511550D01*
G75*
G02*
X14814550Y-3467100I44450J0D01*
G01*
X14903450Y-3467100D01*
G75*
G02*
X14947900Y-3511550I0J-44450D01*
G01*
X14947900Y-3600450D01*
G75*
G02*
X14903450Y-3644900I-44450J0D01*
G01*
X14814550Y-3644900D01*
G75*
G02*
X14770100Y-3600450I0J44450D01*
G01*
G37*
G36*
G01*
X14770100Y-4108450D02*
X14770100Y-4019550D01*
G75*
G02*
X14814550Y-3975100I44450J0D01*
G01*
X14903450Y-3975100D01*
G75*
G02*
X14947900Y-4019550I0J-44450D01*
G01*
X14947900Y-4108450D01*
G75*
G02*
X14903450Y-4152900I-44450J0D01*
G01*
X14814550Y-4152900D01*
G75*
G02*
X14770100Y-4108450I0J44450D01*
G01*
G37*
%TD*%
%TO.C,B0*%
G36*
G01*
X14008100Y-4108450D02*
X14008100Y-4019550D01*
G75*
G02*
X14052550Y-3975100I44450J0D01*
G01*
X14141450Y-3975100D01*
G75*
G02*
X14185900Y-4019550I0J-44450D01*
G01*
X14185900Y-4108450D01*
G75*
G02*
X14141450Y-4152900I-44450J0D01*
G01*
X14052550Y-4152900D01*
G75*
G02*
X14008100Y-4108450I0J44450D01*
G01*
G37*
G36*
G01*
X14008100Y-4616450D02*
X14008100Y-4527550D01*
G75*
G02*
X14052550Y-4483100I44450J0D01*
G01*
X14141450Y-4483100D01*
G75*
G02*
X14185900Y-4527550I0J-44450D01*
G01*
X14185900Y-4616450D01*
G75*
G02*
X14141450Y-4660900I-44450J0D01*
G01*
X14052550Y-4660900D01*
G75*
G02*
X14008100Y-4616450I0J44450D01*
G01*
G37*
%TD*%
%TO.C,B0*%
G36*
G01*
X10896600Y-6648450D02*
X10896600Y-6559550D01*
G75*
G02*
X10941050Y-6515100I44450J0D01*
G01*
X11029950Y-6515100D01*
G75*
G02*
X11074400Y-6559550I0J-44450D01*
G01*
X11074400Y-6648450D01*
G75*
G02*
X11029950Y-6692900I-44450J0D01*
G01*
X10941050Y-6692900D01*
G75*
G02*
X10896600Y-6648450I0J44450D01*
G01*
G37*
G36*
G01*
X10896600Y-7156450D02*
X10896600Y-7067550D01*
G75*
G02*
X10941050Y-7023100I44450J0D01*
G01*
X11029950Y-7023100D01*
G75*
G02*
X11074400Y-7067550I0J-44450D01*
G01*
X11074400Y-7156450D01*
G75*
G02*
X11029950Y-7200900I-44450J0D01*
G01*
X10941050Y-7200900D01*
G75*
G02*
X10896600Y-7156450I0J44450D01*
G01*
G37*
%TD*%
%TO.C,B0*%
G36*
G01*
X10071100Y-6648450D02*
X10071100Y-6559550D01*
G75*
G02*
X10115550Y-6515100I44450J0D01*
G01*
X10204450Y-6515100D01*
G75*
G02*
X10248900Y-6559550I0J-44450D01*
G01*
X10248900Y-6648450D01*
G75*
G02*
X10204450Y-6692900I-44450J0D01*
G01*
X10115550Y-6692900D01*
G75*
G02*
X10071100Y-6648450I0J44450D01*
G01*
G37*
G36*
G01*
X10071100Y-7156450D02*
X10071100Y-7067550D01*
G75*
G02*
X10115550Y-7023100I44450J0D01*
G01*
X10204450Y-7023100D01*
G75*
G02*
X10248900Y-7067550I0J-44450D01*
G01*
X10248900Y-7156450D01*
G75*
G02*
X10204450Y-7200900I-44450J0D01*
G01*
X10115550Y-7200900D01*
G75*
G02*
X10071100Y-7156450I0J44450D01*
G01*
G37*
%TD*%
%TO.C,B0*%
G36*
G01*
X6438900Y-7385050D02*
X6438900Y-7473950D01*
G75*
G02*
X6394450Y-7518400I-44450J0D01*
G01*
X6305550Y-7518400D01*
G75*
G02*
X6261100Y-7473950I0J44450D01*
G01*
X6261100Y-7385050D01*
G75*
G02*
X6305550Y-7340600I44450J0D01*
G01*
X6394450Y-7340600D01*
G75*
G02*
X6438900Y-7385050I0J-44450D01*
G01*
G37*
G36*
G01*
X6438900Y-6877050D02*
X6438900Y-6965950D01*
G75*
G02*
X6394450Y-7010400I-44450J0D01*
G01*
X6305550Y-7010400D01*
G75*
G02*
X6261100Y-6965950I0J44450D01*
G01*
X6261100Y-6877050D01*
G75*
G02*
X6305550Y-6832600I44450J0D01*
G01*
X6394450Y-6832600D01*
G75*
G02*
X6438900Y-6877050I0J-44450D01*
G01*
G37*
%TD*%
%TO.C,B0*%
G36*
G01*
X7321550Y-6324600D02*
X7410450Y-6324600D01*
G75*
G02*
X7454900Y-6369050I0J-44450D01*
G01*
X7454900Y-6457950D01*
G75*
G02*
X7410450Y-6502400I-44450J0D01*
G01*
X7321550Y-6502400D01*
G75*
G02*
X7277100Y-6457950I0J44450D01*
G01*
X7277100Y-6369050D01*
G75*
G02*
X7321550Y-6324600I44450J0D01*
G01*
G37*
G36*
G01*
X6813550Y-6324600D02*
X6902450Y-6324600D01*
G75*
G02*
X6946900Y-6369050I0J-44450D01*
G01*
X6946900Y-6457950D01*
G75*
G02*
X6902450Y-6502400I-44450J0D01*
G01*
X6813550Y-6502400D01*
G75*
G02*
X6769100Y-6457950I0J44450D01*
G01*
X6769100Y-6369050D01*
G75*
G02*
X6813550Y-6324600I44450J0D01*
G01*
G37*
%TD*%
%TO.C,B0*%
G36*
G01*
X5378450Y-6502400D02*
X5289550Y-6502400D01*
G75*
G02*
X5245100Y-6457950I0J44450D01*
G01*
X5245100Y-6369050D01*
G75*
G02*
X5289550Y-6324600I44450J0D01*
G01*
X5378450Y-6324600D01*
G75*
G02*
X5422900Y-6369050I0J-44450D01*
G01*
X5422900Y-6457950D01*
G75*
G02*
X5378450Y-6502400I-44450J0D01*
G01*
G37*
G36*
G01*
X5886450Y-6502400D02*
X5797550Y-6502400D01*
G75*
G02*
X5753100Y-6457950I0J44450D01*
G01*
X5753100Y-6369050D01*
G75*
G02*
X5797550Y-6324600I44450J0D01*
G01*
X5886450Y-6324600D01*
G75*
G02*
X5930900Y-6369050I0J-44450D01*
G01*
X5930900Y-6457950D01*
G75*
G02*
X5886450Y-6502400I-44450J0D01*
G01*
G37*
%TD*%
%TO.C,P0*%
G36*
G01*
X13455650Y-7505700D02*
X13366750Y-7505700D01*
G75*
G02*
X13322300Y-7461250I0J44450D01*
G01*
X13322300Y-7372350D01*
G75*
G02*
X13366750Y-7327900I44450J0D01*
G01*
X13455650Y-7327900D01*
G75*
G02*
X13500100Y-7372350I0J-44450D01*
G01*
X13500100Y-7461250D01*
G75*
G02*
X13455650Y-7505700I-44450J0D01*
G01*
G37*
%TD*%
%TO.C,P0*%
G36*
G01*
X13684250Y-7454900D02*
X13595350Y-7454900D01*
G75*
G02*
X13550900Y-7410450I0J44450D01*
G01*
X13550900Y-7321550D01*
G75*
G02*
X13595350Y-7277100I44450J0D01*
G01*
X13684250Y-7277100D01*
G75*
G02*
X13728700Y-7321550I0J-44450D01*
G01*
X13728700Y-7410450D01*
G75*
G02*
X13684250Y-7454900I-44450J0D01*
G01*
G37*
%TD*%
%TO.C,P0*%
G36*
G01*
X14128750Y-7061200D02*
X14039850Y-7061200D01*
G75*
G02*
X13995400Y-7016750I0J44450D01*
G01*
X13995400Y-6927850D01*
G75*
G02*
X14039850Y-6883400I44450J0D01*
G01*
X14128750Y-6883400D01*
G75*
G02*
X14173200Y-6927850I0J-44450D01*
G01*
X14173200Y-7016750D01*
G75*
G02*
X14128750Y-7061200I-44450J0D01*
G01*
G37*
%TD*%
%TO.C,P0*%
G36*
G01*
X14077950Y-6832600D02*
X13989050Y-6832600D01*
G75*
G02*
X13944600Y-6788150I0J44450D01*
G01*
X13944600Y-6699250D01*
G75*
G02*
X13989050Y-6654800I44450J0D01*
G01*
X14077950Y-6654800D01*
G75*
G02*
X14122400Y-6699250I0J-44450D01*
G01*
X14122400Y-6788150D01*
G75*
G02*
X14077950Y-6832600I-44450J0D01*
G01*
G37*
%TD*%
%TO.C,P0*%
G36*
G01*
X13684250Y-6388100D02*
X13595350Y-6388100D01*
G75*
G02*
X13550900Y-6343650I0J44450D01*
G01*
X13550900Y-6254750D01*
G75*
G02*
X13595350Y-6210300I44450J0D01*
G01*
X13684250Y-6210300D01*
G75*
G02*
X13728700Y-6254750I0J-44450D01*
G01*
X13728700Y-6343650D01*
G75*
G02*
X13684250Y-6388100I-44450J0D01*
G01*
G37*
%TD*%
%TO.C,P0*%
G36*
G01*
X13455650Y-6438900D02*
X13366750Y-6438900D01*
G75*
G02*
X13322300Y-6394450I0J44450D01*
G01*
X13322300Y-6305550D01*
G75*
G02*
X13366750Y-6261100I44450J0D01*
G01*
X13455650Y-6261100D01*
G75*
G02*
X13500100Y-6305550I0J-44450D01*
G01*
X13500100Y-6394450D01*
G75*
G02*
X13455650Y-6438900I-44450J0D01*
G01*
G37*
%TD*%
D10*
%TO.C,P0*%
X13106400Y-6553200D03*
%TD*%
%TO.C,P0*%
G36*
G01*
X13011150Y-6832600D02*
X12922250Y-6832600D01*
G75*
G02*
X12877800Y-6788150I0J44450D01*
G01*
X12877800Y-6699250D01*
G75*
G02*
X12922250Y-6654800I44450J0D01*
G01*
X13011150Y-6654800D01*
G75*
G02*
X13055600Y-6699250I0J-44450D01*
G01*
X13055600Y-6788150D01*
G75*
G02*
X13011150Y-6832600I-44450J0D01*
G01*
G37*
%TD*%
%TO.C,P0*%
G36*
G01*
X13061950Y-7061200D02*
X12973050Y-7061200D01*
G75*
G02*
X12928600Y-7016750I0J44450D01*
G01*
X12928600Y-6927850D01*
G75*
G02*
X12973050Y-6883400I44450J0D01*
G01*
X13061950Y-6883400D01*
G75*
G02*
X13106400Y-6927850I0J-44450D01*
G01*
X13106400Y-7016750D01*
G75*
G02*
X13061950Y-7061200I-44450J0D01*
G01*
G37*
%TD*%
%TO.C,P0*%
G36*
G01*
X14509750Y-6143625D02*
X14509750Y-6048375D01*
G75*
G02*
X14557375Y-6000750I47625J0D01*
G01*
X14652625Y-6000750D01*
G75*
G02*
X14700250Y-6048375I0J-47625D01*
G01*
X14700250Y-6143625D01*
G75*
G02*
X14652625Y-6191250I-47625J0D01*
G01*
X14557375Y-6191250D01*
G75*
G02*
X14509750Y-6143625I0J47625D01*
G01*
G37*
%TD*%
%TO.C,P0*%
G36*
G01*
X14509750Y-6778625D02*
X14509750Y-6683375D01*
G75*
G02*
X14557375Y-6635750I47625J0D01*
G01*
X14652625Y-6635750D01*
G75*
G02*
X14700250Y-6683375I0J-47625D01*
G01*
X14700250Y-6778625D01*
G75*
G02*
X14652625Y-6826250I-47625J0D01*
G01*
X14557375Y-6826250D01*
G75*
G02*
X14509750Y-6778625I0J47625D01*
G01*
G37*
%TD*%
%TO.C,P0*%
G36*
G01*
X14954250Y-6778625D02*
X14954250Y-6683375D01*
G75*
G02*
X15001875Y-6635750I47625J0D01*
G01*
X15097125Y-6635750D01*
G75*
G02*
X15144750Y-6683375I0J-47625D01*
G01*
X15144750Y-6778625D01*
G75*
G02*
X15097125Y-6826250I-47625J0D01*
G01*
X15001875Y-6826250D01*
G75*
G02*
X14954250Y-6778625I0J47625D01*
G01*
G37*
%TD*%
%TO.C,P0*%
G36*
G01*
X14954250Y-6143625D02*
X14954250Y-6048375D01*
G75*
G02*
X15001875Y-6000750I47625J0D01*
G01*
X15097125Y-6000750D01*
G75*
G02*
X15144750Y-6048375I0J-47625D01*
G01*
X15144750Y-6143625D01*
G75*
G02*
X15097125Y-6191250I-47625J0D01*
G01*
X15001875Y-6191250D01*
G75*
G02*
X14954250Y-6143625I0J47625D01*
G01*
G37*
%TD*%
%TO.C,P0*%
G36*
G01*
X6826250Y-3984625D02*
X6826250Y-3889375D01*
G75*
G02*
X6873875Y-3841750I47625J0D01*
G01*
X6969125Y-3841750D01*
G75*
G02*
X7016750Y-3889375I0J-47625D01*
G01*
X7016750Y-3984625D01*
G75*
G02*
X6969125Y-4032250I-47625J0D01*
G01*
X6873875Y-4032250D01*
G75*
G02*
X6826250Y-3984625I0J47625D01*
G01*
G37*
%TD*%
%TO.C,P0*%
G36*
G01*
X6826250Y-4619625D02*
X6826250Y-4524375D01*
G75*
G02*
X6873875Y-4476750I47625J0D01*
G01*
X6969125Y-4476750D01*
G75*
G02*
X7016750Y-4524375I0J-47625D01*
G01*
X7016750Y-4619625D01*
G75*
G02*
X6969125Y-4667250I-47625J0D01*
G01*
X6873875Y-4667250D01*
G75*
G02*
X6826250Y-4619625I0J47625D01*
G01*
G37*
%TD*%
%TO.C,P0*%
G36*
G01*
X7270750Y-4619625D02*
X7270750Y-4524375D01*
G75*
G02*
X7318375Y-4476750I47625J0D01*
G01*
X7413625Y-4476750D01*
G75*
G02*
X7461250Y-4524375I0J-47625D01*
G01*
X7461250Y-4619625D01*
G75*
G02*
X7413625Y-4667250I-47625J0D01*
G01*
X7318375Y-4667250D01*
G75*
G02*
X7270750Y-4619625I0J47625D01*
G01*
G37*
%TD*%
%TO.C,P0*%
G36*
G01*
X7270750Y-3984625D02*
X7270750Y-3889375D01*
G75*
G02*
X7318375Y-3841750I47625J0D01*
G01*
X7413625Y-3841750D01*
G75*
G02*
X7461250Y-3889375I0J-47625D01*
G01*
X7461250Y-3984625D01*
G75*
G02*
X7413625Y-4032250I-47625J0D01*
G01*
X7318375Y-4032250D01*
G75*
G02*
X7270750Y-3984625I0J47625D01*
G01*
G37*
%TD*%
%TO.C,P0*%
G36*
G01*
X12490450Y-2882900D02*
X12401550Y-2882900D01*
G75*
G02*
X12357100Y-2838450I0J44450D01*
G01*
X12357100Y-2749550D01*
G75*
G02*
X12401550Y-2705100I44450J0D01*
G01*
X12490450Y-2705100D01*
G75*
G02*
X12534900Y-2749550I0J-44450D01*
G01*
X12534900Y-2838450D01*
G75*
G02*
X12490450Y-2882900I-44450J0D01*
G01*
G37*
%TD*%
%TO.C,P0*%
G36*
G01*
X12236450Y-2882900D02*
X12147550Y-2882900D01*
G75*
G02*
X12103100Y-2838450I0J44450D01*
G01*
X12103100Y-2749550D01*
G75*
G02*
X12147550Y-2705100I44450J0D01*
G01*
X12236450Y-2705100D01*
G75*
G02*
X12280900Y-2749550I0J-44450D01*
G01*
X12280900Y-2838450D01*
G75*
G02*
X12236450Y-2882900I-44450J0D01*
G01*
G37*
%TD*%
%TO.C,P0*%
G36*
G01*
X11982450Y-2882900D02*
X11893550Y-2882900D01*
G75*
G02*
X11849100Y-2838450I0J44450D01*
G01*
X11849100Y-2749550D01*
G75*
G02*
X11893550Y-2705100I44450J0D01*
G01*
X11982450Y-2705100D01*
G75*
G02*
X12026900Y-2749550I0J-44450D01*
G01*
X12026900Y-2838450D01*
G75*
G02*
X11982450Y-2882900I-44450J0D01*
G01*
G37*
%TD*%
%TO.C,P0*%
G36*
G01*
X11728450Y-2882900D02*
X11639550Y-2882900D01*
G75*
G02*
X11595100Y-2838450I0J44450D01*
G01*
X11595100Y-2749550D01*
G75*
G02*
X11639550Y-2705100I44450J0D01*
G01*
X11728450Y-2705100D01*
G75*
G02*
X11772900Y-2749550I0J-44450D01*
G01*
X11772900Y-2838450D01*
G75*
G02*
X11728450Y-2882900I-44450J0D01*
G01*
G37*
%TD*%
%TO.C,P0*%
G36*
G01*
X11474450Y-2882900D02*
X11385550Y-2882900D01*
G75*
G02*
X11341100Y-2838450I0J44450D01*
G01*
X11341100Y-2749550D01*
G75*
G02*
X11385550Y-2705100I44450J0D01*
G01*
X11474450Y-2705100D01*
G75*
G02*
X11518900Y-2749550I0J-44450D01*
G01*
X11518900Y-2838450D01*
G75*
G02*
X11474450Y-2882900I-44450J0D01*
G01*
G37*
%TD*%
%TO.C,P0*%
G36*
G01*
X11220450Y-2882900D02*
X11131550Y-2882900D01*
G75*
G02*
X11087100Y-2838450I0J44450D01*
G01*
X11087100Y-2749550D01*
G75*
G02*
X11131550Y-2705100I44450J0D01*
G01*
X11220450Y-2705100D01*
G75*
G02*
X11264900Y-2749550I0J-44450D01*
G01*
X11264900Y-2838450D01*
G75*
G02*
X11220450Y-2882900I-44450J0D01*
G01*
G37*
%TD*%
%TO.C,P0*%
G36*
G01*
X10966450Y-2882900D02*
X10877550Y-2882900D01*
G75*
G02*
X10833100Y-2838450I0J44450D01*
G01*
X10833100Y-2749550D01*
G75*
G02*
X10877550Y-2705100I44450J0D01*
G01*
X10966450Y-2705100D01*
G75*
G02*
X11010900Y-2749550I0J-44450D01*
G01*
X11010900Y-2838450D01*
G75*
G02*
X10966450Y-2882900I-44450J0D01*
G01*
G37*
%TD*%
%TO.C,P0*%
G36*
G01*
X4616450Y-2628900D02*
X4527550Y-2628900D01*
G75*
G02*
X4483100Y-2584450I0J44450D01*
G01*
X4483100Y-2495550D01*
G75*
G02*
X4527550Y-2451100I44450J0D01*
G01*
X4616450Y-2451100D01*
G75*
G02*
X4660900Y-2495550I0J-44450D01*
G01*
X4660900Y-2584450D01*
G75*
G02*
X4616450Y-2628900I-44450J0D01*
G01*
G37*
%TD*%
%TO.C,P0*%
G36*
G01*
X5060950Y-2628900D02*
X4972050Y-2628900D01*
G75*
G02*
X4927600Y-2584450I0J44450D01*
G01*
X4927600Y-2495550D01*
G75*
G02*
X4972050Y-2451100I44450J0D01*
G01*
X5060950Y-2451100D01*
G75*
G02*
X5105400Y-2495550I0J-44450D01*
G01*
X5105400Y-2584450D01*
G75*
G02*
X5060950Y-2628900I-44450J0D01*
G01*
G37*
%TD*%
%TO.C,P0*%
G36*
G01*
X5632450Y-2628900D02*
X5543550Y-2628900D01*
G75*
G02*
X5499100Y-2584450I0J44450D01*
G01*
X5499100Y-2495550D01*
G75*
G02*
X5543550Y-2451100I44450J0D01*
G01*
X5632450Y-2451100D01*
G75*
G02*
X5676900Y-2495550I0J-44450D01*
G01*
X5676900Y-2584450D01*
G75*
G02*
X5632450Y-2628900I-44450J0D01*
G01*
G37*
%TD*%
%TO.C,P0*%
G36*
G01*
X6076950Y-2628900D02*
X5988050Y-2628900D01*
G75*
G02*
X5943600Y-2584450I0J44450D01*
G01*
X5943600Y-2495550D01*
G75*
G02*
X5988050Y-2451100I44450J0D01*
G01*
X6076950Y-2451100D01*
G75*
G02*
X6121400Y-2495550I0J-44450D01*
G01*
X6121400Y-2584450D01*
G75*
G02*
X6076950Y-2628900I-44450J0D01*
G01*
G37*
%TD*%
%TO.C,P0*%
G36*
G01*
X17443450Y-2628900D02*
X17354550Y-2628900D01*
G75*
G02*
X17310100Y-2584450I0J44450D01*
G01*
X17310100Y-2495550D01*
G75*
G02*
X17354550Y-2451100I44450J0D01*
G01*
X17443450Y-2451100D01*
G75*
G02*
X17487900Y-2495550I0J-44450D01*
G01*
X17487900Y-2584450D01*
G75*
G02*
X17443450Y-2628900I-44450J0D01*
G01*
G37*
%TD*%
%TO.C,P0*%
G36*
G01*
X16998950Y-2628900D02*
X16910050Y-2628900D01*
G75*
G02*
X16865600Y-2584450I0J44450D01*
G01*
X16865600Y-2495550D01*
G75*
G02*
X16910050Y-2451100I44450J0D01*
G01*
X16998950Y-2451100D01*
G75*
G02*
X17043400Y-2495550I0J-44450D01*
G01*
X17043400Y-2584450D01*
G75*
G02*
X16998950Y-2628900I-44450J0D01*
G01*
G37*
%TD*%
%TO.C,P0*%
G36*
G01*
X16427450Y-2628900D02*
X16338550Y-2628900D01*
G75*
G02*
X16294100Y-2584450I0J44450D01*
G01*
X16294100Y-2495550D01*
G75*
G02*
X16338550Y-2451100I44450J0D01*
G01*
X16427450Y-2451100D01*
G75*
G02*
X16471900Y-2495550I0J-44450D01*
G01*
X16471900Y-2584450D01*
G75*
G02*
X16427450Y-2628900I-44450J0D01*
G01*
G37*
%TD*%
%TO.C,P0*%
G36*
G01*
X15982950Y-2628900D02*
X15894050Y-2628900D01*
G75*
G02*
X15849600Y-2584450I0J44450D01*
G01*
X15849600Y-2495550D01*
G75*
G02*
X15894050Y-2451100I44450J0D01*
G01*
X15982950Y-2451100D01*
G75*
G02*
X16027400Y-2495550I0J-44450D01*
G01*
X16027400Y-2584450D01*
G75*
G02*
X15982950Y-2628900I-44450J0D01*
G01*
G37*
%TD*%
%TO.C,P0*%
G36*
G01*
X15411450Y-7391400D02*
X15322550Y-7391400D01*
G75*
G02*
X15278100Y-7346950I0J44450D01*
G01*
X15278100Y-7258050D01*
G75*
G02*
X15322550Y-7213600I44450J0D01*
G01*
X15411450Y-7213600D01*
G75*
G02*
X15455900Y-7258050I0J-44450D01*
G01*
X15455900Y-7346950D01*
G75*
G02*
X15411450Y-7391400I-44450J0D01*
G01*
G37*
%TD*%
%TO.C,P0*%
G36*
G01*
X15665450Y-7391400D02*
X15576550Y-7391400D01*
G75*
G02*
X15532100Y-7346950I0J44450D01*
G01*
X15532100Y-7258050D01*
G75*
G02*
X15576550Y-7213600I44450J0D01*
G01*
X15665450Y-7213600D01*
G75*
G02*
X15709900Y-7258050I0J-44450D01*
G01*
X15709900Y-7346950D01*
G75*
G02*
X15665450Y-7391400I-44450J0D01*
G01*
G37*
%TD*%
%TO.C,P0*%
G36*
G01*
X15919450Y-7391400D02*
X15830550Y-7391400D01*
G75*
G02*
X15786100Y-7346950I0J44450D01*
G01*
X15786100Y-7258050D01*
G75*
G02*
X15830550Y-7213600I44450J0D01*
G01*
X15919450Y-7213600D01*
G75*
G02*
X15963900Y-7258050I0J-44450D01*
G01*
X15963900Y-7346950D01*
G75*
G02*
X15919450Y-7391400I-44450J0D01*
G01*
G37*
%TD*%
%TO.C,P0*%
G36*
G01*
X16554450Y-6756400D02*
X16465550Y-6756400D01*
G75*
G02*
X16421100Y-6711950I0J44450D01*
G01*
X16421100Y-6623050D01*
G75*
G02*
X16465550Y-6578600I44450J0D01*
G01*
X16554450Y-6578600D01*
G75*
G02*
X16598900Y-6623050I0J-44450D01*
G01*
X16598900Y-6711950D01*
G75*
G02*
X16554450Y-6756400I-44450J0D01*
G01*
G37*
%TD*%
%TO.C,P0*%
G36*
G01*
X16554450Y-6502400D02*
X16465550Y-6502400D01*
G75*
G02*
X16421100Y-6457950I0J44450D01*
G01*
X16421100Y-6369050D01*
G75*
G02*
X16465550Y-6324600I44450J0D01*
G01*
X16554450Y-6324600D01*
G75*
G02*
X16598900Y-6369050I0J-44450D01*
G01*
X16598900Y-6457950D01*
G75*
G02*
X16554450Y-6502400I-44450J0D01*
G01*
G37*
%TD*%
%TO.C,P0*%
G36*
G01*
X16554450Y-6248400D02*
X16465550Y-6248400D01*
G75*
G02*
X16421100Y-6203950I0J44450D01*
G01*
X16421100Y-6115050D01*
G75*
G02*
X16465550Y-6070600I44450J0D01*
G01*
X16554450Y-6070600D01*
G75*
G02*
X16598900Y-6115050I0J-44450D01*
G01*
X16598900Y-6203950D01*
G75*
G02*
X16554450Y-6248400I-44450J0D01*
G01*
G37*
%TD*%
%TO.C,P0*%
G36*
G01*
X6648450Y-3454400D02*
X6559550Y-3454400D01*
G75*
G02*
X6515100Y-3409950I0J44450D01*
G01*
X6515100Y-3321050D01*
G75*
G02*
X6559550Y-3276600I44450J0D01*
G01*
X6648450Y-3276600D01*
G75*
G02*
X6692900Y-3321050I0J-44450D01*
G01*
X6692900Y-3409950D01*
G75*
G02*
X6648450Y-3454400I-44450J0D01*
G01*
G37*
%TD*%
%TO.C,P0*%
G36*
G01*
X6394450Y-3454400D02*
X6305550Y-3454400D01*
G75*
G02*
X6261100Y-3409950I0J44450D01*
G01*
X6261100Y-3321050D01*
G75*
G02*
X6305550Y-3276600I44450J0D01*
G01*
X6394450Y-3276600D01*
G75*
G02*
X6438900Y-3321050I0J-44450D01*
G01*
X6438900Y-3409950D01*
G75*
G02*
X6394450Y-3454400I-44450J0D01*
G01*
G37*
%TD*%
%TO.C,P0*%
G36*
G01*
X6140450Y-3454400D02*
X6051550Y-3454400D01*
G75*
G02*
X6007100Y-3409950I0J44450D01*
G01*
X6007100Y-3321050D01*
G75*
G02*
X6051550Y-3276600I44450J0D01*
G01*
X6140450Y-3276600D01*
G75*
G02*
X6184900Y-3321050I0J-44450D01*
G01*
X6184900Y-3409950D01*
G75*
G02*
X6140450Y-3454400I-44450J0D01*
G01*
G37*
%TD*%
%TO.C,P0*%
G36*
G01*
X5505450Y-4597400D02*
X5416550Y-4597400D01*
G75*
G02*
X5372100Y-4552950I0J44450D01*
G01*
X5372100Y-4464050D01*
G75*
G02*
X5416550Y-4419600I44450J0D01*
G01*
X5505450Y-4419600D01*
G75*
G02*
X5549900Y-4464050I0J-44450D01*
G01*
X5549900Y-4552950D01*
G75*
G02*
X5505450Y-4597400I-44450J0D01*
G01*
G37*
%TD*%
%TO.C,P0*%
G36*
G01*
X5505450Y-4343400D02*
X5416550Y-4343400D01*
G75*
G02*
X5372100Y-4298950I0J44450D01*
G01*
X5372100Y-4210050D01*
G75*
G02*
X5416550Y-4165600I44450J0D01*
G01*
X5505450Y-4165600D01*
G75*
G02*
X5549900Y-4210050I0J-44450D01*
G01*
X5549900Y-4298950D01*
G75*
G02*
X5505450Y-4343400I-44450J0D01*
G01*
G37*
%TD*%
%TO.C,P0*%
G36*
G01*
X5505450Y-4089400D02*
X5416550Y-4089400D01*
G75*
G02*
X5372100Y-4044950I0J44450D01*
G01*
X5372100Y-3956050D01*
G75*
G02*
X5416550Y-3911600I44450J0D01*
G01*
X5505450Y-3911600D01*
G75*
G02*
X5549900Y-3956050I0J-44450D01*
G01*
X5549900Y-4044950D01*
G75*
G02*
X5505450Y-4089400I-44450J0D01*
G01*
G37*
%TD*%
%TO.C,G0*%
G36*
G01*
X6750050Y-4943475D02*
X6750050Y-4835525D01*
G75*
G02*
X6804025Y-4781550I53975J0D01*
G01*
X6911975Y-4781550D01*
G75*
G02*
X6965950Y-4835525I0J-53975D01*
G01*
X6965950Y-4943475D01*
G75*
G02*
X6911975Y-4997450I-53975J0D01*
G01*
X6804025Y-4997450D01*
G75*
G02*
X6750050Y-4943475I0J53975D01*
G01*
G37*
%TD*%
%TO.C,G0*%
G36*
G01*
X5734050Y-4943475D02*
X5734050Y-4835525D01*
G75*
G02*
X5788025Y-4781550I53975J0D01*
G01*
X5895975Y-4781550D01*
G75*
G02*
X5949950Y-4835525I0J-53975D01*
G01*
X5949950Y-4943475D01*
G75*
G02*
X5895975Y-4997450I-53975J0D01*
G01*
X5788025Y-4997450D01*
G75*
G02*
X5734050Y-4943475I0J53975D01*
G01*
G37*
%TD*%
%TO.C,G0*%
G36*
G01*
X5734050Y-3673475D02*
X5734050Y-3565525D01*
G75*
G02*
X5788025Y-3511550I53975J0D01*
G01*
X5895975Y-3511550D01*
G75*
G02*
X5949950Y-3565525I0J-53975D01*
G01*
X5949950Y-3673475D01*
G75*
G02*
X5895975Y-3727450I-53975J0D01*
G01*
X5788025Y-3727450D01*
G75*
G02*
X5734050Y-3673475I0J53975D01*
G01*
G37*
%TD*%
%TO.C,G0*%
G36*
G01*
X6750050Y-3673475D02*
X6750050Y-3565525D01*
G75*
G02*
X6804025Y-3511550I53975J0D01*
G01*
X6911975Y-3511550D01*
G75*
G02*
X6965950Y-3565525I0J-53975D01*
G01*
X6965950Y-3673475D01*
G75*
G02*
X6911975Y-3727450I-53975J0D01*
G01*
X6804025Y-3727450D01*
G75*
G02*
X6750050Y-3673475I0J53975D01*
G01*
G37*
%TD*%
%TO.C,G0*%
G36*
G01*
X15005050Y-7102475D02*
X15005050Y-6994525D01*
G75*
G02*
X15059025Y-6940550I53975J0D01*
G01*
X15166975Y-6940550D01*
G75*
G02*
X15220950Y-6994525I0J-53975D01*
G01*
X15220950Y-7102475D01*
G75*
G02*
X15166975Y-7156450I-53975J0D01*
G01*
X15059025Y-7156450D01*
G75*
G02*
X15005050Y-7102475I0J53975D01*
G01*
G37*
%TD*%
%TO.C,G0*%
G36*
G01*
X16021050Y-7102475D02*
X16021050Y-6994525D01*
G75*
G02*
X16075025Y-6940550I53975J0D01*
G01*
X16182975Y-6940550D01*
G75*
G02*
X16236950Y-6994525I0J-53975D01*
G01*
X16236950Y-7102475D01*
G75*
G02*
X16182975Y-7156450I-53975J0D01*
G01*
X16075025Y-7156450D01*
G75*
G02*
X16021050Y-7102475I0J53975D01*
G01*
G37*
%TD*%
%TO.C,G0*%
G36*
G01*
X16021050Y-5832475D02*
X16021050Y-5724525D01*
G75*
G02*
X16075025Y-5670550I53975J0D01*
G01*
X16182975Y-5670550D01*
G75*
G02*
X16236950Y-5724525I0J-53975D01*
G01*
X16236950Y-5832475D01*
G75*
G02*
X16182975Y-5886450I-53975J0D01*
G01*
X16075025Y-5886450D01*
G75*
G02*
X16021050Y-5832475I0J53975D01*
G01*
G37*
%TD*%
%TO.C,G0*%
G36*
G01*
X15005050Y-5832475D02*
X15005050Y-5724525D01*
G75*
G02*
X15059025Y-5670550I53975J0D01*
G01*
X15166975Y-5670550D01*
G75*
G02*
X15220950Y-5724525I0J-53975D01*
G01*
X15220950Y-5832475D01*
G75*
G02*
X15166975Y-5886450I-53975J0D01*
G01*
X15059025Y-5886450D01*
G75*
G02*
X15005050Y-5832475I0J53975D01*
G01*
G37*
%TD*%
%TO.C,P0*%
G36*
G01*
X4533900Y-3556000D02*
X4533900Y-3454400D01*
G75*
G02*
X4584700Y-3403600I50800J0D01*
G01*
X4686300Y-3403600D01*
G75*
G02*
X4737100Y-3454400I0J-50800D01*
G01*
X4737100Y-3556000D01*
G75*
G02*
X4686300Y-3606800I-50800J0D01*
G01*
X4584700Y-3606800D01*
G75*
G02*
X4533900Y-3556000I0J50800D01*
G01*
G37*
%TD*%
%TO.C,P0*%
G36*
G01*
X4152900Y-7061200D02*
X4152900Y-6959600D01*
G75*
G02*
X4203700Y-6908800I50800J0D01*
G01*
X4305300Y-6908800D01*
G75*
G02*
X4356100Y-6959600I0J-50800D01*
G01*
X4356100Y-7061200D01*
G75*
G02*
X4305300Y-7112000I-50800J0D01*
G01*
X4203700Y-7112000D01*
G75*
G02*
X4152900Y-7061200I0J50800D01*
G01*
G37*
%TD*%
%TO.C,P0*%
G36*
G01*
X4305300Y-3606800D02*
X4203700Y-3606800D01*
G75*
G02*
X4152900Y-3556000I0J50800D01*
G01*
X4152900Y-3454400D01*
G75*
G02*
X4203700Y-3403600I50800J0D01*
G01*
X4305300Y-3403600D01*
G75*
G02*
X4356100Y-3454400I0J-50800D01*
G01*
X4356100Y-3556000D01*
G75*
G02*
X4305300Y-3606800I-50800J0D01*
G01*
G37*
%TD*%
%TO.C,G0*%
G36*
G01*
X15868650Y-2908300D02*
X15754350Y-2908300D01*
G75*
G02*
X15697200Y-2851150I0J57150D01*
G01*
X15697200Y-2736850D01*
G75*
G02*
X15754350Y-2679700I57150J0D01*
G01*
X15868650Y-2679700D01*
G75*
G02*
X15925800Y-2736850I0J-57150D01*
G01*
X15925800Y-2851150D01*
G75*
G02*
X15868650Y-2908300I-57150J0D01*
G01*
G37*
%TD*%
%TO.C,G0*%
G36*
G01*
X16567150Y-2908300D02*
X16452850Y-2908300D01*
G75*
G02*
X16395700Y-2851150I0J57150D01*
G01*
X16395700Y-2736850D01*
G75*
G02*
X16452850Y-2679700I57150J0D01*
G01*
X16567150Y-2679700D01*
G75*
G02*
X16624300Y-2736850I0J-57150D01*
G01*
X16624300Y-2851150D01*
G75*
G02*
X16567150Y-2908300I-57150J0D01*
G01*
G37*
%TD*%
%TO.C,G0*%
G36*
G01*
X16884650Y-2908300D02*
X16770350Y-2908300D01*
G75*
G02*
X16713200Y-2851150I0J57150D01*
G01*
X16713200Y-2736850D01*
G75*
G02*
X16770350Y-2679700I57150J0D01*
G01*
X16884650Y-2679700D01*
G75*
G02*
X16941800Y-2736850I0J-57150D01*
G01*
X16941800Y-2851150D01*
G75*
G02*
X16884650Y-2908300I-57150J0D01*
G01*
G37*
%TD*%
%TO.C,G0*%
G36*
G01*
X17583150Y-2908300D02*
X17468850Y-2908300D01*
G75*
G02*
X17411700Y-2851150I0J57150D01*
G01*
X17411700Y-2736850D01*
G75*
G02*
X17468850Y-2679700I57150J0D01*
G01*
X17583150Y-2679700D01*
G75*
G02*
X17640300Y-2736850I0J-57150D01*
G01*
X17640300Y-2851150D01*
G75*
G02*
X17583150Y-2908300I-57150J0D01*
G01*
G37*
%TD*%
%TO.C,G0*%
G36*
G01*
X5187950Y-2908300D02*
X5073650Y-2908300D01*
G75*
G02*
X5016500Y-2851150I0J57150D01*
G01*
X5016500Y-2736850D01*
G75*
G02*
X5073650Y-2679700I57150J0D01*
G01*
X5187950Y-2679700D01*
G75*
G02*
X5245100Y-2736850I0J-57150D01*
G01*
X5245100Y-2851150D01*
G75*
G02*
X5187950Y-2908300I-57150J0D01*
G01*
G37*
%TD*%
%TO.C,G0*%
G36*
G01*
X4502150Y-2908300D02*
X4387850Y-2908300D01*
G75*
G02*
X4330700Y-2851150I0J57150D01*
G01*
X4330700Y-2736850D01*
G75*
G02*
X4387850Y-2679700I57150J0D01*
G01*
X4502150Y-2679700D01*
G75*
G02*
X4559300Y-2736850I0J-57150D01*
G01*
X4559300Y-2851150D01*
G75*
G02*
X4502150Y-2908300I-57150J0D01*
G01*
G37*
%TD*%
%TO.C,G0*%
G36*
G01*
X6203950Y-2908300D02*
X6089650Y-2908300D01*
G75*
G02*
X6032500Y-2851150I0J57150D01*
G01*
X6032500Y-2736850D01*
G75*
G02*
X6089650Y-2679700I57150J0D01*
G01*
X6203950Y-2679700D01*
G75*
G02*
X6261100Y-2736850I0J-57150D01*
G01*
X6261100Y-2851150D01*
G75*
G02*
X6203950Y-2908300I-57150J0D01*
G01*
G37*
%TD*%
%TO.C,G0*%
G36*
G01*
X5518150Y-2908300D02*
X5403850Y-2908300D01*
G75*
G02*
X5346700Y-2851150I0J57150D01*
G01*
X5346700Y-2736850D01*
G75*
G02*
X5403850Y-2679700I57150J0D01*
G01*
X5518150Y-2679700D01*
G75*
G02*
X5575300Y-2736850I0J-57150D01*
G01*
X5575300Y-2851150D01*
G75*
G02*
X5518150Y-2908300I-57150J0D01*
G01*
G37*
%TD*%
%TO.C,AM0*%
G36*
G01*
X7912100Y-6648450D02*
X7912100Y-6559550D01*
G75*
G02*
X7956550Y-6515100I44450J0D01*
G01*
X8045450Y-6515100D01*
G75*
G02*
X8089900Y-6559550I0J-44450D01*
G01*
X8089900Y-6648450D01*
G75*
G02*
X8045450Y-6692900I-44450J0D01*
G01*
X7956550Y-6692900D01*
G75*
G02*
X7912100Y-6648450I0J44450D01*
G01*
G37*
G36*
G01*
X9436100Y-2838450D02*
X9436100Y-2749550D01*
G75*
G02*
X9480550Y-2705100I44450J0D01*
G01*
X9569450Y-2705100D01*
G75*
G02*
X9613900Y-2749550I0J-44450D01*
G01*
X9613900Y-2838450D01*
G75*
G02*
X9569450Y-2882900I-44450J0D01*
G01*
X9480550Y-2882900D01*
G75*
G02*
X9436100Y-2838450I0J44450D01*
G01*
G37*
G36*
G01*
X9436100Y-3092450D02*
X9436100Y-3003550D01*
G75*
G02*
X9480550Y-2959100I44450J0D01*
G01*
X9569450Y-2959100D01*
G75*
G02*
X9613900Y-3003550I0J-44450D01*
G01*
X9613900Y-3092450D01*
G75*
G02*
X9569450Y-3136900I-44450J0D01*
G01*
X9480550Y-3136900D01*
G75*
G02*
X9436100Y-3092450I0J44450D01*
G01*
G37*
G36*
G01*
X9436100Y-3346450D02*
X9436100Y-3257550D01*
G75*
G02*
X9480550Y-3213100I44450J0D01*
G01*
X9569450Y-3213100D01*
G75*
G02*
X9613900Y-3257550I0J-44450D01*
G01*
X9613900Y-3346450D01*
G75*
G02*
X9569450Y-3390900I-44450J0D01*
G01*
X9480550Y-3390900D01*
G75*
G02*
X9436100Y-3346450I0J44450D01*
G01*
G37*
G36*
G01*
X9436100Y-3600450D02*
X9436100Y-3511550D01*
G75*
G02*
X9480550Y-3467100I44450J0D01*
G01*
X9569450Y-3467100D01*
G75*
G02*
X9613900Y-3511550I0J-44450D01*
G01*
X9613900Y-3600450D01*
G75*
G02*
X9569450Y-3644900I-44450J0D01*
G01*
X9480550Y-3644900D01*
G75*
G02*
X9436100Y-3600450I0J44450D01*
G01*
G37*
G36*
G01*
X9436100Y-3854450D02*
X9436100Y-3765550D01*
G75*
G02*
X9480550Y-3721100I44450J0D01*
G01*
X9569450Y-3721100D01*
G75*
G02*
X9613900Y-3765550I0J-44450D01*
G01*
X9613900Y-3854450D01*
G75*
G02*
X9569450Y-3898900I-44450J0D01*
G01*
X9480550Y-3898900D01*
G75*
G02*
X9436100Y-3854450I0J44450D01*
G01*
G37*
G36*
G01*
X9436100Y-4108450D02*
X9436100Y-4019550D01*
G75*
G02*
X9480550Y-3975100I44450J0D01*
G01*
X9569450Y-3975100D01*
G75*
G02*
X9613900Y-4019550I0J-44450D01*
G01*
X9613900Y-4108450D01*
G75*
G02*
X9569450Y-4152900I-44450J0D01*
G01*
X9480550Y-4152900D01*
G75*
G02*
X9436100Y-4108450I0J44450D01*
G01*
G37*
G36*
G01*
X9436100Y-4362450D02*
X9436100Y-4273550D01*
G75*
G02*
X9480550Y-4229100I44450J0D01*
G01*
X9569450Y-4229100D01*
G75*
G02*
X9613900Y-4273550I0J-44450D01*
G01*
X9613900Y-4362450D01*
G75*
G02*
X9569450Y-4406900I-44450J0D01*
G01*
X9480550Y-4406900D01*
G75*
G02*
X9436100Y-4362450I0J44450D01*
G01*
G37*
G36*
G01*
X9436100Y-4616450D02*
X9436100Y-4527550D01*
G75*
G02*
X9480550Y-4483100I44450J0D01*
G01*
X9569450Y-4483100D01*
G75*
G02*
X9613900Y-4527550I0J-44450D01*
G01*
X9613900Y-4616450D01*
G75*
G02*
X9569450Y-4660900I-44450J0D01*
G01*
X9480550Y-4660900D01*
G75*
G02*
X9436100Y-4616450I0J44450D01*
G01*
G37*
G36*
G01*
X9436100Y-4870450D02*
X9436100Y-4781550D01*
G75*
G02*
X9480550Y-4737100I44450J0D01*
G01*
X9569450Y-4737100D01*
G75*
G02*
X9613900Y-4781550I0J-44450D01*
G01*
X9613900Y-4870450D01*
G75*
G02*
X9569450Y-4914900I-44450J0D01*
G01*
X9480550Y-4914900D01*
G75*
G02*
X9436100Y-4870450I0J44450D01*
G01*
G37*
G36*
G01*
X9436100Y-5124450D02*
X9436100Y-5035550D01*
G75*
G02*
X9480550Y-4991100I44450J0D01*
G01*
X9569450Y-4991100D01*
G75*
G02*
X9613900Y-5035550I0J-44450D01*
G01*
X9613900Y-5124450D01*
G75*
G02*
X9569450Y-5168900I-44450J0D01*
G01*
X9480550Y-5168900D01*
G75*
G02*
X9436100Y-5124450I0J44450D01*
G01*
G37*
G36*
G01*
X9436100Y-5378450D02*
X9436100Y-5289550D01*
G75*
G02*
X9480550Y-5245100I44450J0D01*
G01*
X9569450Y-5245100D01*
G75*
G02*
X9613900Y-5289550I0J-44450D01*
G01*
X9613900Y-5378450D01*
G75*
G02*
X9569450Y-5422900I-44450J0D01*
G01*
X9480550Y-5422900D01*
G75*
G02*
X9436100Y-5378450I0J44450D01*
G01*
G37*
G36*
G01*
X9569450Y-5676900D02*
X9480550Y-5676900D01*
G75*
G02*
X9436100Y-5632450I0J44450D01*
G01*
X9436100Y-5543550D01*
G75*
G02*
X9480550Y-5499100I44450J0D01*
G01*
X9569450Y-5499100D01*
G75*
G02*
X9613900Y-5543550I0J-44450D01*
G01*
X9613900Y-5632450D01*
G75*
G02*
X9569450Y-5676900I-44450J0D01*
G01*
G37*
G36*
G01*
X9436100Y-5886450D02*
X9436100Y-5797550D01*
G75*
G02*
X9480550Y-5753100I44450J0D01*
G01*
X9569450Y-5753100D01*
G75*
G02*
X9613900Y-5797550I0J-44450D01*
G01*
X9613900Y-5886450D01*
G75*
G02*
X9569450Y-5930900I-44450J0D01*
G01*
X9480550Y-5930900D01*
G75*
G02*
X9436100Y-5886450I0J44450D01*
G01*
G37*
G36*
G01*
X9569450Y-6184900D02*
X9480550Y-6184900D01*
G75*
G02*
X9436100Y-6140450I0J44450D01*
G01*
X9436100Y-6051550D01*
G75*
G02*
X9480550Y-6007100I44450J0D01*
G01*
X9569450Y-6007100D01*
G75*
G02*
X9613900Y-6051550I0J-44450D01*
G01*
X9613900Y-6140450D01*
G75*
G02*
X9569450Y-6184900I-44450J0D01*
G01*
G37*
G36*
G01*
X9436100Y-6394450D02*
X9436100Y-6305550D01*
G75*
G02*
X9480550Y-6261100I44450J0D01*
G01*
X9569450Y-6261100D01*
G75*
G02*
X9613900Y-6305550I0J-44450D01*
G01*
X9613900Y-6394450D01*
G75*
G02*
X9569450Y-6438900I-44450J0D01*
G01*
X9480550Y-6438900D01*
G75*
G02*
X9436100Y-6394450I0J44450D01*
G01*
G37*
G36*
G01*
X9436100Y-6648450D02*
X9436100Y-6559550D01*
G75*
G02*
X9480550Y-6515100I44450J0D01*
G01*
X9569450Y-6515100D01*
G75*
G02*
X9613900Y-6559550I0J-44450D01*
G01*
X9613900Y-6648450D01*
G75*
G02*
X9569450Y-6692900I-44450J0D01*
G01*
X9480550Y-6692900D01*
G75*
G02*
X9436100Y-6648450I0J44450D01*
G01*
G37*
G36*
G01*
X9436100Y-6902450D02*
X9436100Y-6813550D01*
G75*
G02*
X9480550Y-6769100I44450J0D01*
G01*
X9569450Y-6769100D01*
G75*
G02*
X9613900Y-6813550I0J-44450D01*
G01*
X9613900Y-6902450D01*
G75*
G02*
X9569450Y-6946900I-44450J0D01*
G01*
X9480550Y-6946900D01*
G75*
G02*
X9436100Y-6902450I0J44450D01*
G01*
G37*
G36*
G01*
X7912100Y-5886450D02*
X7912100Y-5797550D01*
G75*
G02*
X7956550Y-5753100I44450J0D01*
G01*
X8045450Y-5753100D01*
G75*
G02*
X8089900Y-5797550I0J-44450D01*
G01*
X8089900Y-5886450D01*
G75*
G02*
X8045450Y-5930900I-44450J0D01*
G01*
X7956550Y-5930900D01*
G75*
G02*
X7912100Y-5886450I0J44450D01*
G01*
G37*
G36*
G01*
X7912100Y-6140450D02*
X7912100Y-6051550D01*
G75*
G02*
X7956550Y-6007100I44450J0D01*
G01*
X8045450Y-6007100D01*
G75*
G02*
X8089900Y-6051550I0J-44450D01*
G01*
X8089900Y-6140450D01*
G75*
G02*
X8045450Y-6184900I-44450J0D01*
G01*
X7956550Y-6184900D01*
G75*
G02*
X7912100Y-6140450I0J44450D01*
G01*
G37*
G36*
G01*
X7912100Y-6394450D02*
X7912100Y-6305550D01*
G75*
G02*
X7956550Y-6261100I44450J0D01*
G01*
X8045450Y-6261100D01*
G75*
G02*
X8089900Y-6305550I0J-44450D01*
G01*
X8089900Y-6394450D01*
G75*
G02*
X8045450Y-6438900I-44450J0D01*
G01*
X7956550Y-6438900D01*
G75*
G02*
X7912100Y-6394450I0J44450D01*
G01*
G37*
G36*
G01*
X7912100Y-5124450D02*
X7912100Y-5035550D01*
G75*
G02*
X7956550Y-4991100I44450J0D01*
G01*
X8045450Y-4991100D01*
G75*
G02*
X8089900Y-5035550I0J-44450D01*
G01*
X8089900Y-5124450D01*
G75*
G02*
X8045450Y-5168900I-44450J0D01*
G01*
X7956550Y-5168900D01*
G75*
G02*
X7912100Y-5124450I0J44450D01*
G01*
G37*
G36*
G01*
X7912100Y-5378450D02*
X7912100Y-5289550D01*
G75*
G02*
X7956550Y-5245100I44450J0D01*
G01*
X8045450Y-5245100D01*
G75*
G02*
X8089900Y-5289550I0J-44450D01*
G01*
X8089900Y-5378450D01*
G75*
G02*
X8045450Y-5422900I-44450J0D01*
G01*
X7956550Y-5422900D01*
G75*
G02*
X7912100Y-5378450I0J44450D01*
G01*
G37*
G36*
G01*
X7912100Y-5632450D02*
X7912100Y-5543550D01*
G75*
G02*
X7956550Y-5499100I44450J0D01*
G01*
X8045450Y-5499100D01*
G75*
G02*
X8089900Y-5543550I0J-44450D01*
G01*
X8089900Y-5632450D01*
G75*
G02*
X8045450Y-5676900I-44450J0D01*
G01*
X7956550Y-5676900D01*
G75*
G02*
X7912100Y-5632450I0J44450D01*
G01*
G37*
G36*
G01*
X7912100Y-4362450D02*
X7912100Y-4273550D01*
G75*
G02*
X7956550Y-4229100I44450J0D01*
G01*
X8045450Y-4229100D01*
G75*
G02*
X8089900Y-4273550I0J-44450D01*
G01*
X8089900Y-4362450D01*
G75*
G02*
X8045450Y-4406900I-44450J0D01*
G01*
X7956550Y-4406900D01*
G75*
G02*
X7912100Y-4362450I0J44450D01*
G01*
G37*
G36*
G01*
X7912100Y-4616450D02*
X7912100Y-4527550D01*
G75*
G02*
X7956550Y-4483100I44450J0D01*
G01*
X8045450Y-4483100D01*
G75*
G02*
X8089900Y-4527550I0J-44450D01*
G01*
X8089900Y-4616450D01*
G75*
G02*
X8045450Y-4660900I-44450J0D01*
G01*
X7956550Y-4660900D01*
G75*
G02*
X7912100Y-4616450I0J44450D01*
G01*
G37*
G36*
G01*
X7912100Y-4870450D02*
X7912100Y-4781550D01*
G75*
G02*
X7956550Y-4737100I44450J0D01*
G01*
X8045450Y-4737100D01*
G75*
G02*
X8089900Y-4781550I0J-44450D01*
G01*
X8089900Y-4870450D01*
G75*
G02*
X8045450Y-4914900I-44450J0D01*
G01*
X7956550Y-4914900D01*
G75*
G02*
X7912100Y-4870450I0J44450D01*
G01*
G37*
G36*
G01*
X7912100Y-3600450D02*
X7912100Y-3511550D01*
G75*
G02*
X7956550Y-3467100I44450J0D01*
G01*
X8045450Y-3467100D01*
G75*
G02*
X8089900Y-3511550I0J-44450D01*
G01*
X8089900Y-3600450D01*
G75*
G02*
X8045450Y-3644900I-44450J0D01*
G01*
X7956550Y-3644900D01*
G75*
G02*
X7912100Y-3600450I0J44450D01*
G01*
G37*
G36*
G01*
X7912100Y-3854450D02*
X7912100Y-3765550D01*
G75*
G02*
X7956550Y-3721100I44450J0D01*
G01*
X8045450Y-3721100D01*
G75*
G02*
X8089900Y-3765550I0J-44450D01*
G01*
X8089900Y-3854450D01*
G75*
G02*
X8045450Y-3898900I-44450J0D01*
G01*
X7956550Y-3898900D01*
G75*
G02*
X7912100Y-3854450I0J44450D01*
G01*
G37*
G36*
G01*
X7912100Y-4108450D02*
X7912100Y-4019550D01*
G75*
G02*
X7956550Y-3975100I44450J0D01*
G01*
X8045450Y-3975100D01*
G75*
G02*
X8089900Y-4019550I0J-44450D01*
G01*
X8089900Y-4108450D01*
G75*
G02*
X8045450Y-4152900I-44450J0D01*
G01*
X7956550Y-4152900D01*
G75*
G02*
X7912100Y-4108450I0J44450D01*
G01*
G37*
G36*
G01*
X7912100Y-6902450D02*
X7912100Y-6813550D01*
G75*
G02*
X7956550Y-6769100I44450J0D01*
G01*
X8045450Y-6769100D01*
G75*
G02*
X8089900Y-6813550I0J-44450D01*
G01*
X8089900Y-6902450D01*
G75*
G02*
X8045450Y-6946900I-44450J0D01*
G01*
X7956550Y-6946900D01*
G75*
G02*
X7912100Y-6902450I0J44450D01*
G01*
G37*
G36*
G01*
X7912100Y-3346450D02*
X7912100Y-3257550D01*
G75*
G02*
X7956550Y-3213100I44450J0D01*
G01*
X8045450Y-3213100D01*
G75*
G02*
X8089900Y-3257550I0J-44450D01*
G01*
X8089900Y-3346450D01*
G75*
G02*
X8045450Y-3390900I-44450J0D01*
G01*
X7956550Y-3390900D01*
G75*
G02*
X7912100Y-3346450I0J44450D01*
G01*
G37*
G36*
G01*
X7912100Y-3092450D02*
X7912100Y-3003550D01*
G75*
G02*
X7956550Y-2959100I44450J0D01*
G01*
X8045450Y-2959100D01*
G75*
G02*
X8089900Y-3003550I0J-44450D01*
G01*
X8089900Y-3092450D01*
G75*
G02*
X8045450Y-3136900I-44450J0D01*
G01*
X7956550Y-3136900D01*
G75*
G02*
X7912100Y-3092450I0J44450D01*
G01*
G37*
G36*
G01*
X7912100Y-2838450D02*
X7912100Y-2749550D01*
G75*
G02*
X7956550Y-2705100I44450J0D01*
G01*
X8045450Y-2705100D01*
G75*
G02*
X8089900Y-2749550I0J-44450D01*
G01*
X8089900Y-2838450D01*
G75*
G02*
X8045450Y-2882900I-44450J0D01*
G01*
X7956550Y-2882900D01*
G75*
G02*
X7912100Y-2838450I0J44450D01*
G01*
G37*
%TD*%
D11*
%TO.C,REF\u002A\u002A*%
X12268200Y-7334250D03*
X12268200Y-7429500D03*
X12268200Y-7524750D03*
X12496800Y-7524750D03*
X12496800Y-7334250D03*
%TD*%
D12*
%TO.C,REF\u002A\u002A*%
X14097000Y-5988050D03*
X14097000Y-6153150D03*
X14097000Y-6070600D03*
X14097000Y-6229350D03*
X14274800Y-6070600D03*
X14274800Y-5988050D03*
X14274800Y-6153150D03*
X14274800Y-6229350D03*
%TD*%
D13*
%TO.C,REF\u002A\u002A*%
X11093450Y-6096000D03*
X10928350Y-6096000D03*
X11010900Y-6096000D03*
X10852150Y-6096000D03*
X11010900Y-6273800D03*
X11093450Y-6273800D03*
X10928350Y-6273800D03*
X10852150Y-6273800D03*
%TD*%
D12*
%TO.C,REF\u002A\u002A*%
X12700000Y-6191250D03*
X12700000Y-6356350D03*
X12700000Y-6273800D03*
X12700000Y-6432550D03*
X12877800Y-6273800D03*
X12877800Y-6191250D03*
X12877800Y-6356350D03*
X12877800Y-6432550D03*
%TD*%
%TO.C,REF\u002A\u002A*%
X7747000Y-7092950D03*
X7747000Y-6927850D03*
X7747000Y-7010400D03*
X7747000Y-6851650D03*
X7569200Y-7010400D03*
X7569200Y-7092950D03*
X7569200Y-6927850D03*
X7569200Y-6851650D03*
%TD*%
%TO.C,REF\u002A\u002A*%
X15176500Y-3359150D03*
X15176500Y-3282950D03*
X15176500Y-3117850D03*
X15176500Y-3200400D03*
X14998700Y-3359150D03*
X14998700Y-3200400D03*
X14998700Y-3282950D03*
X14998700Y-3117850D03*
%TD*%
%TO.C,REF\u002A\u002A*%
X13182600Y-3181350D03*
X13182600Y-3346450D03*
X13182600Y-3263900D03*
X13182600Y-3422650D03*
X13360400Y-3263900D03*
X13360400Y-3181350D03*
X13360400Y-3346450D03*
X13360400Y-3422650D03*
%TD*%
%TO.C,C3*%
G36*
G01*
X13677900Y-4841875D02*
X13677900Y-4810125D01*
G75*
G02*
X13693775Y-4794250I15875J0D01*
G01*
X13865225Y-4794250D01*
G75*
G02*
X13881100Y-4810125I0J-15875D01*
G01*
X13881100Y-4841875D01*
G75*
G02*
X13865225Y-4857750I-15875J0D01*
G01*
X13693775Y-4857750D01*
G75*
G02*
X13677900Y-4841875I0J15875D01*
G01*
G37*
G36*
G01*
X13677900Y-4968875D02*
X13677900Y-4937125D01*
G75*
G02*
X13693775Y-4921250I15875J0D01*
G01*
X13865225Y-4921250D01*
G75*
G02*
X13881100Y-4937125I0J-15875D01*
G01*
X13881100Y-4968875D01*
G75*
G02*
X13865225Y-4984750I-15875J0D01*
G01*
X13693775Y-4984750D01*
G75*
G02*
X13677900Y-4968875I0J15875D01*
G01*
G37*
G36*
G01*
X13677900Y-5095875D02*
X13677900Y-5064125D01*
G75*
G02*
X13693775Y-5048250I15875J0D01*
G01*
X13865225Y-5048250D01*
G75*
G02*
X13881100Y-5064125I0J-15875D01*
G01*
X13881100Y-5095875D01*
G75*
G02*
X13865225Y-5111750I-15875J0D01*
G01*
X13693775Y-5111750D01*
G75*
G02*
X13677900Y-5095875I0J15875D01*
G01*
G37*
G36*
G01*
X13677900Y-5222875D02*
X13677900Y-5191125D01*
G75*
G02*
X13693775Y-5175250I15875J0D01*
G01*
X13865225Y-5175250D01*
G75*
G02*
X13881100Y-5191125I0J-15875D01*
G01*
X13881100Y-5222875D01*
G75*
G02*
X13865225Y-5238750I-15875J0D01*
G01*
X13693775Y-5238750D01*
G75*
G02*
X13677900Y-5222875I0J15875D01*
G01*
G37*
G36*
G01*
X13677900Y-5349875D02*
X13677900Y-5318125D01*
G75*
G02*
X13693775Y-5302250I15875J0D01*
G01*
X13865225Y-5302250D01*
G75*
G02*
X13881100Y-5318125I0J-15875D01*
G01*
X13881100Y-5349875D01*
G75*
G02*
X13865225Y-5365750I-15875J0D01*
G01*
X13693775Y-5365750D01*
G75*
G02*
X13677900Y-5349875I0J15875D01*
G01*
G37*
G36*
G01*
X13677900Y-5476875D02*
X13677900Y-5445125D01*
G75*
G02*
X13693775Y-5429250I15875J0D01*
G01*
X13865225Y-5429250D01*
G75*
G02*
X13881100Y-5445125I0J-15875D01*
G01*
X13881100Y-5476875D01*
G75*
G02*
X13865225Y-5492750I-15875J0D01*
G01*
X13693775Y-5492750D01*
G75*
G02*
X13677900Y-5476875I0J15875D01*
G01*
G37*
G36*
G01*
X13677900Y-5603875D02*
X13677900Y-5572125D01*
G75*
G02*
X13693775Y-5556250I15875J0D01*
G01*
X13865225Y-5556250D01*
G75*
G02*
X13881100Y-5572125I0J-15875D01*
G01*
X13881100Y-5603875D01*
G75*
G02*
X13865225Y-5619750I-15875J0D01*
G01*
X13693775Y-5619750D01*
G75*
G02*
X13677900Y-5603875I0J15875D01*
G01*
G37*
G36*
G01*
X13677900Y-5730875D02*
X13677900Y-5699125D01*
G75*
G02*
X13693775Y-5683250I15875J0D01*
G01*
X13865225Y-5683250D01*
G75*
G02*
X13881100Y-5699125I0J-15875D01*
G01*
X13881100Y-5730875D01*
G75*
G02*
X13865225Y-5746750I-15875J0D01*
G01*
X13693775Y-5746750D01*
G75*
G02*
X13677900Y-5730875I0J15875D01*
G01*
G37*
G36*
G01*
X14185900Y-5730875D02*
X14185900Y-5699125D01*
G75*
G02*
X14201775Y-5683250I15875J0D01*
G01*
X14373225Y-5683250D01*
G75*
G02*
X14389100Y-5699125I0J-15875D01*
G01*
X14389100Y-5730875D01*
G75*
G02*
X14373225Y-5746750I-15875J0D01*
G01*
X14201775Y-5746750D01*
G75*
G02*
X14185900Y-5730875I0J15875D01*
G01*
G37*
G36*
G01*
X14185900Y-5603875D02*
X14185900Y-5572125D01*
G75*
G02*
X14201775Y-5556250I15875J0D01*
G01*
X14373225Y-5556250D01*
G75*
G02*
X14389100Y-5572125I0J-15875D01*
G01*
X14389100Y-5603875D01*
G75*
G02*
X14373225Y-5619750I-15875J0D01*
G01*
X14201775Y-5619750D01*
G75*
G02*
X14185900Y-5603875I0J15875D01*
G01*
G37*
G36*
G01*
X14185900Y-5476875D02*
X14185900Y-5445125D01*
G75*
G02*
X14201775Y-5429250I15875J0D01*
G01*
X14373225Y-5429250D01*
G75*
G02*
X14389100Y-5445125I0J-15875D01*
G01*
X14389100Y-5476875D01*
G75*
G02*
X14373225Y-5492750I-15875J0D01*
G01*
X14201775Y-5492750D01*
G75*
G02*
X14185900Y-5476875I0J15875D01*
G01*
G37*
G36*
G01*
X14185900Y-5349875D02*
X14185900Y-5318125D01*
G75*
G02*
X14201775Y-5302250I15875J0D01*
G01*
X14373225Y-5302250D01*
G75*
G02*
X14389100Y-5318125I0J-15875D01*
G01*
X14389100Y-5349875D01*
G75*
G02*
X14373225Y-5365750I-15875J0D01*
G01*
X14201775Y-5365750D01*
G75*
G02*
X14185900Y-5349875I0J15875D01*
G01*
G37*
G36*
G01*
X14185900Y-5222875D02*
X14185900Y-5191125D01*
G75*
G02*
X14201775Y-5175250I15875J0D01*
G01*
X14373225Y-5175250D01*
G75*
G02*
X14389100Y-5191125I0J-15875D01*
G01*
X14389100Y-5222875D01*
G75*
G02*
X14373225Y-5238750I-15875J0D01*
G01*
X14201775Y-5238750D01*
G75*
G02*
X14185900Y-5222875I0J15875D01*
G01*
G37*
G36*
G01*
X14185900Y-5095875D02*
X14185900Y-5064125D01*
G75*
G02*
X14201775Y-5048250I15875J0D01*
G01*
X14373225Y-5048250D01*
G75*
G02*
X14389100Y-5064125I0J-15875D01*
G01*
X14389100Y-5095875D01*
G75*
G02*
X14373225Y-5111750I-15875J0D01*
G01*
X14201775Y-5111750D01*
G75*
G02*
X14185900Y-5095875I0J15875D01*
G01*
G37*
G36*
G01*
X14185900Y-4968875D02*
X14185900Y-4937125D01*
G75*
G02*
X14201775Y-4921250I15875J0D01*
G01*
X14373225Y-4921250D01*
G75*
G02*
X14389100Y-4937125I0J-15875D01*
G01*
X14389100Y-4968875D01*
G75*
G02*
X14373225Y-4984750I-15875J0D01*
G01*
X14201775Y-4984750D01*
G75*
G02*
X14185900Y-4968875I0J15875D01*
G01*
G37*
G36*
G01*
X14185900Y-4841875D02*
X14185900Y-4810125D01*
G75*
G02*
X14201775Y-4794250I15875J0D01*
G01*
X14373225Y-4794250D01*
G75*
G02*
X14389100Y-4810125I0J-15875D01*
G01*
X14389100Y-4841875D01*
G75*
G02*
X14373225Y-4857750I-15875J0D01*
G01*
X14201775Y-4857750D01*
G75*
G02*
X14185900Y-4841875I0J15875D01*
G01*
G37*
%TD*%
%TO.C,C1*%
G36*
G01*
X11391900Y-6429375D02*
X11391900Y-6397625D01*
G75*
G02*
X11407775Y-6381750I15875J0D01*
G01*
X11579225Y-6381750D01*
G75*
G02*
X11595100Y-6397625I0J-15875D01*
G01*
X11595100Y-6429375D01*
G75*
G02*
X11579225Y-6445250I-15875J0D01*
G01*
X11407775Y-6445250D01*
G75*
G02*
X11391900Y-6429375I0J15875D01*
G01*
G37*
G36*
G01*
X11391900Y-6556375D02*
X11391900Y-6524625D01*
G75*
G02*
X11407775Y-6508750I15875J0D01*
G01*
X11579225Y-6508750D01*
G75*
G02*
X11595100Y-6524625I0J-15875D01*
G01*
X11595100Y-6556375D01*
G75*
G02*
X11579225Y-6572250I-15875J0D01*
G01*
X11407775Y-6572250D01*
G75*
G02*
X11391900Y-6556375I0J15875D01*
G01*
G37*
G36*
G01*
X11391900Y-6683375D02*
X11391900Y-6651625D01*
G75*
G02*
X11407775Y-6635750I15875J0D01*
G01*
X11579225Y-6635750D01*
G75*
G02*
X11595100Y-6651625I0J-15875D01*
G01*
X11595100Y-6683375D01*
G75*
G02*
X11579225Y-6699250I-15875J0D01*
G01*
X11407775Y-6699250D01*
G75*
G02*
X11391900Y-6683375I0J15875D01*
G01*
G37*
G36*
G01*
X11391900Y-6810375D02*
X11391900Y-6778625D01*
G75*
G02*
X11407775Y-6762750I15875J0D01*
G01*
X11579225Y-6762750D01*
G75*
G02*
X11595100Y-6778625I0J-15875D01*
G01*
X11595100Y-6810375D01*
G75*
G02*
X11579225Y-6826250I-15875J0D01*
G01*
X11407775Y-6826250D01*
G75*
G02*
X11391900Y-6810375I0J15875D01*
G01*
G37*
G36*
G01*
X11391900Y-6937375D02*
X11391900Y-6905625D01*
G75*
G02*
X11407775Y-6889750I15875J0D01*
G01*
X11579225Y-6889750D01*
G75*
G02*
X11595100Y-6905625I0J-15875D01*
G01*
X11595100Y-6937375D01*
G75*
G02*
X11579225Y-6953250I-15875J0D01*
G01*
X11407775Y-6953250D01*
G75*
G02*
X11391900Y-6937375I0J15875D01*
G01*
G37*
G36*
G01*
X11391900Y-7064375D02*
X11391900Y-7032625D01*
G75*
G02*
X11407775Y-7016750I15875J0D01*
G01*
X11579225Y-7016750D01*
G75*
G02*
X11595100Y-7032625I0J-15875D01*
G01*
X11595100Y-7064375D01*
G75*
G02*
X11579225Y-7080250I-15875J0D01*
G01*
X11407775Y-7080250D01*
G75*
G02*
X11391900Y-7064375I0J15875D01*
G01*
G37*
G36*
G01*
X11391900Y-7191375D02*
X11391900Y-7159625D01*
G75*
G02*
X11407775Y-7143750I15875J0D01*
G01*
X11579225Y-7143750D01*
G75*
G02*
X11595100Y-7159625I0J-15875D01*
G01*
X11595100Y-7191375D01*
G75*
G02*
X11579225Y-7207250I-15875J0D01*
G01*
X11407775Y-7207250D01*
G75*
G02*
X11391900Y-7191375I0J15875D01*
G01*
G37*
G36*
G01*
X11391900Y-7318375D02*
X11391900Y-7286625D01*
G75*
G02*
X11407775Y-7270750I15875J0D01*
G01*
X11579225Y-7270750D01*
G75*
G02*
X11595100Y-7286625I0J-15875D01*
G01*
X11595100Y-7318375D01*
G75*
G02*
X11579225Y-7334250I-15875J0D01*
G01*
X11407775Y-7334250D01*
G75*
G02*
X11391900Y-7318375I0J15875D01*
G01*
G37*
G36*
G01*
X11899900Y-7318375D02*
X11899900Y-7286625D01*
G75*
G02*
X11915775Y-7270750I15875J0D01*
G01*
X12087225Y-7270750D01*
G75*
G02*
X12103100Y-7286625I0J-15875D01*
G01*
X12103100Y-7318375D01*
G75*
G02*
X12087225Y-7334250I-15875J0D01*
G01*
X11915775Y-7334250D01*
G75*
G02*
X11899900Y-7318375I0J15875D01*
G01*
G37*
G36*
G01*
X11899900Y-7191375D02*
X11899900Y-7159625D01*
G75*
G02*
X11915775Y-7143750I15875J0D01*
G01*
X12087225Y-7143750D01*
G75*
G02*
X12103100Y-7159625I0J-15875D01*
G01*
X12103100Y-7191375D01*
G75*
G02*
X12087225Y-7207250I-15875J0D01*
G01*
X11915775Y-7207250D01*
G75*
G02*
X11899900Y-7191375I0J15875D01*
G01*
G37*
G36*
G01*
X11899900Y-7064375D02*
X11899900Y-7032625D01*
G75*
G02*
X11915775Y-7016750I15875J0D01*
G01*
X12087225Y-7016750D01*
G75*
G02*
X12103100Y-7032625I0J-15875D01*
G01*
X12103100Y-7064375D01*
G75*
G02*
X12087225Y-7080250I-15875J0D01*
G01*
X11915775Y-7080250D01*
G75*
G02*
X11899900Y-7064375I0J15875D01*
G01*
G37*
G36*
G01*
X11899900Y-6937375D02*
X11899900Y-6905625D01*
G75*
G02*
X11915775Y-6889750I15875J0D01*
G01*
X12087225Y-6889750D01*
G75*
G02*
X12103100Y-6905625I0J-15875D01*
G01*
X12103100Y-6937375D01*
G75*
G02*
X12087225Y-6953250I-15875J0D01*
G01*
X11915775Y-6953250D01*
G75*
G02*
X11899900Y-6937375I0J15875D01*
G01*
G37*
G36*
G01*
X11899900Y-6810375D02*
X11899900Y-6778625D01*
G75*
G02*
X11915775Y-6762750I15875J0D01*
G01*
X12087225Y-6762750D01*
G75*
G02*
X12103100Y-6778625I0J-15875D01*
G01*
X12103100Y-6810375D01*
G75*
G02*
X12087225Y-6826250I-15875J0D01*
G01*
X11915775Y-6826250D01*
G75*
G02*
X11899900Y-6810375I0J15875D01*
G01*
G37*
G36*
G01*
X11899900Y-6683375D02*
X11899900Y-6651625D01*
G75*
G02*
X11915775Y-6635750I15875J0D01*
G01*
X12087225Y-6635750D01*
G75*
G02*
X12103100Y-6651625I0J-15875D01*
G01*
X12103100Y-6683375D01*
G75*
G02*
X12087225Y-6699250I-15875J0D01*
G01*
X11915775Y-6699250D01*
G75*
G02*
X11899900Y-6683375I0J15875D01*
G01*
G37*
G36*
G01*
X11899900Y-6556375D02*
X11899900Y-6524625D01*
G75*
G02*
X11915775Y-6508750I15875J0D01*
G01*
X12087225Y-6508750D01*
G75*
G02*
X12103100Y-6524625I0J-15875D01*
G01*
X12103100Y-6556375D01*
G75*
G02*
X12087225Y-6572250I-15875J0D01*
G01*
X11915775Y-6572250D01*
G75*
G02*
X11899900Y-6556375I0J15875D01*
G01*
G37*
G36*
G01*
X11899900Y-6429375D02*
X11899900Y-6397625D01*
G75*
G02*
X11915775Y-6381750I15875J0D01*
G01*
X12087225Y-6381750D01*
G75*
G02*
X12103100Y-6397625I0J-15875D01*
G01*
X12103100Y-6429375D01*
G75*
G02*
X12087225Y-6445250I-15875J0D01*
G01*
X11915775Y-6445250D01*
G75*
G02*
X11899900Y-6429375I0J15875D01*
G01*
G37*
%TD*%
%TO.C,C2*%
G36*
G01*
X13677900Y-2873375D02*
X13677900Y-2841625D01*
G75*
G02*
X13693775Y-2825750I15875J0D01*
G01*
X13865225Y-2825750D01*
G75*
G02*
X13881100Y-2841625I0J-15875D01*
G01*
X13881100Y-2873375D01*
G75*
G02*
X13865225Y-2889250I-15875J0D01*
G01*
X13693775Y-2889250D01*
G75*
G02*
X13677900Y-2873375I0J15875D01*
G01*
G37*
G36*
G01*
X13677900Y-3000375D02*
X13677900Y-2968625D01*
G75*
G02*
X13693775Y-2952750I15875J0D01*
G01*
X13865225Y-2952750D01*
G75*
G02*
X13881100Y-2968625I0J-15875D01*
G01*
X13881100Y-3000375D01*
G75*
G02*
X13865225Y-3016250I-15875J0D01*
G01*
X13693775Y-3016250D01*
G75*
G02*
X13677900Y-3000375I0J15875D01*
G01*
G37*
G36*
G01*
X13677900Y-3127375D02*
X13677900Y-3095625D01*
G75*
G02*
X13693775Y-3079750I15875J0D01*
G01*
X13865225Y-3079750D01*
G75*
G02*
X13881100Y-3095625I0J-15875D01*
G01*
X13881100Y-3127375D01*
G75*
G02*
X13865225Y-3143250I-15875J0D01*
G01*
X13693775Y-3143250D01*
G75*
G02*
X13677900Y-3127375I0J15875D01*
G01*
G37*
G36*
G01*
X13677900Y-3254375D02*
X13677900Y-3222625D01*
G75*
G02*
X13693775Y-3206750I15875J0D01*
G01*
X13865225Y-3206750D01*
G75*
G02*
X13881100Y-3222625I0J-15875D01*
G01*
X13881100Y-3254375D01*
G75*
G02*
X13865225Y-3270250I-15875J0D01*
G01*
X13693775Y-3270250D01*
G75*
G02*
X13677900Y-3254375I0J15875D01*
G01*
G37*
G36*
G01*
X13677900Y-3381375D02*
X13677900Y-3349625D01*
G75*
G02*
X13693775Y-3333750I15875J0D01*
G01*
X13865225Y-3333750D01*
G75*
G02*
X13881100Y-3349625I0J-15875D01*
G01*
X13881100Y-3381375D01*
G75*
G02*
X13865225Y-3397250I-15875J0D01*
G01*
X13693775Y-3397250D01*
G75*
G02*
X13677900Y-3381375I0J15875D01*
G01*
G37*
G36*
G01*
X13677900Y-3508375D02*
X13677900Y-3476625D01*
G75*
G02*
X13693775Y-3460750I15875J0D01*
G01*
X13865225Y-3460750D01*
G75*
G02*
X13881100Y-3476625I0J-15875D01*
G01*
X13881100Y-3508375D01*
G75*
G02*
X13865225Y-3524250I-15875J0D01*
G01*
X13693775Y-3524250D01*
G75*
G02*
X13677900Y-3508375I0J15875D01*
G01*
G37*
G36*
G01*
X13677900Y-3635375D02*
X13677900Y-3603625D01*
G75*
G02*
X13693775Y-3587750I15875J0D01*
G01*
X13865225Y-3587750D01*
G75*
G02*
X13881100Y-3603625I0J-15875D01*
G01*
X13881100Y-3635375D01*
G75*
G02*
X13865225Y-3651250I-15875J0D01*
G01*
X13693775Y-3651250D01*
G75*
G02*
X13677900Y-3635375I0J15875D01*
G01*
G37*
G36*
G01*
X13677900Y-3762375D02*
X13677900Y-3730625D01*
G75*
G02*
X13693775Y-3714750I15875J0D01*
G01*
X13865225Y-3714750D01*
G75*
G02*
X13881100Y-3730625I0J-15875D01*
G01*
X13881100Y-3762375D01*
G75*
G02*
X13865225Y-3778250I-15875J0D01*
G01*
X13693775Y-3778250D01*
G75*
G02*
X13677900Y-3762375I0J15875D01*
G01*
G37*
G36*
G01*
X14185900Y-3762375D02*
X14185900Y-3730625D01*
G75*
G02*
X14201775Y-3714750I15875J0D01*
G01*
X14373225Y-3714750D01*
G75*
G02*
X14389100Y-3730625I0J-15875D01*
G01*
X14389100Y-3762375D01*
G75*
G02*
X14373225Y-3778250I-15875J0D01*
G01*
X14201775Y-3778250D01*
G75*
G02*
X14185900Y-3762375I0J15875D01*
G01*
G37*
G36*
G01*
X14185900Y-3635375D02*
X14185900Y-3603625D01*
G75*
G02*
X14201775Y-3587750I15875J0D01*
G01*
X14373225Y-3587750D01*
G75*
G02*
X14389100Y-3603625I0J-15875D01*
G01*
X14389100Y-3635375D01*
G75*
G02*
X14373225Y-3651250I-15875J0D01*
G01*
X14201775Y-3651250D01*
G75*
G02*
X14185900Y-3635375I0J15875D01*
G01*
G37*
G36*
G01*
X14185900Y-3508375D02*
X14185900Y-3476625D01*
G75*
G02*
X14201775Y-3460750I15875J0D01*
G01*
X14373225Y-3460750D01*
G75*
G02*
X14389100Y-3476625I0J-15875D01*
G01*
X14389100Y-3508375D01*
G75*
G02*
X14373225Y-3524250I-15875J0D01*
G01*
X14201775Y-3524250D01*
G75*
G02*
X14185900Y-3508375I0J15875D01*
G01*
G37*
G36*
G01*
X14185900Y-3381375D02*
X14185900Y-3349625D01*
G75*
G02*
X14201775Y-3333750I15875J0D01*
G01*
X14373225Y-3333750D01*
G75*
G02*
X14389100Y-3349625I0J-15875D01*
G01*
X14389100Y-3381375D01*
G75*
G02*
X14373225Y-3397250I-15875J0D01*
G01*
X14201775Y-3397250D01*
G75*
G02*
X14185900Y-3381375I0J15875D01*
G01*
G37*
G36*
G01*
X14185900Y-3254375D02*
X14185900Y-3222625D01*
G75*
G02*
X14201775Y-3206750I15875J0D01*
G01*
X14373225Y-3206750D01*
G75*
G02*
X14389100Y-3222625I0J-15875D01*
G01*
X14389100Y-3254375D01*
G75*
G02*
X14373225Y-3270250I-15875J0D01*
G01*
X14201775Y-3270250D01*
G75*
G02*
X14185900Y-3254375I0J15875D01*
G01*
G37*
G36*
G01*
X14185900Y-3127375D02*
X14185900Y-3095625D01*
G75*
G02*
X14201775Y-3079750I15875J0D01*
G01*
X14373225Y-3079750D01*
G75*
G02*
X14389100Y-3095625I0J-15875D01*
G01*
X14389100Y-3127375D01*
G75*
G02*
X14373225Y-3143250I-15875J0D01*
G01*
X14201775Y-3143250D01*
G75*
G02*
X14185900Y-3127375I0J15875D01*
G01*
G37*
G36*
G01*
X14185900Y-3000375D02*
X14185900Y-2968625D01*
G75*
G02*
X14201775Y-2952750I15875J0D01*
G01*
X14373225Y-2952750D01*
G75*
G02*
X14389100Y-2968625I0J-15875D01*
G01*
X14389100Y-3000375D01*
G75*
G02*
X14373225Y-3016250I-15875J0D01*
G01*
X14201775Y-3016250D01*
G75*
G02*
X14185900Y-3000375I0J15875D01*
G01*
G37*
G36*
G01*
X14185900Y-2873375D02*
X14185900Y-2841625D01*
G75*
G02*
X14201775Y-2825750I15875J0D01*
G01*
X14373225Y-2825750D01*
G75*
G02*
X14389100Y-2841625I0J-15875D01*
G01*
X14389100Y-2873375D01*
G75*
G02*
X14373225Y-2889250I-15875J0D01*
G01*
X14201775Y-2889250D01*
G75*
G02*
X14185900Y-2873375I0J15875D01*
G01*
G37*
%TD*%
M02*
