%TF.GenerationSoftware,KiCad,Pcbnew,7.0.2*%
%TF.CreationDate,2024-04-24T22:24:59-04:00*%
%TF.ProjectId,MK2_1,4d4b325f-312e-46b6-9963-61645f706362,1*%
%TF.SameCoordinates,Original*%
%TF.FileFunction,Drillmap*%
%TF.FilePolarity,Positive*%
%FSLAX45Y45*%
G04 Gerber Fmt 4.5, Leading zero omitted, Abs format (unit mm)*
G04 Created by KiCad (PCBNEW 7.0.2) date 2024-04-24 22:24:59*
%MOMM*%
%LPD*%
G01*
G04 APERTURE LIST*
%ADD10C,0.254000*%
%ADD11C,0.200000*%
G04 APERTURE END LIST*
D10*
X10403105Y-5588000D02*
G75*
G03*
X10403105Y-5588000I-179605J0D01*
G01*
X13387605Y-5715000D02*
G75*
G03*
X13387605Y-5715000I-179605J0D01*
G01*
X13721120Y-6540500D02*
G75*
G03*
X13721120Y-6540500I-81320J0D01*
G01*
X2603500Y-2349500D02*
X1905000Y-5111750D01*
X20066000Y-5111750D02*
X19367500Y-2349500D01*
X20066000Y-5111750D02*
X19367500Y-7874000D01*
X2603500Y-2349500D02*
X19367500Y-2349500D01*
X2603500Y-7874000D02*
X1905000Y-5111750D01*
X19367500Y-7874000D02*
X2603500Y-7874000D01*
D11*
X2139919Y-8199224D02*
X2139919Y-7999224D01*
X2139919Y-7999224D02*
X2187538Y-7999224D01*
X2187538Y-7999224D02*
X2216110Y-8008748D01*
X2216110Y-8008748D02*
X2235157Y-8027795D01*
X2235157Y-8027795D02*
X2244681Y-8046843D01*
X2244681Y-8046843D02*
X2254205Y-8084938D01*
X2254205Y-8084938D02*
X2254205Y-8113509D01*
X2254205Y-8113509D02*
X2244681Y-8151605D01*
X2244681Y-8151605D02*
X2235157Y-8170652D01*
X2235157Y-8170652D02*
X2216110Y-8189700D01*
X2216110Y-8189700D02*
X2187538Y-8199224D01*
X2187538Y-8199224D02*
X2139919Y-8199224D01*
X2339919Y-8199224D02*
X2339919Y-8065890D01*
X2339919Y-8103986D02*
X2349443Y-8084938D01*
X2349443Y-8084938D02*
X2358967Y-8075414D01*
X2358967Y-8075414D02*
X2378014Y-8065890D01*
X2378014Y-8065890D02*
X2397062Y-8065890D01*
X2463729Y-8199224D02*
X2463729Y-8065890D01*
X2463729Y-7999224D02*
X2454205Y-8008748D01*
X2454205Y-8008748D02*
X2463729Y-8018271D01*
X2463729Y-8018271D02*
X2473252Y-8008748D01*
X2473252Y-8008748D02*
X2463729Y-7999224D01*
X2463729Y-7999224D02*
X2463729Y-8018271D01*
X2587538Y-8199224D02*
X2568490Y-8189700D01*
X2568490Y-8189700D02*
X2558967Y-8170652D01*
X2558967Y-8170652D02*
X2558967Y-7999224D01*
X2692300Y-8199224D02*
X2673252Y-8189700D01*
X2673252Y-8189700D02*
X2663729Y-8170652D01*
X2663729Y-8170652D02*
X2663729Y-7999224D01*
X2920871Y-8199224D02*
X2920871Y-7999224D01*
X2920871Y-7999224D02*
X2987538Y-8142081D01*
X2987538Y-8142081D02*
X3054205Y-7999224D01*
X3054205Y-7999224D02*
X3054205Y-8199224D01*
X3235157Y-8199224D02*
X3235157Y-8094462D01*
X3235157Y-8094462D02*
X3225633Y-8075414D01*
X3225633Y-8075414D02*
X3206586Y-8065890D01*
X3206586Y-8065890D02*
X3168490Y-8065890D01*
X3168490Y-8065890D02*
X3149443Y-8075414D01*
X3235157Y-8189700D02*
X3216109Y-8199224D01*
X3216109Y-8199224D02*
X3168490Y-8199224D01*
X3168490Y-8199224D02*
X3149443Y-8189700D01*
X3149443Y-8189700D02*
X3139919Y-8170652D01*
X3139919Y-8170652D02*
X3139919Y-8151605D01*
X3139919Y-8151605D02*
X3149443Y-8132557D01*
X3149443Y-8132557D02*
X3168490Y-8123033D01*
X3168490Y-8123033D02*
X3216109Y-8123033D01*
X3216109Y-8123033D02*
X3235157Y-8113509D01*
X3330395Y-8065890D02*
X3330395Y-8265890D01*
X3330395Y-8075414D02*
X3349443Y-8065890D01*
X3349443Y-8065890D02*
X3387538Y-8065890D01*
X3387538Y-8065890D02*
X3406586Y-8075414D01*
X3406586Y-8075414D02*
X3416109Y-8084938D01*
X3416109Y-8084938D02*
X3425633Y-8103986D01*
X3425633Y-8103986D02*
X3425633Y-8161128D01*
X3425633Y-8161128D02*
X3416109Y-8180176D01*
X3416109Y-8180176D02*
X3406586Y-8189700D01*
X3406586Y-8189700D02*
X3387538Y-8199224D01*
X3387538Y-8199224D02*
X3349443Y-8199224D01*
X3349443Y-8199224D02*
X3330395Y-8189700D01*
X3511348Y-8180176D02*
X3520871Y-8189700D01*
X3520871Y-8189700D02*
X3511348Y-8199224D01*
X3511348Y-8199224D02*
X3501824Y-8189700D01*
X3501824Y-8189700D02*
X3511348Y-8180176D01*
X3511348Y-8180176D02*
X3511348Y-8199224D01*
X3511348Y-8075414D02*
X3520871Y-8084938D01*
X3520871Y-8084938D02*
X3511348Y-8094462D01*
X3511348Y-8094462D02*
X3501824Y-8084938D01*
X3501824Y-8084938D02*
X3511348Y-8075414D01*
X3511348Y-8075414D02*
X3511348Y-8094462D01*
M02*
