%TF.GenerationSoftware,KiCad,Pcbnew,7.0.2*%
%TF.CreationDate,2024-04-24T22:24:52-04:00*%
%TF.ProjectId,MK2_1,4d4b325f-312e-46b6-9963-61645f706362,1*%
%TF.SameCoordinates,Original*%
%TF.FileFunction,Soldermask,Bot*%
%TF.FilePolarity,Negative*%
%FSLAX45Y45*%
G04 Gerber Fmt 4.5, Leading zero omitted, Abs format (unit mm)*
G04 Created by KiCad (PCBNEW 7.0.2) date 2024-04-24 22:24:52*
%MOMM*%
%LPD*%
G01*
G04 APERTURE LIST*
G04 Aperture macros list*
%AMRoundRect*
0 Rectangle with rounded corners*
0 $1 Rounding radius*
0 $2 $3 $4 $5 $6 $7 $8 $9 X,Y pos of 4 corners*
0 Add a 4 corners polygon primitive as box body*
4,1,4,$2,$3,$4,$5,$6,$7,$8,$9,$2,$3,0*
0 Add four circle primitives for the rounded corners*
1,1,$1+$1,$2,$3*
1,1,$1+$1,$4,$5*
1,1,$1+$1,$6,$7*
1,1,$1+$1,$8,$9*
0 Add four rect primitives between the rounded corners*
20,1,$1+$1,$2,$3,$4,$5,0*
20,1,$1+$1,$4,$5,$6,$7,0*
20,1,$1+$1,$6,$7,$8,$9,0*
20,1,$1+$1,$8,$9,$2,$3,0*%
G04 Aperture macros list end*
%ADD10RoundRect,0.571500X0.571500X-0.571500X0.571500X0.571500X-0.571500X0.571500X-0.571500X-0.571500X0*%
%ADD11RoundRect,0.444500X-0.444500X-0.444500X0.444500X-0.444500X0.444500X0.444500X-0.444500X0.444500X0*%
%ADD12RoundRect,0.444500X0.444500X-0.444500X0.444500X0.444500X-0.444500X0.444500X-0.444500X-0.444500X0*%
%ADD13RoundRect,0.508000X-0.508000X-0.508000X0.508000X-0.508000X0.508000X0.508000X-0.508000X0.508000X0*%
%ADD14RoundRect,0.539750X-0.539750X-0.539750X0.539750X-0.539750X0.539750X0.539750X-0.539750X0.539750X0*%
%ADD15RoundRect,0.476250X-0.476250X-0.476250X0.476250X-0.476250X0.476250X0.476250X-0.476250X0.476250X0*%
%ADD16RoundRect,0.635000X-0.635000X-0.635000X0.635000X-0.635000X0.635000X0.635000X-0.635000X0.635000X0*%
%ADD17RoundRect,0.508000X-0.508000X0.508000X-0.508000X-0.508000X0.508000X-0.508000X0.508000X0.508000X0*%
%ADD18RoundRect,0.508000X0.508000X0.508000X-0.508000X0.508000X-0.508000X-0.508000X0.508000X-0.508000X0*%
%ADD19RoundRect,0.635000X0.635000X0.635000X-0.635000X0.635000X-0.635000X-0.635000X0.635000X-0.635000X0*%
%ADD20RoundRect,0.444500X0.444500X0.444500X-0.444500X0.444500X-0.444500X-0.444500X0.444500X-0.444500X0*%
%ADD21RoundRect,0.508000X0.508000X-0.508000X0.508000X0.508000X-0.508000X0.508000X-0.508000X-0.508000X0*%
%ADD22RoundRect,0.444500X-0.444500X0.444500X-0.444500X-0.444500X0.444500X-0.444500X0.444500X0.444500X0*%
%ADD23C,1.651000*%
G04 APERTURE END LIST*
D10*
%TO.C,G0*%
X5461000Y-2794000D03*
%TD*%
%TO.C,G0*%
X15811500Y-2794000D03*
%TD*%
D11*
%TO.C,AM0*%
X8001000Y-3048000D03*
X8001000Y-5588000D03*
X8001000Y-3556000D03*
X8001000Y-3810000D03*
X8001000Y-4064000D03*
X8001000Y-4318000D03*
X8001000Y-4572000D03*
X8001000Y-4826000D03*
X8001000Y-3302000D03*
X8001000Y-6604000D03*
X9525000Y-5334000D03*
X9525000Y-5080000D03*
X9525000Y-4826000D03*
X9525000Y-4572000D03*
X9525000Y-4318000D03*
X9525000Y-4064000D03*
X9525000Y-3810000D03*
X9525000Y-3556000D03*
X9525000Y-3302000D03*
X9525000Y-3048000D03*
X9525000Y-2794000D03*
X8001000Y-2794000D03*
X9525000Y-6858000D03*
X9525000Y-6604000D03*
X8001000Y-6096000D03*
D12*
X9525000Y-5588000D03*
D11*
X8001000Y-5080000D03*
X8001000Y-5334000D03*
X8001000Y-5842000D03*
X9525000Y-5842000D03*
D12*
X9525000Y-6096000D03*
D11*
X8001000Y-6858000D03*
X9525000Y-6350000D03*
X8001000Y-6350000D03*
%TD*%
D13*
%TO.C,P0*%
X4635500Y-3505200D03*
%TD*%
D14*
%TO.C,G0*%
X16129000Y-5778500D03*
%TD*%
%TO.C,G0*%
X6858000Y-4889500D03*
%TD*%
D12*
%TO.C,P0*%
X5461000Y-4000500D03*
%TD*%
%TO.C,P0*%
X12446000Y-2794000D03*
%TD*%
D15*
%TO.C,P0*%
X14605000Y-6096000D03*
%TD*%
D12*
%TO.C,P0*%
X13411200Y-7404100D03*
%TD*%
D11*
%TO.C,B0*%
X6350000Y-5397500D03*
X6350000Y-5905500D03*
%TD*%
%TO.C,B0*%
X12509500Y-6604000D03*
X12509500Y-7112000D03*
%TD*%
D12*
%TO.C,P0*%
X13296900Y-4572000D03*
%TD*%
D16*
%TO.C,G0*%
X4445000Y-6248400D03*
%TD*%
%TO.C,G0*%
X4445000Y-4013200D03*
%TD*%
D17*
%TO.C,P0*%
X17716500Y-7010400D03*
%TD*%
D18*
%TO.C,P0*%
X17335500Y-7010400D03*
%TD*%
%TO.C,P0*%
X17716500Y-3505200D03*
%TD*%
D19*
%TO.C,G0*%
X17526000Y-6502400D03*
%TD*%
%TO.C,G0*%
X17526000Y-4267200D03*
%TD*%
D20*
%TO.C,B0*%
X15621000Y-5334000D03*
X15621000Y-4826000D03*
%TD*%
D12*
%TO.C,P0*%
X11938000Y-2794000D03*
%TD*%
D15*
%TO.C,P0*%
X7366000Y-3937000D03*
%TD*%
D12*
%TO.C,P0*%
X5461000Y-4254500D03*
%TD*%
D15*
%TO.C,P0*%
X6921500Y-4572000D03*
%TD*%
D11*
%TO.C,B0*%
X16383000Y-4318000D03*
X16383000Y-4826000D03*
%TD*%
D15*
%TO.C,P0*%
X14605000Y-6731000D03*
%TD*%
D12*
%TO.C,P0*%
X13639800Y-7353300D03*
%TD*%
D15*
%TO.C,P0*%
X7366000Y-4572000D03*
%TD*%
D11*
%TO.C,B0*%
X10160000Y-6604000D03*
X10160000Y-7112000D03*
%TD*%
D12*
%TO.C,P0*%
X13030200Y-6959600D03*
%TD*%
D15*
%TO.C,P0*%
X15049500Y-6731000D03*
%TD*%
D12*
%TO.C,P0*%
X5588000Y-2540000D03*
%TD*%
%TO.C,P0*%
X11430000Y-2794000D03*
%TD*%
%TO.C,P0*%
X16510000Y-6667500D03*
%TD*%
%TO.C,P0*%
X6032500Y-2540000D03*
%TD*%
D13*
%TO.C,P0*%
X4254500Y-7010400D03*
%TD*%
D11*
%TO.C,B0*%
X17145000Y-3810000D03*
X17145000Y-4318000D03*
%TD*%
D20*
%TO.C,B0*%
X6350000Y-7429500D03*
X6350000Y-6921500D03*
%TD*%
D12*
%TO.C,P0*%
X12979400Y-6731000D03*
%TD*%
%TO.C,P0*%
X11176000Y-2794000D03*
%TD*%
D15*
%TO.C,P0*%
X15049500Y-6096000D03*
%TD*%
D12*
%TO.C,P0*%
X6350000Y-3365500D03*
%TD*%
%TO.C,P0*%
X16383000Y-2540000D03*
%TD*%
%TO.C,P0*%
X14071600Y-6959600D03*
%TD*%
%TO.C,P0*%
X15621000Y-7302500D03*
%TD*%
%TO.C,P0*%
X11684000Y-2794000D03*
%TD*%
D14*
%TO.C,G0*%
X15113000Y-5778500D03*
%TD*%
D12*
%TO.C,P0*%
X16954500Y-2540000D03*
%TD*%
D10*
%TO.C,G0*%
X16827500Y-2794000D03*
%TD*%
D12*
%TO.C,P0*%
X15367000Y-7302500D03*
%TD*%
D14*
%TO.C,G0*%
X15113000Y-7048500D03*
%TD*%
D10*
%TO.C,G0*%
X17526000Y-2794000D03*
%TD*%
%TO.C,G0*%
X4445000Y-2794000D03*
%TD*%
D12*
%TO.C,P0*%
X5461000Y-4508500D03*
%TD*%
%TO.C,P0*%
X17399000Y-2540000D03*
%TD*%
D11*
%TO.C,B0*%
X14859000Y-4064000D03*
X14859000Y-4572000D03*
%TD*%
%TO.C,B0*%
X15621000Y-3556000D03*
X15621000Y-4064000D03*
%TD*%
D12*
%TO.C,P0*%
X15938500Y-2540000D03*
%TD*%
D15*
%TO.C,P0*%
X6921500Y-3937000D03*
%TD*%
D12*
%TO.C,P0*%
X14020800Y-6731000D03*
%TD*%
D14*
%TO.C,G0*%
X5842000Y-4889500D03*
%TD*%
D10*
%TO.C,G0*%
X6146800Y-2794000D03*
%TD*%
D12*
%TO.C,P0*%
X4572000Y-2540000D03*
%TD*%
D11*
%TO.C,B0*%
X16383000Y-3048000D03*
X16383000Y-3556000D03*
%TD*%
D14*
%TO.C,G0*%
X16129000Y-7048500D03*
%TD*%
D12*
%TO.C,P0*%
X6096000Y-3365500D03*
%TD*%
%TO.C,P0*%
X13639800Y-6299200D03*
%TD*%
%TO.C,P0*%
X5016500Y-2540000D03*
%TD*%
D21*
%TO.C,P0*%
X4254500Y-3505200D03*
%TD*%
D12*
%TO.C,P0*%
X13296900Y-4318000D03*
%TD*%
%TO.C,P0*%
X10922000Y-2794000D03*
%TD*%
%TO.C,P0*%
X6604000Y-3365500D03*
%TD*%
%TO.C,P0*%
X16510000Y-6413500D03*
%TD*%
%TO.C,B0*%
X5334000Y-6413500D03*
X5842000Y-6413500D03*
%TD*%
D14*
%TO.C,G0*%
X6858000Y-3619500D03*
%TD*%
D12*
%TO.C,P0*%
X12192000Y-2794000D03*
%TD*%
%TO.C,P0*%
X13411200Y-6350000D03*
%TD*%
%TO.C,P0*%
X16510000Y-6159500D03*
%TD*%
D22*
%TO.C,B0*%
X7366000Y-6413500D03*
X6858000Y-6413500D03*
%TD*%
D10*
%TO.C,G0*%
X16510000Y-2794000D03*
%TD*%
%TO.C,G0*%
X5130800Y-2794000D03*
%TD*%
D23*
%TO.C,P0*%
X13106400Y-6553200D03*
%TD*%
D12*
%TO.C,P0*%
X15875000Y-7302500D03*
%TD*%
D11*
%TO.C,B0*%
X10985500Y-6604000D03*
X10985500Y-7112000D03*
%TD*%
D14*
%TO.C,G0*%
X5842000Y-3619500D03*
%TD*%
M02*
