%TF.GenerationSoftware,KiCad,Pcbnew,7.0.2*%
%TF.CreationDate,2024-04-24T22:24:59-04:00*%
%TF.ProjectId,MK2_1,4d4b325f-312e-46b6-9963-61645f706362,1*%
%TF.SameCoordinates,Original*%
%TF.FileFunction,Drillmap*%
%TF.FilePolarity,Positive*%
%FSLAX45Y45*%
G04 Gerber Fmt 4.5, Leading zero omitted, Abs format (unit mm)*
G04 Created by KiCad (PCBNEW 7.0.2) date 2024-04-24 22:24:59*
%MOMM*%
%LPD*%
G01*
G04 APERTURE LIST*
%ADD10C,0.254000*%
%ADD11C,0.200000*%
%ADD12C,0.038100*%
%ADD13C,0.063500*%
%ADD14C,0.101600*%
%ADD15C,0.114300*%
%ADD16C,0.127000*%
%ADD17C,0.152400*%
%ADD18C,0.177800*%
G04 APERTURE END LIST*
D10*
X10403105Y-5588000D02*
G75*
G03*
X10403105Y-5588000I-179605J0D01*
G01*
X13387605Y-5715000D02*
G75*
G03*
X13387605Y-5715000I-179605J0D01*
G01*
X13721120Y-6540500D02*
G75*
G03*
X13721120Y-6540500I-81320J0D01*
G01*
X2603500Y-2349500D02*
X1905000Y-5111750D01*
X20066000Y-5111750D02*
X19367500Y-2349500D01*
X20066000Y-5111750D02*
X19367500Y-7874000D01*
X2603500Y-2349500D02*
X19367500Y-2349500D01*
X2603500Y-7874000D02*
X1905000Y-5111750D01*
X19367500Y-7874000D02*
X2603500Y-7874000D01*
D11*
D12*
X3409950Y-3028950D02*
X3448050Y-3067050D01*
X3448050Y-3028950D02*
X3409950Y-3067050D01*
X3409950Y-3663950D02*
X3448050Y-3702050D01*
X3448050Y-3663950D02*
X3409950Y-3702050D01*
X3409950Y-4298950D02*
X3448050Y-4337050D01*
X3448050Y-4298950D02*
X3409950Y-4337050D01*
X3409950Y-4933950D02*
X3448050Y-4972050D01*
X3448050Y-4933950D02*
X3409950Y-4972050D01*
X3409950Y-5568950D02*
X3448050Y-5607050D01*
X3448050Y-5568950D02*
X3409950Y-5607050D01*
X3409950Y-6203950D02*
X3448050Y-6242050D01*
X3448050Y-6203950D02*
X3409950Y-6242050D01*
X3409950Y-6838950D02*
X3448050Y-6877050D01*
X3448050Y-6838950D02*
X3409950Y-6877050D01*
X3409950Y-7473950D02*
X3448050Y-7512050D01*
X3448050Y-7473950D02*
X3409950Y-7512050D01*
X4044950Y-3028950D02*
X4083050Y-3067050D01*
X4083050Y-3028950D02*
X4044950Y-3067050D01*
X4044950Y-4298950D02*
X4083050Y-4337050D01*
X4083050Y-4298950D02*
X4044950Y-4337050D01*
X4044950Y-4933950D02*
X4083050Y-4972050D01*
X4083050Y-4933950D02*
X4044950Y-4972050D01*
X4044950Y-5568950D02*
X4083050Y-5607050D01*
X4083050Y-5568950D02*
X4044950Y-5607050D01*
X4044950Y-6203950D02*
X4083050Y-6242050D01*
X4083050Y-6203950D02*
X4044950Y-6242050D01*
X4044950Y-6838950D02*
X4083050Y-6877050D01*
X4083050Y-6838950D02*
X4044950Y-6877050D01*
X4044950Y-7473950D02*
X4083050Y-7512050D01*
X4083050Y-7473950D02*
X4044950Y-7512050D01*
X4679950Y-3028950D02*
X4718050Y-3067050D01*
X4718050Y-3028950D02*
X4679950Y-3067050D01*
X4679950Y-4298950D02*
X4718050Y-4337050D01*
X4718050Y-4298950D02*
X4679950Y-4337050D01*
X4679950Y-4933950D02*
X4718050Y-4972050D01*
X4718050Y-4933950D02*
X4679950Y-4972050D01*
X4679950Y-5568950D02*
X4718050Y-5607050D01*
X4718050Y-5568950D02*
X4679950Y-5607050D01*
X4679950Y-6203950D02*
X4718050Y-6242050D01*
X4718050Y-6203950D02*
X4679950Y-6242050D01*
X4679950Y-6838950D02*
X4718050Y-6877050D01*
X4718050Y-6838950D02*
X4679950Y-6877050D01*
X4679950Y-7473950D02*
X4718050Y-7512050D01*
X4718050Y-7473950D02*
X4679950Y-7512050D01*
X5314950Y-6838950D02*
X5353050Y-6877050D01*
X5353050Y-6838950D02*
X5314950Y-6877050D01*
X5314950Y-7473950D02*
X5353050Y-7512050D01*
X5353050Y-7473950D02*
X5314950Y-7512050D01*
X5949950Y-5568950D02*
X5988050Y-5607050D01*
X5988050Y-5568950D02*
X5949950Y-5607050D01*
X5949950Y-6838950D02*
X5988050Y-6877050D01*
X5988050Y-6838950D02*
X5949950Y-6877050D01*
X5949950Y-7473950D02*
X5988050Y-7512050D01*
X5988050Y-7473950D02*
X5949950Y-7512050D01*
X6584950Y-5568950D02*
X6623050Y-5607050D01*
X6623050Y-5568950D02*
X6584950Y-5607050D01*
X7207250Y-6978650D02*
X7245350Y-7016750D01*
X7245350Y-6978650D02*
X7207250Y-7016750D01*
X7219950Y-7410450D02*
X7258050Y-7448550D01*
X7258050Y-7410450D02*
X7219950Y-7448550D01*
X7334250Y-3651250D02*
X7372350Y-3689350D01*
X7372350Y-3651250D02*
X7334250Y-3689350D01*
X7600950Y-6597650D02*
X7639050Y-6635750D01*
X7639050Y-6597650D02*
X7600950Y-6635750D01*
X7740650Y-3638550D02*
X7778750Y-3676650D01*
X7778750Y-3638550D02*
X7740650Y-3676650D01*
X8235950Y-5886450D02*
X8274050Y-5924550D01*
X8274050Y-5886450D02*
X8235950Y-5924550D01*
X8235950Y-6457950D02*
X8274050Y-6496050D01*
X8274050Y-6457950D02*
X8235950Y-6496050D01*
X8362950Y-5822950D02*
X8401050Y-5861050D01*
X8401050Y-5822950D02*
X8362950Y-5861050D01*
X8362950Y-7092950D02*
X8401050Y-7131050D01*
X8401050Y-7092950D02*
X8362950Y-7131050D01*
X8489950Y-3028950D02*
X8528050Y-3067050D01*
X8528050Y-3028950D02*
X8489950Y-3067050D01*
X8489950Y-3663950D02*
X8528050Y-3702050D01*
X8528050Y-3663950D02*
X8489950Y-3702050D01*
X8553450Y-5886450D02*
X8591550Y-5924550D01*
X8591550Y-5886450D02*
X8553450Y-5924550D01*
X8616950Y-7092950D02*
X8655050Y-7131050D01*
X8655050Y-7092950D02*
X8616950Y-7131050D01*
X8616950Y-7600950D02*
X8655050Y-7639050D01*
X8655050Y-7600950D02*
X8616950Y-7639050D01*
X8616950Y-7727950D02*
X8655050Y-7766050D01*
X8655050Y-7727950D02*
X8616950Y-7766050D01*
X8870950Y-7092950D02*
X8909050Y-7131050D01*
X8909050Y-7092950D02*
X8870950Y-7131050D01*
X9124950Y-3028950D02*
X9163050Y-3067050D01*
X9163050Y-3028950D02*
X9124950Y-3067050D01*
X9124950Y-3663950D02*
X9163050Y-3702050D01*
X9163050Y-3663950D02*
X9124950Y-3702050D01*
X9124950Y-4298950D02*
X9163050Y-4337050D01*
X9163050Y-4298950D02*
X9124950Y-4337050D01*
X9124950Y-4933950D02*
X9163050Y-4972050D01*
X9163050Y-4933950D02*
X9124950Y-4972050D01*
X9124950Y-5568950D02*
X9163050Y-5607050D01*
X9163050Y-5568950D02*
X9124950Y-5607050D01*
X9759950Y-3028950D02*
X9798050Y-3067050D01*
X9798050Y-3028950D02*
X9759950Y-3067050D01*
X9759950Y-3663950D02*
X9798050Y-3702050D01*
X9798050Y-3663950D02*
X9759950Y-3702050D01*
X9924415Y-4958715D02*
X9962515Y-4996815D01*
X9962515Y-4958715D02*
X9924415Y-4996815D01*
X9925050Y-7092950D02*
X9963150Y-7131050D01*
X9963150Y-7092950D02*
X9925050Y-7131050D01*
X10077450Y-4108450D02*
X10115550Y-4146550D01*
X10115550Y-4108450D02*
X10077450Y-4146550D01*
X10204450Y-4616450D02*
X10242550Y-4654550D01*
X10242550Y-4616450D02*
X10204450Y-4654550D01*
X10394950Y-4933950D02*
X10433050Y-4972050D01*
X10433050Y-4933950D02*
X10394950Y-4972050D01*
X10394950Y-6203950D02*
X10433050Y-6242050D01*
X10433050Y-6203950D02*
X10394950Y-6242050D01*
X10788650Y-4692650D02*
X10826750Y-4730750D01*
X10826750Y-4692650D02*
X10788650Y-4730750D01*
X10788650Y-4857750D02*
X10826750Y-4895850D01*
X10826750Y-4857750D02*
X10788650Y-4895850D01*
X11029950Y-3663950D02*
X11068050Y-3702050D01*
X11068050Y-3663950D02*
X11029950Y-3702050D01*
X11042650Y-6902450D02*
X11080750Y-6940550D01*
X11080750Y-6902450D02*
X11042650Y-6940550D01*
X11283950Y-6521450D02*
X11322050Y-6559550D01*
X11322050Y-6521450D02*
X11283950Y-6559550D01*
X11283950Y-6648450D02*
X11322050Y-6686550D01*
X11322050Y-6648450D02*
X11283950Y-6686550D01*
X11283950Y-6775450D02*
X11322050Y-6813550D01*
X11322050Y-6775450D02*
X11283950Y-6813550D01*
X11487150Y-4502150D02*
X11525250Y-4540250D01*
X11525250Y-4502150D02*
X11487150Y-4540250D01*
X11537950Y-3092450D02*
X11576050Y-3130550D01*
X11576050Y-3092450D02*
X11537950Y-3130550D01*
X11664950Y-3663950D02*
X11703050Y-3702050D01*
X11703050Y-3663950D02*
X11664950Y-3702050D01*
X11664950Y-4298950D02*
X11703050Y-4337050D01*
X11703050Y-4298950D02*
X11664950Y-4337050D01*
X11664950Y-4933950D02*
X11703050Y-4972050D01*
X11703050Y-4933950D02*
X11664950Y-4972050D01*
X11664950Y-5568950D02*
X11703050Y-5607050D01*
X11703050Y-5568950D02*
X11664950Y-5607050D01*
X11664950Y-6457950D02*
X11703050Y-6496050D01*
X11703050Y-6457950D02*
X11664950Y-6496050D01*
X11791950Y-6521450D02*
X11830050Y-6559550D01*
X11830050Y-6521450D02*
X11791950Y-6559550D01*
X11791950Y-6851650D02*
X11830050Y-6889750D01*
X11830050Y-6851650D02*
X11791950Y-6889750D01*
X11868150Y-5911850D02*
X11906250Y-5949950D01*
X11906250Y-5911850D02*
X11868150Y-5949950D01*
X12033250Y-7486650D02*
X12071350Y-7524750D01*
X12071350Y-7486650D02*
X12033250Y-7524750D01*
X12172950Y-6648450D02*
X12211050Y-6686550D01*
X12211050Y-6648450D02*
X12172950Y-6686550D01*
X12172950Y-6775450D02*
X12211050Y-6813550D01*
X12211050Y-6775450D02*
X12172950Y-6813550D01*
X12172950Y-6902450D02*
X12211050Y-6940550D01*
X12211050Y-6902450D02*
X12172950Y-6940550D01*
X12172950Y-7029450D02*
X12211050Y-7067550D01*
X12211050Y-7029450D02*
X12172950Y-7067550D01*
X12299950Y-3663950D02*
X12338050Y-3702050D01*
X12338050Y-3663950D02*
X12299950Y-3702050D01*
X12299950Y-4298950D02*
X12338050Y-4337050D01*
X12338050Y-4298950D02*
X12299950Y-4337050D01*
X12299950Y-4933950D02*
X12338050Y-4972050D01*
X12338050Y-4933950D02*
X12299950Y-4972050D01*
X12465050Y-6178550D02*
X12503150Y-6216650D01*
X12503150Y-6178550D02*
X12465050Y-6216650D01*
X12566650Y-6343650D02*
X12604750Y-6381750D01*
X12604750Y-6343650D02*
X12566650Y-6381750D01*
X12680950Y-4552950D02*
X12719050Y-4591050D01*
X12719050Y-4552950D02*
X12680950Y-4591050D01*
X12934950Y-3028950D02*
X12973050Y-3067050D01*
X12973050Y-3028950D02*
X12934950Y-3067050D01*
X12934950Y-3663950D02*
X12973050Y-3702050D01*
X12973050Y-3663950D02*
X12934950Y-3702050D01*
X12934950Y-7473950D02*
X12973050Y-7512050D01*
X12973050Y-7473950D02*
X12934950Y-7512050D01*
X12973050Y-6254750D02*
X13011150Y-6292850D01*
X13011150Y-6254750D02*
X12973050Y-6292850D01*
X12973050Y-6381750D02*
X13011150Y-6419850D01*
X13011150Y-6381750D02*
X12973050Y-6419850D01*
X13011150Y-5111750D02*
X13049250Y-5149850D01*
X13049250Y-5111750D02*
X13011150Y-5149850D01*
X13023850Y-7258050D02*
X13061950Y-7296150D01*
X13061950Y-7258050D02*
X13023850Y-7296150D01*
X13188950Y-5251450D02*
X13227050Y-5289550D01*
X13227050Y-5251450D02*
X13188950Y-5289550D01*
X13315950Y-3028950D02*
X13354050Y-3067050D01*
X13354050Y-3028950D02*
X13315950Y-3067050D01*
X13392150Y-6978650D02*
X13430250Y-7016750D01*
X13430250Y-6978650D02*
X13392150Y-7016750D01*
X13417550Y-4019550D02*
X13455650Y-4057650D01*
X13455650Y-4019550D02*
X13417550Y-4057650D01*
X13569950Y-3092450D02*
X13608050Y-3130550D01*
X13608050Y-3092450D02*
X13569950Y-3130550D01*
X13569950Y-3219450D02*
X13608050Y-3257550D01*
X13608050Y-3219450D02*
X13569950Y-3257550D01*
X13569950Y-3346450D02*
X13608050Y-3384550D01*
X13608050Y-3346450D02*
X13569950Y-3384550D01*
X13569950Y-3473450D02*
X13608050Y-3511550D01*
X13608050Y-3473450D02*
X13569950Y-3511550D01*
X13633450Y-4362450D02*
X13671550Y-4400550D01*
X13671550Y-4362450D02*
X13633450Y-4400550D01*
X13633450Y-5695950D02*
X13671550Y-5734050D01*
X13671550Y-5695950D02*
X13633450Y-5734050D01*
X13684250Y-6038850D02*
X13722350Y-6076950D01*
X13722350Y-6038850D02*
X13684250Y-6076950D01*
X13760450Y-7156450D02*
X13798550Y-7194550D01*
X13798550Y-7156450D02*
X13760450Y-7194550D01*
X13823950Y-4362450D02*
X13862050Y-4400550D01*
X13862050Y-4362450D02*
X13823950Y-4400550D01*
X13950950Y-3282950D02*
X13989050Y-3321050D01*
X13989050Y-3282950D02*
X13950950Y-3321050D01*
X13950950Y-4743450D02*
X13989050Y-4781550D01*
X13989050Y-4743450D02*
X13950950Y-4781550D01*
X13950950Y-5822950D02*
X13989050Y-5861050D01*
X13989050Y-5822950D02*
X13950950Y-5861050D01*
X14065250Y-5441950D02*
X14103350Y-5480050D01*
X14103350Y-5441950D02*
X14065250Y-5480050D01*
X14077950Y-3473450D02*
X14116050Y-3511550D01*
X14116050Y-3473450D02*
X14077950Y-3511550D01*
X14141450Y-4933950D02*
X14179550Y-4972050D01*
X14179550Y-4933950D02*
X14141450Y-4972050D01*
X14154150Y-4121150D02*
X14192250Y-4159250D01*
X14192250Y-4121150D02*
X14154150Y-4159250D01*
X14204950Y-7473950D02*
X14243050Y-7512050D01*
X14243050Y-7473950D02*
X14204950Y-7512050D01*
X14382750Y-4006850D02*
X14420850Y-4044950D01*
X14420850Y-4006850D02*
X14382750Y-4044950D01*
X14395450Y-2965450D02*
X14433550Y-3003550D01*
X14433550Y-2965450D02*
X14395450Y-3003550D01*
X14395450Y-5695950D02*
X14433550Y-5734050D01*
X14433550Y-5695950D02*
X14395450Y-5734050D01*
X14408150Y-5314950D02*
X14446250Y-5353050D01*
X14446250Y-5314950D02*
X14408150Y-5353050D01*
X14484350Y-5607050D02*
X14522450Y-5645150D01*
X14522450Y-5607050D02*
X14484350Y-5645150D01*
X14585950Y-2965450D02*
X14624050Y-3003550D01*
X14624050Y-2965450D02*
X14585950Y-3003550D01*
X14712950Y-3829050D02*
X14751050Y-3867150D01*
X14751050Y-3829050D02*
X14712950Y-3867150D01*
X14839950Y-3536950D02*
X14878050Y-3575050D01*
X14878050Y-3536950D02*
X14839950Y-3575050D01*
X14839950Y-7473950D02*
X14878050Y-7512050D01*
X14878050Y-7473950D02*
X14839950Y-7512050D01*
X14878050Y-3282950D02*
X14916150Y-3321050D01*
X14916150Y-3282950D02*
X14878050Y-3321050D01*
X15027597Y-4797103D02*
X15065697Y-4835203D01*
X15065697Y-4797103D02*
X15027597Y-4835203D01*
X15246350Y-3181350D02*
X15284450Y-3219450D01*
X15284450Y-3181350D02*
X15246350Y-3219450D01*
X16744950Y-3663950D02*
X16783050Y-3702050D01*
X16783050Y-3663950D02*
X16744950Y-3702050D01*
X16744950Y-4298950D02*
X16783050Y-4337050D01*
X16783050Y-4298950D02*
X16744950Y-4337050D01*
X16744950Y-5568950D02*
X16783050Y-5607050D01*
X16783050Y-5568950D02*
X16744950Y-5607050D01*
X16744950Y-6203950D02*
X16783050Y-6242050D01*
X16783050Y-6203950D02*
X16744950Y-6242050D01*
X16744950Y-7473950D02*
X16783050Y-7512050D01*
X16783050Y-7473950D02*
X16744950Y-7512050D01*
X17379950Y-3028950D02*
X17418050Y-3067050D01*
X17418050Y-3028950D02*
X17379950Y-3067050D01*
X17379950Y-3663950D02*
X17418050Y-3702050D01*
X17418050Y-3663950D02*
X17379950Y-3702050D01*
X17379950Y-4933950D02*
X17418050Y-4972050D01*
X17418050Y-4933950D02*
X17379950Y-4972050D01*
X17379950Y-5568950D02*
X17418050Y-5607050D01*
X17418050Y-5568950D02*
X17379950Y-5607050D01*
X17379950Y-7473950D02*
X17418050Y-7512050D01*
X17418050Y-7473950D02*
X17379950Y-7512050D01*
X18014950Y-3028950D02*
X18053050Y-3067050D01*
X18053050Y-3028950D02*
X18014950Y-3067050D01*
X18014950Y-3663950D02*
X18053050Y-3702050D01*
X18053050Y-3663950D02*
X18014950Y-3702050D01*
X18014950Y-4298950D02*
X18053050Y-4337050D01*
X18053050Y-4298950D02*
X18014950Y-4337050D01*
X18014950Y-4933950D02*
X18053050Y-4972050D01*
X18053050Y-4933950D02*
X18014950Y-4972050D01*
X18014950Y-5568950D02*
X18053050Y-5607050D01*
X18053050Y-5568950D02*
X18014950Y-5607050D01*
X18014950Y-6203950D02*
X18053050Y-6242050D01*
X18053050Y-6203950D02*
X18014950Y-6242050D01*
X18014950Y-6838950D02*
X18053050Y-6877050D01*
X18053050Y-6838950D02*
X18014950Y-6877050D01*
X18014950Y-7473950D02*
X18053050Y-7512050D01*
X18053050Y-7473950D02*
X18014950Y-7512050D01*
D13*
X11588750Y-6032500D02*
G75*
G03*
X11588750Y-6032500I-31750J0D01*
G01*
X14128750Y-6350000D02*
G75*
G03*
X14128750Y-6350000I-31750J0D01*
G01*
X16795750Y-3048000D02*
G75*
G03*
X16795750Y-3048000I-31750J0D01*
G01*
D14*
X14097000Y-4521200D02*
X14097000Y-4622800D01*
X14046200Y-4572000D02*
X14147800Y-4572000D01*
X15290800Y-4470400D02*
X15290800Y-4572000D01*
X15240000Y-4521200D02*
X15341600Y-4521200D01*
X4607921Y-2575921D02*
X4607921Y-2504079D01*
X4536079Y-2504079D01*
X4536079Y-2575921D01*
X4607921Y-2575921D01*
X5052421Y-2575921D02*
X5052421Y-2504079D01*
X4980579Y-2504079D01*
X4980579Y-2575921D01*
X5052421Y-2575921D01*
X5369921Y-6449421D02*
X5369921Y-6377579D01*
X5298079Y-6377579D01*
X5298079Y-6449421D01*
X5369921Y-6449421D01*
X5496921Y-4036421D02*
X5496921Y-3964579D01*
X5425079Y-3964579D01*
X5425079Y-4036421D01*
X5496921Y-4036421D01*
X5496921Y-4290421D02*
X5496921Y-4218579D01*
X5425079Y-4218579D01*
X5425079Y-4290421D01*
X5496921Y-4290421D01*
X5496921Y-4544421D02*
X5496921Y-4472579D01*
X5425079Y-4472579D01*
X5425079Y-4544421D01*
X5496921Y-4544421D01*
X5623921Y-2575921D02*
X5623921Y-2504079D01*
X5552079Y-2504079D01*
X5552079Y-2575921D01*
X5623921Y-2575921D01*
X5877921Y-6449421D02*
X5877921Y-6377579D01*
X5806079Y-6377579D01*
X5806079Y-6449421D01*
X5877921Y-6449421D01*
X6068421Y-2575921D02*
X6068421Y-2504079D01*
X5996579Y-2504079D01*
X5996579Y-2575921D01*
X6068421Y-2575921D01*
X6131921Y-3401421D02*
X6131921Y-3329579D01*
X6060079Y-3329579D01*
X6060079Y-3401421D01*
X6131921Y-3401421D01*
X6385921Y-3401421D02*
X6385921Y-3329579D01*
X6314079Y-3329579D01*
X6314079Y-3401421D01*
X6385921Y-3401421D01*
X6385921Y-5433421D02*
X6385921Y-5361579D01*
X6314079Y-5361579D01*
X6314079Y-5433421D01*
X6385921Y-5433421D01*
X6385921Y-5941421D02*
X6385921Y-5869579D01*
X6314079Y-5869579D01*
X6314079Y-5941421D01*
X6385921Y-5941421D01*
X6385921Y-6957421D02*
X6385921Y-6885579D01*
X6314079Y-6885579D01*
X6314079Y-6957421D01*
X6385921Y-6957421D01*
X6385921Y-7465421D02*
X6385921Y-7393579D01*
X6314079Y-7393579D01*
X6314079Y-7465421D01*
X6385921Y-7465421D01*
X6639921Y-3401421D02*
X6639921Y-3329579D01*
X6568079Y-3329579D01*
X6568079Y-3401421D01*
X6639921Y-3401421D01*
X6893921Y-6449421D02*
X6893921Y-6377579D01*
X6822079Y-6377579D01*
X6822079Y-6449421D01*
X6893921Y-6449421D01*
X7401921Y-6449421D02*
X7401921Y-6377579D01*
X7330079Y-6377579D01*
X7330079Y-6449421D01*
X7401921Y-6449421D01*
X8036921Y-2829921D02*
X8036921Y-2758079D01*
X7965079Y-2758079D01*
X7965079Y-2829921D01*
X8036921Y-2829921D01*
X8036921Y-3083921D02*
X8036921Y-3012079D01*
X7965079Y-3012079D01*
X7965079Y-3083921D01*
X8036921Y-3083921D01*
X8036921Y-3337921D02*
X8036921Y-3266079D01*
X7965079Y-3266079D01*
X7965079Y-3337921D01*
X8036921Y-3337921D01*
X8036921Y-3591921D02*
X8036921Y-3520079D01*
X7965079Y-3520079D01*
X7965079Y-3591921D01*
X8036921Y-3591921D01*
X8036921Y-3845921D02*
X8036921Y-3774079D01*
X7965079Y-3774079D01*
X7965079Y-3845921D01*
X8036921Y-3845921D01*
X8036921Y-4099921D02*
X8036921Y-4028079D01*
X7965079Y-4028079D01*
X7965079Y-4099921D01*
X8036921Y-4099921D01*
X8036921Y-4353921D02*
X8036921Y-4282079D01*
X7965079Y-4282079D01*
X7965079Y-4353921D01*
X8036921Y-4353921D01*
X8036921Y-4607921D02*
X8036921Y-4536079D01*
X7965079Y-4536079D01*
X7965079Y-4607921D01*
X8036921Y-4607921D01*
X8036921Y-4861921D02*
X8036921Y-4790079D01*
X7965079Y-4790079D01*
X7965079Y-4861921D01*
X8036921Y-4861921D01*
X8036921Y-5115921D02*
X8036921Y-5044079D01*
X7965079Y-5044079D01*
X7965079Y-5115921D01*
X8036921Y-5115921D01*
X8036921Y-5369921D02*
X8036921Y-5298079D01*
X7965079Y-5298079D01*
X7965079Y-5369921D01*
X8036921Y-5369921D01*
X8036921Y-5623921D02*
X8036921Y-5552079D01*
X7965079Y-5552079D01*
X7965079Y-5623921D01*
X8036921Y-5623921D01*
X8036921Y-5877921D02*
X8036921Y-5806079D01*
X7965079Y-5806079D01*
X7965079Y-5877921D01*
X8036921Y-5877921D01*
X8036921Y-6131921D02*
X8036921Y-6060079D01*
X7965079Y-6060079D01*
X7965079Y-6131921D01*
X8036921Y-6131921D01*
X8036921Y-6385921D02*
X8036921Y-6314079D01*
X7965079Y-6314079D01*
X7965079Y-6385921D01*
X8036921Y-6385921D01*
X8036921Y-6639921D02*
X8036921Y-6568079D01*
X7965079Y-6568079D01*
X7965079Y-6639921D01*
X8036921Y-6639921D01*
X8036921Y-6893921D02*
X8036921Y-6822079D01*
X7965079Y-6822079D01*
X7965079Y-6893921D01*
X8036921Y-6893921D01*
X9560921Y-2829921D02*
X9560921Y-2758079D01*
X9489079Y-2758079D01*
X9489079Y-2829921D01*
X9560921Y-2829921D01*
X9560921Y-3083921D02*
X9560921Y-3012079D01*
X9489079Y-3012079D01*
X9489079Y-3083921D01*
X9560921Y-3083921D01*
X9560921Y-3337921D02*
X9560921Y-3266079D01*
X9489079Y-3266079D01*
X9489079Y-3337921D01*
X9560921Y-3337921D01*
X9560921Y-3591921D02*
X9560921Y-3520079D01*
X9489079Y-3520079D01*
X9489079Y-3591921D01*
X9560921Y-3591921D01*
X9560921Y-3845921D02*
X9560921Y-3774079D01*
X9489079Y-3774079D01*
X9489079Y-3845921D01*
X9560921Y-3845921D01*
X9560921Y-4099921D02*
X9560921Y-4028079D01*
X9489079Y-4028079D01*
X9489079Y-4099921D01*
X9560921Y-4099921D01*
X9560921Y-4353921D02*
X9560921Y-4282079D01*
X9489079Y-4282079D01*
X9489079Y-4353921D01*
X9560921Y-4353921D01*
X9560921Y-4607921D02*
X9560921Y-4536079D01*
X9489079Y-4536079D01*
X9489079Y-4607921D01*
X9560921Y-4607921D01*
X9560921Y-4861921D02*
X9560921Y-4790079D01*
X9489079Y-4790079D01*
X9489079Y-4861921D01*
X9560921Y-4861921D01*
X9560921Y-5115921D02*
X9560921Y-5044079D01*
X9489079Y-5044079D01*
X9489079Y-5115921D01*
X9560921Y-5115921D01*
X9560921Y-5369921D02*
X9560921Y-5298079D01*
X9489079Y-5298079D01*
X9489079Y-5369921D01*
X9560921Y-5369921D01*
X9560921Y-5623921D02*
X9560921Y-5552079D01*
X9489079Y-5552079D01*
X9489079Y-5623921D01*
X9560921Y-5623921D01*
X9560921Y-5877921D02*
X9560921Y-5806079D01*
X9489079Y-5806079D01*
X9489079Y-5877921D01*
X9560921Y-5877921D01*
X9560921Y-6131921D02*
X9560921Y-6060079D01*
X9489079Y-6060079D01*
X9489079Y-6131921D01*
X9560921Y-6131921D01*
X9560921Y-6385921D02*
X9560921Y-6314079D01*
X9489079Y-6314079D01*
X9489079Y-6385921D01*
X9560921Y-6385921D01*
X9560921Y-6639921D02*
X9560921Y-6568079D01*
X9489079Y-6568079D01*
X9489079Y-6639921D01*
X9560921Y-6639921D01*
X9560921Y-6893921D02*
X9560921Y-6822079D01*
X9489079Y-6822079D01*
X9489079Y-6893921D01*
X9560921Y-6893921D01*
X10195921Y-6639921D02*
X10195921Y-6568079D01*
X10124079Y-6568079D01*
X10124079Y-6639921D01*
X10195921Y-6639921D01*
X10195921Y-7147921D02*
X10195921Y-7076079D01*
X10124079Y-7076079D01*
X10124079Y-7147921D01*
X10195921Y-7147921D01*
X10957921Y-2829921D02*
X10957921Y-2758079D01*
X10886079Y-2758079D01*
X10886079Y-2829921D01*
X10957921Y-2829921D01*
X11021421Y-6639921D02*
X11021421Y-6568079D01*
X10949579Y-6568079D01*
X10949579Y-6639921D01*
X11021421Y-6639921D01*
X11021421Y-7147921D02*
X11021421Y-7076079D01*
X10949579Y-7076079D01*
X10949579Y-7147921D01*
X11021421Y-7147921D01*
X11211921Y-2829921D02*
X11211921Y-2758079D01*
X11140079Y-2758079D01*
X11140079Y-2829921D01*
X11211921Y-2829921D01*
X11465921Y-2829921D02*
X11465921Y-2758079D01*
X11394079Y-2758079D01*
X11394079Y-2829921D01*
X11465921Y-2829921D01*
X11719921Y-2829921D02*
X11719921Y-2758079D01*
X11648079Y-2758079D01*
X11648079Y-2829921D01*
X11719921Y-2829921D01*
X11973921Y-2829921D02*
X11973921Y-2758079D01*
X11902079Y-2758079D01*
X11902079Y-2829921D01*
X11973921Y-2829921D01*
X12227921Y-2829921D02*
X12227921Y-2758079D01*
X12156079Y-2758079D01*
X12156079Y-2829921D01*
X12227921Y-2829921D01*
X12481921Y-2829921D02*
X12481921Y-2758079D01*
X12410079Y-2758079D01*
X12410079Y-2829921D01*
X12481921Y-2829921D01*
X12545421Y-6639921D02*
X12545421Y-6568079D01*
X12473579Y-6568079D01*
X12473579Y-6639921D01*
X12545421Y-6639921D01*
X12545421Y-7147921D02*
X12545421Y-7076079D01*
X12473579Y-7076079D01*
X12473579Y-7147921D01*
X12545421Y-7147921D01*
X13332821Y-4353921D02*
X13332821Y-4282079D01*
X13260979Y-4282079D01*
X13260979Y-4353921D01*
X13332821Y-4353921D01*
X13332821Y-4607921D02*
X13332821Y-4536079D01*
X13260979Y-4536079D01*
X13260979Y-4607921D01*
X13332821Y-4607921D01*
X14894921Y-4099921D02*
X14894921Y-4028079D01*
X14823079Y-4028079D01*
X14823079Y-4099921D01*
X14894921Y-4099921D01*
X14894921Y-4607921D02*
X14894921Y-4536079D01*
X14823079Y-4536079D01*
X14823079Y-4607921D01*
X14894921Y-4607921D01*
X15402921Y-7338421D02*
X15402921Y-7266579D01*
X15331079Y-7266579D01*
X15331079Y-7338421D01*
X15402921Y-7338421D01*
X15656921Y-3591921D02*
X15656921Y-3520079D01*
X15585079Y-3520079D01*
X15585079Y-3591921D01*
X15656921Y-3591921D01*
X15656921Y-4099921D02*
X15656921Y-4028079D01*
X15585079Y-4028079D01*
X15585079Y-4099921D01*
X15656921Y-4099921D01*
X15656921Y-4861921D02*
X15656921Y-4790079D01*
X15585079Y-4790079D01*
X15585079Y-4861921D01*
X15656921Y-4861921D01*
X15656921Y-5369921D02*
X15656921Y-5298079D01*
X15585079Y-5298079D01*
X15585079Y-5369921D01*
X15656921Y-5369921D01*
X15656921Y-7338421D02*
X15656921Y-7266579D01*
X15585079Y-7266579D01*
X15585079Y-7338421D01*
X15656921Y-7338421D01*
X15910921Y-7338421D02*
X15910921Y-7266579D01*
X15839079Y-7266579D01*
X15839079Y-7338421D01*
X15910921Y-7338421D01*
X15974421Y-2575921D02*
X15974421Y-2504079D01*
X15902579Y-2504079D01*
X15902579Y-2575921D01*
X15974421Y-2575921D01*
X16418921Y-2575921D02*
X16418921Y-2504079D01*
X16347079Y-2504079D01*
X16347079Y-2575921D01*
X16418921Y-2575921D01*
X16418921Y-3083921D02*
X16418921Y-3012079D01*
X16347079Y-3012079D01*
X16347079Y-3083921D01*
X16418921Y-3083921D01*
X16418921Y-3591921D02*
X16418921Y-3520079D01*
X16347079Y-3520079D01*
X16347079Y-3591921D01*
X16418921Y-3591921D01*
X16418921Y-4353921D02*
X16418921Y-4282079D01*
X16347079Y-4282079D01*
X16347079Y-4353921D01*
X16418921Y-4353921D01*
X16418921Y-4861921D02*
X16418921Y-4790079D01*
X16347079Y-4790079D01*
X16347079Y-4861921D01*
X16418921Y-4861921D01*
X16545921Y-6195421D02*
X16545921Y-6123579D01*
X16474079Y-6123579D01*
X16474079Y-6195421D01*
X16545921Y-6195421D01*
X16545921Y-6449421D02*
X16545921Y-6377579D01*
X16474079Y-6377579D01*
X16474079Y-6449421D01*
X16545921Y-6449421D01*
X16545921Y-6703421D02*
X16545921Y-6631579D01*
X16474079Y-6631579D01*
X16474079Y-6703421D01*
X16545921Y-6703421D01*
X16990421Y-2575921D02*
X16990421Y-2504079D01*
X16918579Y-2504079D01*
X16918579Y-2575921D01*
X16990421Y-2575921D01*
X17180921Y-3845921D02*
X17180921Y-3774079D01*
X17109079Y-3774079D01*
X17109079Y-3845921D01*
X17180921Y-3845921D01*
X17180921Y-4353921D02*
X17180921Y-4282079D01*
X17109079Y-4282079D01*
X17109079Y-4353921D01*
X17180921Y-4353921D01*
X17434921Y-2575921D02*
X17434921Y-2504079D01*
X17363079Y-2504079D01*
X17363079Y-2575921D01*
X17434921Y-2575921D01*
D15*
X6921500Y-3994150D02*
X6978650Y-3937000D01*
X6921500Y-3879850D01*
X6864350Y-3937000D01*
X6921500Y-3994150D01*
X6921500Y-4629150D02*
X6978650Y-4572000D01*
X6921500Y-4514850D01*
X6864350Y-4572000D01*
X6921500Y-4629150D01*
X7366000Y-3994150D02*
X7423150Y-3937000D01*
X7366000Y-3879850D01*
X7308850Y-3937000D01*
X7366000Y-3994150D01*
X7366000Y-4629150D02*
X7423150Y-4572000D01*
X7366000Y-4514850D01*
X7308850Y-4572000D01*
X7366000Y-4629150D01*
X12979400Y-6788150D02*
X13036550Y-6731000D01*
X12979400Y-6673850D01*
X12922250Y-6731000D01*
X12979400Y-6788150D01*
X13030200Y-7016750D02*
X13087350Y-6959600D01*
X13030200Y-6902450D01*
X12973050Y-6959600D01*
X13030200Y-7016750D01*
X13106400Y-6610350D02*
X13163550Y-6553200D01*
X13106400Y-6496050D01*
X13049250Y-6553200D01*
X13106400Y-6610350D01*
X13411200Y-6407150D02*
X13468350Y-6350000D01*
X13411200Y-6292850D01*
X13354050Y-6350000D01*
X13411200Y-6407150D01*
X13411200Y-7461250D02*
X13468350Y-7404100D01*
X13411200Y-7346950D01*
X13354050Y-7404100D01*
X13411200Y-7461250D01*
X13639800Y-6356350D02*
X13696950Y-6299200D01*
X13639800Y-6242050D01*
X13582650Y-6299200D01*
X13639800Y-6356350D01*
X13639800Y-7410450D02*
X13696950Y-7353300D01*
X13639800Y-7296150D01*
X13582650Y-7353300D01*
X13639800Y-7410450D01*
X14020800Y-6788150D02*
X14077950Y-6731000D01*
X14020800Y-6673850D01*
X13963650Y-6731000D01*
X14020800Y-6788150D01*
X14071600Y-7016750D02*
X14128750Y-6959600D01*
X14071600Y-6902450D01*
X14014450Y-6959600D01*
X14071600Y-7016750D01*
X14605000Y-6153150D02*
X14662150Y-6096000D01*
X14605000Y-6038850D01*
X14547850Y-6096000D01*
X14605000Y-6153150D01*
X14605000Y-6788150D02*
X14662150Y-6731000D01*
X14605000Y-6673850D01*
X14547850Y-6731000D01*
X14605000Y-6788150D01*
X15049500Y-6153150D02*
X15106650Y-6096000D01*
X15049500Y-6038850D01*
X14992350Y-6096000D01*
X15049500Y-6153150D01*
X15049500Y-6788150D02*
X15106650Y-6731000D01*
X15049500Y-6673850D01*
X14992350Y-6731000D01*
X15049500Y-6788150D01*
D16*
X4191000Y-3441700D02*
X4318000Y-3568700D01*
X4318000Y-3441700D02*
X4191000Y-3568700D01*
X4318000Y-3505200D02*
G75*
G03*
X4318000Y-3505200I-63500J0D01*
G01*
X4191000Y-6946900D02*
X4318000Y-7073900D01*
X4318000Y-6946900D02*
X4191000Y-7073900D01*
X4318000Y-7010400D02*
G75*
G03*
X4318000Y-7010400I-63500J0D01*
G01*
X4572000Y-3441700D02*
X4699000Y-3568700D01*
X4699000Y-3441700D02*
X4572000Y-3568700D01*
X4699000Y-3505200D02*
G75*
G03*
X4699000Y-3505200I-63500J0D01*
G01*
X17272000Y-6946900D02*
X17399000Y-7073900D01*
X17399000Y-6946900D02*
X17272000Y-7073900D01*
X17399000Y-7010400D02*
G75*
G03*
X17399000Y-7010400I-63500J0D01*
G01*
X17653000Y-3441700D02*
X17780000Y-3568700D01*
X17780000Y-3441700D02*
X17653000Y-3568700D01*
X17780000Y-3505200D02*
G75*
G03*
X17780000Y-3505200I-63500J0D01*
G01*
X17653000Y-6946900D02*
X17780000Y-7073900D01*
X17780000Y-6946900D02*
X17653000Y-7073900D01*
X17780000Y-7010400D02*
G75*
G03*
X17780000Y-7010400I-63500J0D01*
G01*
D17*
X4368800Y-2717800D02*
X4521200Y-2870200D01*
X4521200Y-2717800D02*
X4368800Y-2870200D01*
X4445000Y-2717800D02*
X4445000Y-2870200D01*
X4368800Y-2794000D02*
X4521200Y-2794000D01*
X5054600Y-2717800D02*
X5207000Y-2870200D01*
X5207000Y-2717800D02*
X5054600Y-2870200D01*
X5130800Y-2717800D02*
X5130800Y-2870200D01*
X5054600Y-2794000D02*
X5207000Y-2794000D01*
X5384800Y-2717800D02*
X5537200Y-2870200D01*
X5537200Y-2717800D02*
X5384800Y-2870200D01*
X5461000Y-2717800D02*
X5461000Y-2870200D01*
X5384800Y-2794000D02*
X5537200Y-2794000D01*
X5765800Y-3543300D02*
X5918200Y-3695700D01*
X5918200Y-3543300D02*
X5765800Y-3695700D01*
X5842000Y-3543300D02*
X5842000Y-3695700D01*
X5765800Y-3619500D02*
X5918200Y-3619500D01*
X5765800Y-4813300D02*
X5918200Y-4965700D01*
X5918200Y-4813300D02*
X5765800Y-4965700D01*
X5842000Y-4813300D02*
X5842000Y-4965700D01*
X5765800Y-4889500D02*
X5918200Y-4889500D01*
X6070600Y-2717800D02*
X6223000Y-2870200D01*
X6223000Y-2717800D02*
X6070600Y-2870200D01*
X6146800Y-2717800D02*
X6146800Y-2870200D01*
X6070600Y-2794000D02*
X6223000Y-2794000D01*
X6781800Y-3543300D02*
X6934200Y-3695700D01*
X6934200Y-3543300D02*
X6781800Y-3695700D01*
X6858000Y-3543300D02*
X6858000Y-3695700D01*
X6781800Y-3619500D02*
X6934200Y-3619500D01*
X6781800Y-4813300D02*
X6934200Y-4965700D01*
X6934200Y-4813300D02*
X6781800Y-4965700D01*
X6858000Y-4813300D02*
X6858000Y-4965700D01*
X6781800Y-4889500D02*
X6934200Y-4889500D01*
X15036800Y-5702300D02*
X15189200Y-5854700D01*
X15189200Y-5702300D02*
X15036800Y-5854700D01*
X15113000Y-5702300D02*
X15113000Y-5854700D01*
X15036800Y-5778500D02*
X15189200Y-5778500D01*
X15036800Y-6972300D02*
X15189200Y-7124700D01*
X15189200Y-6972300D02*
X15036800Y-7124700D01*
X15113000Y-6972300D02*
X15113000Y-7124700D01*
X15036800Y-7048500D02*
X15189200Y-7048500D01*
X15735300Y-2717800D02*
X15887700Y-2870200D01*
X15887700Y-2717800D02*
X15735300Y-2870200D01*
X15811500Y-2717800D02*
X15811500Y-2870200D01*
X15735300Y-2794000D02*
X15887700Y-2794000D01*
X16052800Y-5702300D02*
X16205200Y-5854700D01*
X16205200Y-5702300D02*
X16052800Y-5854700D01*
X16129000Y-5702300D02*
X16129000Y-5854700D01*
X16052800Y-5778500D02*
X16205200Y-5778500D01*
X16052800Y-6972300D02*
X16205200Y-7124700D01*
X16205200Y-6972300D02*
X16052800Y-7124700D01*
X16129000Y-6972300D02*
X16129000Y-7124700D01*
X16052800Y-7048500D02*
X16205200Y-7048500D01*
X16433800Y-2717800D02*
X16586200Y-2870200D01*
X16586200Y-2717800D02*
X16433800Y-2870200D01*
X16510000Y-2717800D02*
X16510000Y-2870200D01*
X16433800Y-2794000D02*
X16586200Y-2794000D01*
X16751300Y-2717800D02*
X16903700Y-2870200D01*
X16903700Y-2717800D02*
X16751300Y-2870200D01*
X16827500Y-2717800D02*
X16827500Y-2870200D01*
X16751300Y-2794000D02*
X16903700Y-2794000D01*
X17449800Y-2717800D02*
X17602200Y-2870200D01*
X17602200Y-2717800D02*
X17449800Y-2870200D01*
X17526000Y-2717800D02*
X17526000Y-2870200D01*
X17449800Y-2794000D02*
X17602200Y-2794000D01*
D18*
X4356100Y-3924300D02*
X4533900Y-4102100D01*
X4533900Y-3924300D02*
X4356100Y-4102100D01*
X4507862Y-4076062D02*
X4507862Y-3950338D01*
X4382138Y-3950338D01*
X4382138Y-4076062D01*
X4507862Y-4076062D01*
D11*
X4438650Y-4102100D02*
X4451350Y-4102100D01*
X4451350Y-4102100D02*
G75*
G03*
X4451350Y-3924300I0J88900D01*
G01*
X4451350Y-3924300D02*
X4438650Y-3924300D01*
X4438650Y-3924300D02*
G75*
G03*
X4438650Y-4102100I0J-88900D01*
G01*
D18*
X4356100Y-6159500D02*
X4533900Y-6337300D01*
X4533900Y-6159500D02*
X4356100Y-6337300D01*
X4507862Y-6311262D02*
X4507862Y-6185538D01*
X4382138Y-6185538D01*
X4382138Y-6311262D01*
X4507862Y-6311262D01*
D11*
X4438650Y-6337300D02*
X4451350Y-6337300D01*
X4451350Y-6337300D02*
G75*
G03*
X4451350Y-6159500I0J88900D01*
G01*
X4451350Y-6159500D02*
X4438650Y-6159500D01*
X4438650Y-6159500D02*
G75*
G03*
X4438650Y-6337300I0J-88900D01*
G01*
D18*
X17437100Y-4178300D02*
X17614900Y-4356100D01*
X17614900Y-4178300D02*
X17437100Y-4356100D01*
X17588862Y-4330062D02*
X17588862Y-4204338D01*
X17463138Y-4204338D01*
X17463138Y-4330062D01*
X17588862Y-4330062D01*
D11*
X17532350Y-4178300D02*
X17519650Y-4178300D01*
X17519650Y-4178300D02*
G75*
G03*
X17519650Y-4356100I0J-88900D01*
G01*
X17519650Y-4356100D02*
X17532350Y-4356100D01*
X17532350Y-4356100D02*
G75*
G03*
X17532350Y-4178300I0J88900D01*
G01*
D18*
X17437100Y-6413500D02*
X17614900Y-6591300D01*
X17614900Y-6413500D02*
X17437100Y-6591300D01*
X17588862Y-6565262D02*
X17588862Y-6439538D01*
X17463138Y-6439538D01*
X17463138Y-6565262D01*
X17588862Y-6565262D01*
D11*
X17532350Y-6413500D02*
X17519650Y-6413500D01*
X17519650Y-6413500D02*
G75*
G03*
X17519650Y-6591300I0J-88900D01*
G01*
X17519650Y-6591300D02*
X17532350Y-6591300D01*
X17532350Y-6591300D02*
G75*
G03*
X17532350Y-6413500I0J88900D01*
G01*
X2139919Y-8199224D02*
X2139919Y-7999224D01*
X2139919Y-7999224D02*
X2187538Y-7999224D01*
X2187538Y-7999224D02*
X2216110Y-8008748D01*
X2216110Y-8008748D02*
X2235157Y-8027795D01*
X2235157Y-8027795D02*
X2244681Y-8046843D01*
X2244681Y-8046843D02*
X2254205Y-8084938D01*
X2254205Y-8084938D02*
X2254205Y-8113509D01*
X2254205Y-8113509D02*
X2244681Y-8151605D01*
X2244681Y-8151605D02*
X2235157Y-8170652D01*
X2235157Y-8170652D02*
X2216110Y-8189700D01*
X2216110Y-8189700D02*
X2187538Y-8199224D01*
X2187538Y-8199224D02*
X2139919Y-8199224D01*
X2339919Y-8199224D02*
X2339919Y-8065890D01*
X2339919Y-8103986D02*
X2349443Y-8084938D01*
X2349443Y-8084938D02*
X2358967Y-8075414D01*
X2358967Y-8075414D02*
X2378014Y-8065890D01*
X2378014Y-8065890D02*
X2397062Y-8065890D01*
X2463729Y-8199224D02*
X2463729Y-8065890D01*
X2463729Y-7999224D02*
X2454205Y-8008748D01*
X2454205Y-8008748D02*
X2463729Y-8018271D01*
X2463729Y-8018271D02*
X2473252Y-8008748D01*
X2473252Y-8008748D02*
X2463729Y-7999224D01*
X2463729Y-7999224D02*
X2463729Y-8018271D01*
X2587538Y-8199224D02*
X2568490Y-8189700D01*
X2568490Y-8189700D02*
X2558967Y-8170652D01*
X2558967Y-8170652D02*
X2558967Y-7999224D01*
X2692300Y-8199224D02*
X2673252Y-8189700D01*
X2673252Y-8189700D02*
X2663729Y-8170652D01*
X2663729Y-8170652D02*
X2663729Y-7999224D01*
X2920871Y-8199224D02*
X2920871Y-7999224D01*
X2920871Y-7999224D02*
X2987538Y-8142081D01*
X2987538Y-8142081D02*
X3054205Y-7999224D01*
X3054205Y-7999224D02*
X3054205Y-8199224D01*
X3235157Y-8199224D02*
X3235157Y-8094462D01*
X3235157Y-8094462D02*
X3225633Y-8075414D01*
X3225633Y-8075414D02*
X3206586Y-8065890D01*
X3206586Y-8065890D02*
X3168490Y-8065890D01*
X3168490Y-8065890D02*
X3149443Y-8075414D01*
X3235157Y-8189700D02*
X3216109Y-8199224D01*
X3216109Y-8199224D02*
X3168490Y-8199224D01*
X3168490Y-8199224D02*
X3149443Y-8189700D01*
X3149443Y-8189700D02*
X3139919Y-8170652D01*
X3139919Y-8170652D02*
X3139919Y-8151605D01*
X3139919Y-8151605D02*
X3149443Y-8132557D01*
X3149443Y-8132557D02*
X3168490Y-8123033D01*
X3168490Y-8123033D02*
X3216109Y-8123033D01*
X3216109Y-8123033D02*
X3235157Y-8113509D01*
X3330395Y-8065890D02*
X3330395Y-8265890D01*
X3330395Y-8075414D02*
X3349443Y-8065890D01*
X3349443Y-8065890D02*
X3387538Y-8065890D01*
X3387538Y-8065890D02*
X3406586Y-8075414D01*
X3406586Y-8075414D02*
X3416109Y-8084938D01*
X3416109Y-8084938D02*
X3425633Y-8103986D01*
X3425633Y-8103986D02*
X3425633Y-8161128D01*
X3425633Y-8161128D02*
X3416109Y-8180176D01*
X3416109Y-8180176D02*
X3406586Y-8189700D01*
X3406586Y-8189700D02*
X3387538Y-8199224D01*
X3387538Y-8199224D02*
X3349443Y-8199224D01*
X3349443Y-8199224D02*
X3330395Y-8189700D01*
X3511348Y-8180176D02*
X3520871Y-8189700D01*
X3520871Y-8189700D02*
X3511348Y-8199224D01*
X3511348Y-8199224D02*
X3501824Y-8189700D01*
X3501824Y-8189700D02*
X3511348Y-8180176D01*
X3511348Y-8180176D02*
X3511348Y-8199224D01*
X3511348Y-8075414D02*
X3520871Y-8084938D01*
X3520871Y-8084938D02*
X3511348Y-8094462D01*
X3511348Y-8094462D02*
X3501824Y-8084938D01*
X3501824Y-8084938D02*
X3511348Y-8075414D01*
X3511348Y-8075414D02*
X3511348Y-8094462D01*
D12*
X1854200Y-8507650D02*
X1892300Y-8545750D01*
X1892300Y-8507650D02*
X1854200Y-8545750D01*
D11*
X2178014Y-8419224D02*
X2197062Y-8419224D01*
X2197062Y-8419224D02*
X2216110Y-8428748D01*
X2216110Y-8428748D02*
X2225633Y-8438271D01*
X2225633Y-8438271D02*
X2235157Y-8457319D01*
X2235157Y-8457319D02*
X2244681Y-8495414D01*
X2244681Y-8495414D02*
X2244681Y-8543033D01*
X2244681Y-8543033D02*
X2235157Y-8581129D01*
X2235157Y-8581129D02*
X2225633Y-8600176D01*
X2225633Y-8600176D02*
X2216110Y-8609700D01*
X2216110Y-8609700D02*
X2197062Y-8619224D01*
X2197062Y-8619224D02*
X2178014Y-8619224D01*
X2178014Y-8619224D02*
X2158967Y-8609700D01*
X2158967Y-8609700D02*
X2149443Y-8600176D01*
X2149443Y-8600176D02*
X2139919Y-8581129D01*
X2139919Y-8581129D02*
X2130395Y-8543033D01*
X2130395Y-8543033D02*
X2130395Y-8495414D01*
X2130395Y-8495414D02*
X2139919Y-8457319D01*
X2139919Y-8457319D02*
X2149443Y-8438271D01*
X2149443Y-8438271D02*
X2158967Y-8428748D01*
X2158967Y-8428748D02*
X2178014Y-8419224D01*
X2330395Y-8600176D02*
X2339919Y-8609700D01*
X2339919Y-8609700D02*
X2330395Y-8619224D01*
X2330395Y-8619224D02*
X2320871Y-8609700D01*
X2320871Y-8609700D02*
X2330395Y-8600176D01*
X2330395Y-8600176D02*
X2330395Y-8619224D01*
X2406586Y-8419224D02*
X2530395Y-8419224D01*
X2530395Y-8419224D02*
X2463729Y-8495414D01*
X2463729Y-8495414D02*
X2492300Y-8495414D01*
X2492300Y-8495414D02*
X2511348Y-8504938D01*
X2511348Y-8504938D02*
X2520871Y-8514462D01*
X2520871Y-8514462D02*
X2530395Y-8533510D01*
X2530395Y-8533510D02*
X2530395Y-8581129D01*
X2530395Y-8581129D02*
X2520871Y-8600176D01*
X2520871Y-8600176D02*
X2511348Y-8609700D01*
X2511348Y-8609700D02*
X2492300Y-8619224D01*
X2492300Y-8619224D02*
X2435157Y-8619224D01*
X2435157Y-8619224D02*
X2416110Y-8609700D01*
X2416110Y-8609700D02*
X2406586Y-8600176D01*
X2644681Y-8504938D02*
X2625633Y-8495414D01*
X2625633Y-8495414D02*
X2616110Y-8485890D01*
X2616110Y-8485890D02*
X2606586Y-8466843D01*
X2606586Y-8466843D02*
X2606586Y-8457319D01*
X2606586Y-8457319D02*
X2616110Y-8438271D01*
X2616110Y-8438271D02*
X2625633Y-8428748D01*
X2625633Y-8428748D02*
X2644681Y-8419224D01*
X2644681Y-8419224D02*
X2682776Y-8419224D01*
X2682776Y-8419224D02*
X2701824Y-8428748D01*
X2701824Y-8428748D02*
X2711348Y-8438271D01*
X2711348Y-8438271D02*
X2720871Y-8457319D01*
X2720871Y-8457319D02*
X2720871Y-8466843D01*
X2720871Y-8466843D02*
X2711348Y-8485890D01*
X2711348Y-8485890D02*
X2701824Y-8495414D01*
X2701824Y-8495414D02*
X2682776Y-8504938D01*
X2682776Y-8504938D02*
X2644681Y-8504938D01*
X2644681Y-8504938D02*
X2625633Y-8514462D01*
X2625633Y-8514462D02*
X2616110Y-8523986D01*
X2616110Y-8523986D02*
X2606586Y-8543033D01*
X2606586Y-8543033D02*
X2606586Y-8581129D01*
X2606586Y-8581129D02*
X2616110Y-8600176D01*
X2616110Y-8600176D02*
X2625633Y-8609700D01*
X2625633Y-8609700D02*
X2644681Y-8619224D01*
X2644681Y-8619224D02*
X2682776Y-8619224D01*
X2682776Y-8619224D02*
X2701824Y-8609700D01*
X2701824Y-8609700D02*
X2711348Y-8600176D01*
X2711348Y-8600176D02*
X2720871Y-8581129D01*
X2720871Y-8581129D02*
X2720871Y-8543033D01*
X2720871Y-8543033D02*
X2711348Y-8523986D01*
X2711348Y-8523986D02*
X2701824Y-8514462D01*
X2701824Y-8514462D02*
X2682776Y-8504938D01*
X2911348Y-8619224D02*
X2797062Y-8619224D01*
X2854205Y-8619224D02*
X2854205Y-8419224D01*
X2854205Y-8419224D02*
X2835157Y-8447795D01*
X2835157Y-8447795D02*
X2816109Y-8466843D01*
X2816109Y-8466843D02*
X2797062Y-8476367D01*
X2997062Y-8619224D02*
X2997062Y-8485890D01*
X2997062Y-8504938D02*
X3006586Y-8495414D01*
X3006586Y-8495414D02*
X3025633Y-8485890D01*
X3025633Y-8485890D02*
X3054205Y-8485890D01*
X3054205Y-8485890D02*
X3073252Y-8495414D01*
X3073252Y-8495414D02*
X3082776Y-8514462D01*
X3082776Y-8514462D02*
X3082776Y-8619224D01*
X3082776Y-8514462D02*
X3092300Y-8495414D01*
X3092300Y-8495414D02*
X3111348Y-8485890D01*
X3111348Y-8485890D02*
X3139919Y-8485890D01*
X3139919Y-8485890D02*
X3158967Y-8495414D01*
X3158967Y-8495414D02*
X3168490Y-8514462D01*
X3168490Y-8514462D02*
X3168490Y-8619224D01*
X3263729Y-8619224D02*
X3263729Y-8485890D01*
X3263729Y-8504938D02*
X3273252Y-8495414D01*
X3273252Y-8495414D02*
X3292300Y-8485890D01*
X3292300Y-8485890D02*
X3320871Y-8485890D01*
X3320871Y-8485890D02*
X3339919Y-8495414D01*
X3339919Y-8495414D02*
X3349443Y-8514462D01*
X3349443Y-8514462D02*
X3349443Y-8619224D01*
X3349443Y-8514462D02*
X3358967Y-8495414D01*
X3358967Y-8495414D02*
X3378014Y-8485890D01*
X3378014Y-8485890D02*
X3406586Y-8485890D01*
X3406586Y-8485890D02*
X3425633Y-8495414D01*
X3425633Y-8495414D02*
X3435157Y-8514462D01*
X3435157Y-8514462D02*
X3435157Y-8619224D01*
X3825633Y-8409700D02*
X3654205Y-8666843D01*
X4082776Y-8419224D02*
X4101824Y-8419224D01*
X4101824Y-8419224D02*
X4120872Y-8428748D01*
X4120872Y-8428748D02*
X4130395Y-8438271D01*
X4130395Y-8438271D02*
X4139919Y-8457319D01*
X4139919Y-8457319D02*
X4149443Y-8495414D01*
X4149443Y-8495414D02*
X4149443Y-8543033D01*
X4149443Y-8543033D02*
X4139919Y-8581129D01*
X4139919Y-8581129D02*
X4130395Y-8600176D01*
X4130395Y-8600176D02*
X4120872Y-8609700D01*
X4120872Y-8609700D02*
X4101824Y-8619224D01*
X4101824Y-8619224D02*
X4082776Y-8619224D01*
X4082776Y-8619224D02*
X4063729Y-8609700D01*
X4063729Y-8609700D02*
X4054205Y-8600176D01*
X4054205Y-8600176D02*
X4044681Y-8581129D01*
X4044681Y-8581129D02*
X4035157Y-8543033D01*
X4035157Y-8543033D02*
X4035157Y-8495414D01*
X4035157Y-8495414D02*
X4044681Y-8457319D01*
X4044681Y-8457319D02*
X4054205Y-8438271D01*
X4054205Y-8438271D02*
X4063729Y-8428748D01*
X4063729Y-8428748D02*
X4082776Y-8419224D01*
X4235157Y-8600176D02*
X4244681Y-8609700D01*
X4244681Y-8609700D02*
X4235157Y-8619224D01*
X4235157Y-8619224D02*
X4225634Y-8609700D01*
X4225634Y-8609700D02*
X4235157Y-8600176D01*
X4235157Y-8600176D02*
X4235157Y-8619224D01*
X4368491Y-8419224D02*
X4387538Y-8419224D01*
X4387538Y-8419224D02*
X4406586Y-8428748D01*
X4406586Y-8428748D02*
X4416110Y-8438271D01*
X4416110Y-8438271D02*
X4425634Y-8457319D01*
X4425634Y-8457319D02*
X4435157Y-8495414D01*
X4435157Y-8495414D02*
X4435157Y-8543033D01*
X4435157Y-8543033D02*
X4425634Y-8581129D01*
X4425634Y-8581129D02*
X4416110Y-8600176D01*
X4416110Y-8600176D02*
X4406586Y-8609700D01*
X4406586Y-8609700D02*
X4387538Y-8619224D01*
X4387538Y-8619224D02*
X4368491Y-8619224D01*
X4368491Y-8619224D02*
X4349443Y-8609700D01*
X4349443Y-8609700D02*
X4339919Y-8600176D01*
X4339919Y-8600176D02*
X4330395Y-8581129D01*
X4330395Y-8581129D02*
X4320872Y-8543033D01*
X4320872Y-8543033D02*
X4320872Y-8495414D01*
X4320872Y-8495414D02*
X4330395Y-8457319D01*
X4330395Y-8457319D02*
X4339919Y-8438271D01*
X4339919Y-8438271D02*
X4349443Y-8428748D01*
X4349443Y-8428748D02*
X4368491Y-8419224D01*
X4625634Y-8619224D02*
X4511348Y-8619224D01*
X4568491Y-8619224D02*
X4568491Y-8419224D01*
X4568491Y-8419224D02*
X4549443Y-8447795D01*
X4549443Y-8447795D02*
X4530395Y-8466843D01*
X4530395Y-8466843D02*
X4511348Y-8476367D01*
X4806586Y-8419224D02*
X4711348Y-8419224D01*
X4711348Y-8419224D02*
X4701824Y-8514462D01*
X4701824Y-8514462D02*
X4711348Y-8504938D01*
X4711348Y-8504938D02*
X4730395Y-8495414D01*
X4730395Y-8495414D02*
X4778015Y-8495414D01*
X4778015Y-8495414D02*
X4797062Y-8504938D01*
X4797062Y-8504938D02*
X4806586Y-8514462D01*
X4806586Y-8514462D02*
X4816110Y-8533510D01*
X4816110Y-8533510D02*
X4816110Y-8581129D01*
X4816110Y-8581129D02*
X4806586Y-8600176D01*
X4806586Y-8600176D02*
X4797062Y-8609700D01*
X4797062Y-8609700D02*
X4778015Y-8619224D01*
X4778015Y-8619224D02*
X4730395Y-8619224D01*
X4730395Y-8619224D02*
X4711348Y-8609700D01*
X4711348Y-8609700D02*
X4701824Y-8600176D01*
X4939919Y-8419224D02*
X4958967Y-8419224D01*
X4958967Y-8419224D02*
X4978015Y-8428748D01*
X4978015Y-8428748D02*
X4987538Y-8438271D01*
X4987538Y-8438271D02*
X4997062Y-8457319D01*
X4997062Y-8457319D02*
X5006586Y-8495414D01*
X5006586Y-8495414D02*
X5006586Y-8543033D01*
X5006586Y-8543033D02*
X4997062Y-8581129D01*
X4997062Y-8581129D02*
X4987538Y-8600176D01*
X4987538Y-8600176D02*
X4978015Y-8609700D01*
X4978015Y-8609700D02*
X4958967Y-8619224D01*
X4958967Y-8619224D02*
X4939919Y-8619224D01*
X4939919Y-8619224D02*
X4920872Y-8609700D01*
X4920872Y-8609700D02*
X4911348Y-8600176D01*
X4911348Y-8600176D02*
X4901824Y-8581129D01*
X4901824Y-8581129D02*
X4892300Y-8543033D01*
X4892300Y-8543033D02*
X4892300Y-8495414D01*
X4892300Y-8495414D02*
X4901824Y-8457319D01*
X4901824Y-8457319D02*
X4911348Y-8438271D01*
X4911348Y-8438271D02*
X4920872Y-8428748D01*
X4920872Y-8428748D02*
X4939919Y-8419224D01*
X5082776Y-8419224D02*
X5082776Y-8457319D01*
X5158967Y-8419224D02*
X5158967Y-8457319D01*
X5454205Y-8695414D02*
X5444681Y-8685890D01*
X5444681Y-8685890D02*
X5425634Y-8657319D01*
X5425634Y-8657319D02*
X5416110Y-8638271D01*
X5416110Y-8638271D02*
X5406586Y-8609700D01*
X5406586Y-8609700D02*
X5397062Y-8562081D01*
X5397062Y-8562081D02*
X5397062Y-8523986D01*
X5397062Y-8523986D02*
X5406586Y-8476367D01*
X5406586Y-8476367D02*
X5416110Y-8447795D01*
X5416110Y-8447795D02*
X5425634Y-8428748D01*
X5425634Y-8428748D02*
X5444681Y-8400176D01*
X5444681Y-8400176D02*
X5454205Y-8390652D01*
X5635157Y-8619224D02*
X5520872Y-8619224D01*
X5578015Y-8619224D02*
X5578015Y-8419224D01*
X5578015Y-8419224D02*
X5558967Y-8447795D01*
X5558967Y-8447795D02*
X5539919Y-8466843D01*
X5539919Y-8466843D02*
X5520872Y-8476367D01*
X5806586Y-8485890D02*
X5806586Y-8619224D01*
X5758967Y-8409700D02*
X5711348Y-8552557D01*
X5711348Y-8552557D02*
X5835157Y-8552557D01*
X5892300Y-8419224D02*
X6016110Y-8419224D01*
X6016110Y-8419224D02*
X5949443Y-8495414D01*
X5949443Y-8495414D02*
X5978015Y-8495414D01*
X5978015Y-8495414D02*
X5997062Y-8504938D01*
X5997062Y-8504938D02*
X6006586Y-8514462D01*
X6006586Y-8514462D02*
X6016110Y-8533510D01*
X6016110Y-8533510D02*
X6016110Y-8581129D01*
X6016110Y-8581129D02*
X6006586Y-8600176D01*
X6006586Y-8600176D02*
X5997062Y-8609700D01*
X5997062Y-8609700D02*
X5978015Y-8619224D01*
X5978015Y-8619224D02*
X5920872Y-8619224D01*
X5920872Y-8619224D02*
X5901824Y-8609700D01*
X5901824Y-8609700D02*
X5892300Y-8600176D01*
X6254205Y-8619224D02*
X6254205Y-8419224D01*
X6339919Y-8619224D02*
X6339919Y-8514462D01*
X6339919Y-8514462D02*
X6330396Y-8495414D01*
X6330396Y-8495414D02*
X6311348Y-8485890D01*
X6311348Y-8485890D02*
X6282776Y-8485890D01*
X6282776Y-8485890D02*
X6263729Y-8495414D01*
X6263729Y-8495414D02*
X6254205Y-8504938D01*
X6463729Y-8619224D02*
X6444681Y-8609700D01*
X6444681Y-8609700D02*
X6435157Y-8600176D01*
X6435157Y-8600176D02*
X6425634Y-8581129D01*
X6425634Y-8581129D02*
X6425634Y-8523986D01*
X6425634Y-8523986D02*
X6435157Y-8504938D01*
X6435157Y-8504938D02*
X6444681Y-8495414D01*
X6444681Y-8495414D02*
X6463729Y-8485890D01*
X6463729Y-8485890D02*
X6492300Y-8485890D01*
X6492300Y-8485890D02*
X6511348Y-8495414D01*
X6511348Y-8495414D02*
X6520872Y-8504938D01*
X6520872Y-8504938D02*
X6530396Y-8523986D01*
X6530396Y-8523986D02*
X6530396Y-8581129D01*
X6530396Y-8581129D02*
X6520872Y-8600176D01*
X6520872Y-8600176D02*
X6511348Y-8609700D01*
X6511348Y-8609700D02*
X6492300Y-8619224D01*
X6492300Y-8619224D02*
X6463729Y-8619224D01*
X6644681Y-8619224D02*
X6625634Y-8609700D01*
X6625634Y-8609700D02*
X6616110Y-8590652D01*
X6616110Y-8590652D02*
X6616110Y-8419224D01*
X6797062Y-8609700D02*
X6778015Y-8619224D01*
X6778015Y-8619224D02*
X6739919Y-8619224D01*
X6739919Y-8619224D02*
X6720872Y-8609700D01*
X6720872Y-8609700D02*
X6711348Y-8590652D01*
X6711348Y-8590652D02*
X6711348Y-8514462D01*
X6711348Y-8514462D02*
X6720872Y-8495414D01*
X6720872Y-8495414D02*
X6739919Y-8485890D01*
X6739919Y-8485890D02*
X6778015Y-8485890D01*
X6778015Y-8485890D02*
X6797062Y-8495414D01*
X6797062Y-8495414D02*
X6806586Y-8514462D01*
X6806586Y-8514462D02*
X6806586Y-8533510D01*
X6806586Y-8533510D02*
X6711348Y-8552557D01*
X6882777Y-8609700D02*
X6901824Y-8619224D01*
X6901824Y-8619224D02*
X6939919Y-8619224D01*
X6939919Y-8619224D02*
X6958967Y-8609700D01*
X6958967Y-8609700D02*
X6968491Y-8590652D01*
X6968491Y-8590652D02*
X6968491Y-8581129D01*
X6968491Y-8581129D02*
X6958967Y-8562081D01*
X6958967Y-8562081D02*
X6939919Y-8552557D01*
X6939919Y-8552557D02*
X6911348Y-8552557D01*
X6911348Y-8552557D02*
X6892300Y-8543033D01*
X6892300Y-8543033D02*
X6882777Y-8523986D01*
X6882777Y-8523986D02*
X6882777Y-8514462D01*
X6882777Y-8514462D02*
X6892300Y-8495414D01*
X6892300Y-8495414D02*
X6911348Y-8485890D01*
X6911348Y-8485890D02*
X6939919Y-8485890D01*
X6939919Y-8485890D02*
X6958967Y-8495414D01*
X7035158Y-8695414D02*
X7044681Y-8685890D01*
X7044681Y-8685890D02*
X7063729Y-8657319D01*
X7063729Y-8657319D02*
X7073253Y-8638271D01*
X7073253Y-8638271D02*
X7082777Y-8609700D01*
X7082777Y-8609700D02*
X7092300Y-8562081D01*
X7092300Y-8562081D02*
X7092300Y-8523986D01*
X7092300Y-8523986D02*
X7082777Y-8476367D01*
X7082777Y-8476367D02*
X7073253Y-8447795D01*
X7073253Y-8447795D02*
X7063729Y-8428748D01*
X7063729Y-8428748D02*
X7044681Y-8400176D01*
X7044681Y-8400176D02*
X7035158Y-8390652D01*
D13*
X1892300Y-8790700D02*
G75*
G03*
X1892300Y-8790700I-31750J0D01*
G01*
D11*
X2178014Y-8683224D02*
X2197062Y-8683224D01*
X2197062Y-8683224D02*
X2216110Y-8692748D01*
X2216110Y-8692748D02*
X2225633Y-8702271D01*
X2225633Y-8702271D02*
X2235157Y-8721319D01*
X2235157Y-8721319D02*
X2244681Y-8759414D01*
X2244681Y-8759414D02*
X2244681Y-8807033D01*
X2244681Y-8807033D02*
X2235157Y-8845129D01*
X2235157Y-8845129D02*
X2225633Y-8864176D01*
X2225633Y-8864176D02*
X2216110Y-8873700D01*
X2216110Y-8873700D02*
X2197062Y-8883224D01*
X2197062Y-8883224D02*
X2178014Y-8883224D01*
X2178014Y-8883224D02*
X2158967Y-8873700D01*
X2158967Y-8873700D02*
X2149443Y-8864176D01*
X2149443Y-8864176D02*
X2139919Y-8845129D01*
X2139919Y-8845129D02*
X2130395Y-8807033D01*
X2130395Y-8807033D02*
X2130395Y-8759414D01*
X2130395Y-8759414D02*
X2139919Y-8721319D01*
X2139919Y-8721319D02*
X2149443Y-8702271D01*
X2149443Y-8702271D02*
X2158967Y-8692748D01*
X2158967Y-8692748D02*
X2178014Y-8683224D01*
X2330395Y-8864176D02*
X2339919Y-8873700D01*
X2339919Y-8873700D02*
X2330395Y-8883224D01*
X2330395Y-8883224D02*
X2320871Y-8873700D01*
X2320871Y-8873700D02*
X2330395Y-8864176D01*
X2330395Y-8864176D02*
X2330395Y-8883224D01*
X2511348Y-8683224D02*
X2473252Y-8683224D01*
X2473252Y-8683224D02*
X2454205Y-8692748D01*
X2454205Y-8692748D02*
X2444681Y-8702271D01*
X2444681Y-8702271D02*
X2425633Y-8730843D01*
X2425633Y-8730843D02*
X2416110Y-8768938D01*
X2416110Y-8768938D02*
X2416110Y-8845129D01*
X2416110Y-8845129D02*
X2425633Y-8864176D01*
X2425633Y-8864176D02*
X2435157Y-8873700D01*
X2435157Y-8873700D02*
X2454205Y-8883224D01*
X2454205Y-8883224D02*
X2492300Y-8883224D01*
X2492300Y-8883224D02*
X2511348Y-8873700D01*
X2511348Y-8873700D02*
X2520871Y-8864176D01*
X2520871Y-8864176D02*
X2530395Y-8845129D01*
X2530395Y-8845129D02*
X2530395Y-8797510D01*
X2530395Y-8797510D02*
X2520871Y-8778462D01*
X2520871Y-8778462D02*
X2511348Y-8768938D01*
X2511348Y-8768938D02*
X2492300Y-8759414D01*
X2492300Y-8759414D02*
X2454205Y-8759414D01*
X2454205Y-8759414D02*
X2435157Y-8768938D01*
X2435157Y-8768938D02*
X2425633Y-8778462D01*
X2425633Y-8778462D02*
X2416110Y-8797510D01*
X2597062Y-8683224D02*
X2720871Y-8683224D01*
X2720871Y-8683224D02*
X2654205Y-8759414D01*
X2654205Y-8759414D02*
X2682776Y-8759414D01*
X2682776Y-8759414D02*
X2701824Y-8768938D01*
X2701824Y-8768938D02*
X2711348Y-8778462D01*
X2711348Y-8778462D02*
X2720871Y-8797510D01*
X2720871Y-8797510D02*
X2720871Y-8845129D01*
X2720871Y-8845129D02*
X2711348Y-8864176D01*
X2711348Y-8864176D02*
X2701824Y-8873700D01*
X2701824Y-8873700D02*
X2682776Y-8883224D01*
X2682776Y-8883224D02*
X2625633Y-8883224D01*
X2625633Y-8883224D02*
X2606586Y-8873700D01*
X2606586Y-8873700D02*
X2597062Y-8864176D01*
X2901824Y-8683224D02*
X2806586Y-8683224D01*
X2806586Y-8683224D02*
X2797062Y-8778462D01*
X2797062Y-8778462D02*
X2806586Y-8768938D01*
X2806586Y-8768938D02*
X2825633Y-8759414D01*
X2825633Y-8759414D02*
X2873252Y-8759414D01*
X2873252Y-8759414D02*
X2892300Y-8768938D01*
X2892300Y-8768938D02*
X2901824Y-8778462D01*
X2901824Y-8778462D02*
X2911348Y-8797510D01*
X2911348Y-8797510D02*
X2911348Y-8845129D01*
X2911348Y-8845129D02*
X2901824Y-8864176D01*
X2901824Y-8864176D02*
X2892300Y-8873700D01*
X2892300Y-8873700D02*
X2873252Y-8883224D01*
X2873252Y-8883224D02*
X2825633Y-8883224D01*
X2825633Y-8883224D02*
X2806586Y-8873700D01*
X2806586Y-8873700D02*
X2797062Y-8864176D01*
X2997062Y-8883224D02*
X2997062Y-8749890D01*
X2997062Y-8768938D02*
X3006586Y-8759414D01*
X3006586Y-8759414D02*
X3025633Y-8749890D01*
X3025633Y-8749890D02*
X3054205Y-8749890D01*
X3054205Y-8749890D02*
X3073252Y-8759414D01*
X3073252Y-8759414D02*
X3082776Y-8778462D01*
X3082776Y-8778462D02*
X3082776Y-8883224D01*
X3082776Y-8778462D02*
X3092300Y-8759414D01*
X3092300Y-8759414D02*
X3111348Y-8749890D01*
X3111348Y-8749890D02*
X3139919Y-8749890D01*
X3139919Y-8749890D02*
X3158967Y-8759414D01*
X3158967Y-8759414D02*
X3168490Y-8778462D01*
X3168490Y-8778462D02*
X3168490Y-8883224D01*
X3263729Y-8883224D02*
X3263729Y-8749890D01*
X3263729Y-8768938D02*
X3273252Y-8759414D01*
X3273252Y-8759414D02*
X3292300Y-8749890D01*
X3292300Y-8749890D02*
X3320871Y-8749890D01*
X3320871Y-8749890D02*
X3339919Y-8759414D01*
X3339919Y-8759414D02*
X3349443Y-8778462D01*
X3349443Y-8778462D02*
X3349443Y-8883224D01*
X3349443Y-8778462D02*
X3358967Y-8759414D01*
X3358967Y-8759414D02*
X3378014Y-8749890D01*
X3378014Y-8749890D02*
X3406586Y-8749890D01*
X3406586Y-8749890D02*
X3425633Y-8759414D01*
X3425633Y-8759414D02*
X3435157Y-8778462D01*
X3435157Y-8778462D02*
X3435157Y-8883224D01*
X3825633Y-8673700D02*
X3654205Y-8930843D01*
X4082776Y-8683224D02*
X4101824Y-8683224D01*
X4101824Y-8683224D02*
X4120872Y-8692748D01*
X4120872Y-8692748D02*
X4130395Y-8702271D01*
X4130395Y-8702271D02*
X4139919Y-8721319D01*
X4139919Y-8721319D02*
X4149443Y-8759414D01*
X4149443Y-8759414D02*
X4149443Y-8807033D01*
X4149443Y-8807033D02*
X4139919Y-8845129D01*
X4139919Y-8845129D02*
X4130395Y-8864176D01*
X4130395Y-8864176D02*
X4120872Y-8873700D01*
X4120872Y-8873700D02*
X4101824Y-8883224D01*
X4101824Y-8883224D02*
X4082776Y-8883224D01*
X4082776Y-8883224D02*
X4063729Y-8873700D01*
X4063729Y-8873700D02*
X4054205Y-8864176D01*
X4054205Y-8864176D02*
X4044681Y-8845129D01*
X4044681Y-8845129D02*
X4035157Y-8807033D01*
X4035157Y-8807033D02*
X4035157Y-8759414D01*
X4035157Y-8759414D02*
X4044681Y-8721319D01*
X4044681Y-8721319D02*
X4054205Y-8702271D01*
X4054205Y-8702271D02*
X4063729Y-8692748D01*
X4063729Y-8692748D02*
X4082776Y-8683224D01*
X4235157Y-8864176D02*
X4244681Y-8873700D01*
X4244681Y-8873700D02*
X4235157Y-8883224D01*
X4235157Y-8883224D02*
X4225634Y-8873700D01*
X4225634Y-8873700D02*
X4235157Y-8864176D01*
X4235157Y-8864176D02*
X4235157Y-8883224D01*
X4368491Y-8683224D02*
X4387538Y-8683224D01*
X4387538Y-8683224D02*
X4406586Y-8692748D01*
X4406586Y-8692748D02*
X4416110Y-8702271D01*
X4416110Y-8702271D02*
X4425634Y-8721319D01*
X4425634Y-8721319D02*
X4435157Y-8759414D01*
X4435157Y-8759414D02*
X4435157Y-8807033D01*
X4435157Y-8807033D02*
X4425634Y-8845129D01*
X4425634Y-8845129D02*
X4416110Y-8864176D01*
X4416110Y-8864176D02*
X4406586Y-8873700D01*
X4406586Y-8873700D02*
X4387538Y-8883224D01*
X4387538Y-8883224D02*
X4368491Y-8883224D01*
X4368491Y-8883224D02*
X4349443Y-8873700D01*
X4349443Y-8873700D02*
X4339919Y-8864176D01*
X4339919Y-8864176D02*
X4330395Y-8845129D01*
X4330395Y-8845129D02*
X4320872Y-8807033D01*
X4320872Y-8807033D02*
X4320872Y-8759414D01*
X4320872Y-8759414D02*
X4330395Y-8721319D01*
X4330395Y-8721319D02*
X4339919Y-8702271D01*
X4339919Y-8702271D02*
X4349443Y-8692748D01*
X4349443Y-8692748D02*
X4368491Y-8683224D01*
X4511348Y-8702271D02*
X4520872Y-8692748D01*
X4520872Y-8692748D02*
X4539919Y-8683224D01*
X4539919Y-8683224D02*
X4587538Y-8683224D01*
X4587538Y-8683224D02*
X4606586Y-8692748D01*
X4606586Y-8692748D02*
X4616110Y-8702271D01*
X4616110Y-8702271D02*
X4625634Y-8721319D01*
X4625634Y-8721319D02*
X4625634Y-8740367D01*
X4625634Y-8740367D02*
X4616110Y-8768938D01*
X4616110Y-8768938D02*
X4501824Y-8883224D01*
X4501824Y-8883224D02*
X4625634Y-8883224D01*
X4806586Y-8683224D02*
X4711348Y-8683224D01*
X4711348Y-8683224D02*
X4701824Y-8778462D01*
X4701824Y-8778462D02*
X4711348Y-8768938D01*
X4711348Y-8768938D02*
X4730395Y-8759414D01*
X4730395Y-8759414D02*
X4778015Y-8759414D01*
X4778015Y-8759414D02*
X4797062Y-8768938D01*
X4797062Y-8768938D02*
X4806586Y-8778462D01*
X4806586Y-8778462D02*
X4816110Y-8797510D01*
X4816110Y-8797510D02*
X4816110Y-8845129D01*
X4816110Y-8845129D02*
X4806586Y-8864176D01*
X4806586Y-8864176D02*
X4797062Y-8873700D01*
X4797062Y-8873700D02*
X4778015Y-8883224D01*
X4778015Y-8883224D02*
X4730395Y-8883224D01*
X4730395Y-8883224D02*
X4711348Y-8873700D01*
X4711348Y-8873700D02*
X4701824Y-8864176D01*
X4939919Y-8683224D02*
X4958967Y-8683224D01*
X4958967Y-8683224D02*
X4978015Y-8692748D01*
X4978015Y-8692748D02*
X4987538Y-8702271D01*
X4987538Y-8702271D02*
X4997062Y-8721319D01*
X4997062Y-8721319D02*
X5006586Y-8759414D01*
X5006586Y-8759414D02*
X5006586Y-8807033D01*
X5006586Y-8807033D02*
X4997062Y-8845129D01*
X4997062Y-8845129D02*
X4987538Y-8864176D01*
X4987538Y-8864176D02*
X4978015Y-8873700D01*
X4978015Y-8873700D02*
X4958967Y-8883224D01*
X4958967Y-8883224D02*
X4939919Y-8883224D01*
X4939919Y-8883224D02*
X4920872Y-8873700D01*
X4920872Y-8873700D02*
X4911348Y-8864176D01*
X4911348Y-8864176D02*
X4901824Y-8845129D01*
X4901824Y-8845129D02*
X4892300Y-8807033D01*
X4892300Y-8807033D02*
X4892300Y-8759414D01*
X4892300Y-8759414D02*
X4901824Y-8721319D01*
X4901824Y-8721319D02*
X4911348Y-8702271D01*
X4911348Y-8702271D02*
X4920872Y-8692748D01*
X4920872Y-8692748D02*
X4939919Y-8683224D01*
X5082776Y-8683224D02*
X5082776Y-8721319D01*
X5158967Y-8683224D02*
X5158967Y-8721319D01*
X5454205Y-8959414D02*
X5444681Y-8949890D01*
X5444681Y-8949890D02*
X5425634Y-8921319D01*
X5425634Y-8921319D02*
X5416110Y-8902271D01*
X5416110Y-8902271D02*
X5406586Y-8873700D01*
X5406586Y-8873700D02*
X5397062Y-8826081D01*
X5397062Y-8826081D02*
X5397062Y-8787986D01*
X5397062Y-8787986D02*
X5406586Y-8740367D01*
X5406586Y-8740367D02*
X5416110Y-8711795D01*
X5416110Y-8711795D02*
X5425634Y-8692748D01*
X5425634Y-8692748D02*
X5444681Y-8664176D01*
X5444681Y-8664176D02*
X5454205Y-8654652D01*
X5511348Y-8683224D02*
X5635157Y-8683224D01*
X5635157Y-8683224D02*
X5568491Y-8759414D01*
X5568491Y-8759414D02*
X5597062Y-8759414D01*
X5597062Y-8759414D02*
X5616110Y-8768938D01*
X5616110Y-8768938D02*
X5625634Y-8778462D01*
X5625634Y-8778462D02*
X5635157Y-8797510D01*
X5635157Y-8797510D02*
X5635157Y-8845129D01*
X5635157Y-8845129D02*
X5625634Y-8864176D01*
X5625634Y-8864176D02*
X5616110Y-8873700D01*
X5616110Y-8873700D02*
X5597062Y-8883224D01*
X5597062Y-8883224D02*
X5539919Y-8883224D01*
X5539919Y-8883224D02*
X5520872Y-8873700D01*
X5520872Y-8873700D02*
X5511348Y-8864176D01*
X5873253Y-8883224D02*
X5873253Y-8683224D01*
X5958967Y-8883224D02*
X5958967Y-8778462D01*
X5958967Y-8778462D02*
X5949443Y-8759414D01*
X5949443Y-8759414D02*
X5930396Y-8749890D01*
X5930396Y-8749890D02*
X5901824Y-8749890D01*
X5901824Y-8749890D02*
X5882776Y-8759414D01*
X5882776Y-8759414D02*
X5873253Y-8768938D01*
X6082776Y-8883224D02*
X6063729Y-8873700D01*
X6063729Y-8873700D02*
X6054205Y-8864176D01*
X6054205Y-8864176D02*
X6044681Y-8845129D01*
X6044681Y-8845129D02*
X6044681Y-8787986D01*
X6044681Y-8787986D02*
X6054205Y-8768938D01*
X6054205Y-8768938D02*
X6063729Y-8759414D01*
X6063729Y-8759414D02*
X6082776Y-8749890D01*
X6082776Y-8749890D02*
X6111348Y-8749890D01*
X6111348Y-8749890D02*
X6130396Y-8759414D01*
X6130396Y-8759414D02*
X6139919Y-8768938D01*
X6139919Y-8768938D02*
X6149443Y-8787986D01*
X6149443Y-8787986D02*
X6149443Y-8845129D01*
X6149443Y-8845129D02*
X6139919Y-8864176D01*
X6139919Y-8864176D02*
X6130396Y-8873700D01*
X6130396Y-8873700D02*
X6111348Y-8883224D01*
X6111348Y-8883224D02*
X6082776Y-8883224D01*
X6263729Y-8883224D02*
X6244681Y-8873700D01*
X6244681Y-8873700D02*
X6235157Y-8854652D01*
X6235157Y-8854652D02*
X6235157Y-8683224D01*
X6416110Y-8873700D02*
X6397062Y-8883224D01*
X6397062Y-8883224D02*
X6358967Y-8883224D01*
X6358967Y-8883224D02*
X6339919Y-8873700D01*
X6339919Y-8873700D02*
X6330396Y-8854652D01*
X6330396Y-8854652D02*
X6330396Y-8778462D01*
X6330396Y-8778462D02*
X6339919Y-8759414D01*
X6339919Y-8759414D02*
X6358967Y-8749890D01*
X6358967Y-8749890D02*
X6397062Y-8749890D01*
X6397062Y-8749890D02*
X6416110Y-8759414D01*
X6416110Y-8759414D02*
X6425634Y-8778462D01*
X6425634Y-8778462D02*
X6425634Y-8797510D01*
X6425634Y-8797510D02*
X6330396Y-8816557D01*
X6501824Y-8873700D02*
X6520872Y-8883224D01*
X6520872Y-8883224D02*
X6558967Y-8883224D01*
X6558967Y-8883224D02*
X6578015Y-8873700D01*
X6578015Y-8873700D02*
X6587538Y-8854652D01*
X6587538Y-8854652D02*
X6587538Y-8845129D01*
X6587538Y-8845129D02*
X6578015Y-8826081D01*
X6578015Y-8826081D02*
X6558967Y-8816557D01*
X6558967Y-8816557D02*
X6530396Y-8816557D01*
X6530396Y-8816557D02*
X6511348Y-8807033D01*
X6511348Y-8807033D02*
X6501824Y-8787986D01*
X6501824Y-8787986D02*
X6501824Y-8778462D01*
X6501824Y-8778462D02*
X6511348Y-8759414D01*
X6511348Y-8759414D02*
X6530396Y-8749890D01*
X6530396Y-8749890D02*
X6558967Y-8749890D01*
X6558967Y-8749890D02*
X6578015Y-8759414D01*
X6654205Y-8959414D02*
X6663729Y-8949890D01*
X6663729Y-8949890D02*
X6682777Y-8921319D01*
X6682777Y-8921319D02*
X6692300Y-8902271D01*
X6692300Y-8902271D02*
X6701824Y-8873700D01*
X6701824Y-8873700D02*
X6711348Y-8826081D01*
X6711348Y-8826081D02*
X6711348Y-8787986D01*
X6711348Y-8787986D02*
X6701824Y-8740367D01*
X6701824Y-8740367D02*
X6692300Y-8711795D01*
X6692300Y-8711795D02*
X6682777Y-8692748D01*
X6682777Y-8692748D02*
X6663729Y-8664176D01*
X6663729Y-8664176D02*
X6654205Y-8654652D01*
D14*
X1841500Y-9003900D02*
X1841500Y-9105500D01*
X1790700Y-9054700D02*
X1892300Y-9054700D01*
D11*
X2244681Y-9147224D02*
X2130395Y-9147224D01*
X2187538Y-9147224D02*
X2187538Y-8947224D01*
X2187538Y-8947224D02*
X2168490Y-8975795D01*
X2168490Y-8975795D02*
X2149443Y-8994843D01*
X2149443Y-8994843D02*
X2130395Y-9004367D01*
X2330395Y-9128176D02*
X2339919Y-9137700D01*
X2339919Y-9137700D02*
X2330395Y-9147224D01*
X2330395Y-9147224D02*
X2320871Y-9137700D01*
X2320871Y-9137700D02*
X2330395Y-9128176D01*
X2330395Y-9128176D02*
X2330395Y-9147224D01*
X2463729Y-8947224D02*
X2482776Y-8947224D01*
X2482776Y-8947224D02*
X2501824Y-8956748D01*
X2501824Y-8956748D02*
X2511348Y-8966271D01*
X2511348Y-8966271D02*
X2520871Y-8985319D01*
X2520871Y-8985319D02*
X2530395Y-9023414D01*
X2530395Y-9023414D02*
X2530395Y-9071033D01*
X2530395Y-9071033D02*
X2520871Y-9109129D01*
X2520871Y-9109129D02*
X2511348Y-9128176D01*
X2511348Y-9128176D02*
X2501824Y-9137700D01*
X2501824Y-9137700D02*
X2482776Y-9147224D01*
X2482776Y-9147224D02*
X2463729Y-9147224D01*
X2463729Y-9147224D02*
X2444681Y-9137700D01*
X2444681Y-9137700D02*
X2435157Y-9128176D01*
X2435157Y-9128176D02*
X2425633Y-9109129D01*
X2425633Y-9109129D02*
X2416110Y-9071033D01*
X2416110Y-9071033D02*
X2416110Y-9023414D01*
X2416110Y-9023414D02*
X2425633Y-8985319D01*
X2425633Y-8985319D02*
X2435157Y-8966271D01*
X2435157Y-8966271D02*
X2444681Y-8956748D01*
X2444681Y-8956748D02*
X2463729Y-8947224D01*
X2720871Y-9147224D02*
X2606586Y-9147224D01*
X2663729Y-9147224D02*
X2663729Y-8947224D01*
X2663729Y-8947224D02*
X2644681Y-8975795D01*
X2644681Y-8975795D02*
X2625633Y-8994843D01*
X2625633Y-8994843D02*
X2606586Y-9004367D01*
X2892300Y-8947224D02*
X2854205Y-8947224D01*
X2854205Y-8947224D02*
X2835157Y-8956748D01*
X2835157Y-8956748D02*
X2825633Y-8966271D01*
X2825633Y-8966271D02*
X2806586Y-8994843D01*
X2806586Y-8994843D02*
X2797062Y-9032938D01*
X2797062Y-9032938D02*
X2797062Y-9109129D01*
X2797062Y-9109129D02*
X2806586Y-9128176D01*
X2806586Y-9128176D02*
X2816109Y-9137700D01*
X2816109Y-9137700D02*
X2835157Y-9147224D01*
X2835157Y-9147224D02*
X2873252Y-9147224D01*
X2873252Y-9147224D02*
X2892300Y-9137700D01*
X2892300Y-9137700D02*
X2901824Y-9128176D01*
X2901824Y-9128176D02*
X2911348Y-9109129D01*
X2911348Y-9109129D02*
X2911348Y-9061510D01*
X2911348Y-9061510D02*
X2901824Y-9042462D01*
X2901824Y-9042462D02*
X2892300Y-9032938D01*
X2892300Y-9032938D02*
X2873252Y-9023414D01*
X2873252Y-9023414D02*
X2835157Y-9023414D01*
X2835157Y-9023414D02*
X2816109Y-9032938D01*
X2816109Y-9032938D02*
X2806586Y-9042462D01*
X2806586Y-9042462D02*
X2797062Y-9061510D01*
X2997062Y-9147224D02*
X2997062Y-9013890D01*
X2997062Y-9032938D02*
X3006586Y-9023414D01*
X3006586Y-9023414D02*
X3025633Y-9013890D01*
X3025633Y-9013890D02*
X3054205Y-9013890D01*
X3054205Y-9013890D02*
X3073252Y-9023414D01*
X3073252Y-9023414D02*
X3082776Y-9042462D01*
X3082776Y-9042462D02*
X3082776Y-9147224D01*
X3082776Y-9042462D02*
X3092300Y-9023414D01*
X3092300Y-9023414D02*
X3111348Y-9013890D01*
X3111348Y-9013890D02*
X3139919Y-9013890D01*
X3139919Y-9013890D02*
X3158967Y-9023414D01*
X3158967Y-9023414D02*
X3168490Y-9042462D01*
X3168490Y-9042462D02*
X3168490Y-9147224D01*
X3263729Y-9147224D02*
X3263729Y-9013890D01*
X3263729Y-9032938D02*
X3273252Y-9023414D01*
X3273252Y-9023414D02*
X3292300Y-9013890D01*
X3292300Y-9013890D02*
X3320871Y-9013890D01*
X3320871Y-9013890D02*
X3339919Y-9023414D01*
X3339919Y-9023414D02*
X3349443Y-9042462D01*
X3349443Y-9042462D02*
X3349443Y-9147224D01*
X3349443Y-9042462D02*
X3358967Y-9023414D01*
X3358967Y-9023414D02*
X3378014Y-9013890D01*
X3378014Y-9013890D02*
X3406586Y-9013890D01*
X3406586Y-9013890D02*
X3425633Y-9023414D01*
X3425633Y-9023414D02*
X3435157Y-9042462D01*
X3435157Y-9042462D02*
X3435157Y-9147224D01*
X3825633Y-8937700D02*
X3654205Y-9194843D01*
X4082776Y-8947224D02*
X4101824Y-8947224D01*
X4101824Y-8947224D02*
X4120872Y-8956748D01*
X4120872Y-8956748D02*
X4130395Y-8966271D01*
X4130395Y-8966271D02*
X4139919Y-8985319D01*
X4139919Y-8985319D02*
X4149443Y-9023414D01*
X4149443Y-9023414D02*
X4149443Y-9071033D01*
X4149443Y-9071033D02*
X4139919Y-9109129D01*
X4139919Y-9109129D02*
X4130395Y-9128176D01*
X4130395Y-9128176D02*
X4120872Y-9137700D01*
X4120872Y-9137700D02*
X4101824Y-9147224D01*
X4101824Y-9147224D02*
X4082776Y-9147224D01*
X4082776Y-9147224D02*
X4063729Y-9137700D01*
X4063729Y-9137700D02*
X4054205Y-9128176D01*
X4054205Y-9128176D02*
X4044681Y-9109129D01*
X4044681Y-9109129D02*
X4035157Y-9071033D01*
X4035157Y-9071033D02*
X4035157Y-9023414D01*
X4035157Y-9023414D02*
X4044681Y-8985319D01*
X4044681Y-8985319D02*
X4054205Y-8966271D01*
X4054205Y-8966271D02*
X4063729Y-8956748D01*
X4063729Y-8956748D02*
X4082776Y-8947224D01*
X4235157Y-9128176D02*
X4244681Y-9137700D01*
X4244681Y-9137700D02*
X4235157Y-9147224D01*
X4235157Y-9147224D02*
X4225634Y-9137700D01*
X4225634Y-9137700D02*
X4235157Y-9128176D01*
X4235157Y-9128176D02*
X4235157Y-9147224D01*
X4368491Y-8947224D02*
X4387538Y-8947224D01*
X4387538Y-8947224D02*
X4406586Y-8956748D01*
X4406586Y-8956748D02*
X4416110Y-8966271D01*
X4416110Y-8966271D02*
X4425634Y-8985319D01*
X4425634Y-8985319D02*
X4435157Y-9023414D01*
X4435157Y-9023414D02*
X4435157Y-9071033D01*
X4435157Y-9071033D02*
X4425634Y-9109129D01*
X4425634Y-9109129D02*
X4416110Y-9128176D01*
X4416110Y-9128176D02*
X4406586Y-9137700D01*
X4406586Y-9137700D02*
X4387538Y-9147224D01*
X4387538Y-9147224D02*
X4368491Y-9147224D01*
X4368491Y-9147224D02*
X4349443Y-9137700D01*
X4349443Y-9137700D02*
X4339919Y-9128176D01*
X4339919Y-9128176D02*
X4330395Y-9109129D01*
X4330395Y-9109129D02*
X4320872Y-9071033D01*
X4320872Y-9071033D02*
X4320872Y-9023414D01*
X4320872Y-9023414D02*
X4330395Y-8985319D01*
X4330395Y-8985319D02*
X4339919Y-8966271D01*
X4339919Y-8966271D02*
X4349443Y-8956748D01*
X4349443Y-8956748D02*
X4368491Y-8947224D01*
X4606586Y-9013890D02*
X4606586Y-9147224D01*
X4558967Y-8937700D02*
X4511348Y-9080557D01*
X4511348Y-9080557D02*
X4635157Y-9080557D01*
X4749443Y-8947224D02*
X4768491Y-8947224D01*
X4768491Y-8947224D02*
X4787538Y-8956748D01*
X4787538Y-8956748D02*
X4797062Y-8966271D01*
X4797062Y-8966271D02*
X4806586Y-8985319D01*
X4806586Y-8985319D02*
X4816110Y-9023414D01*
X4816110Y-9023414D02*
X4816110Y-9071033D01*
X4816110Y-9071033D02*
X4806586Y-9109129D01*
X4806586Y-9109129D02*
X4797062Y-9128176D01*
X4797062Y-9128176D02*
X4787538Y-9137700D01*
X4787538Y-9137700D02*
X4768491Y-9147224D01*
X4768491Y-9147224D02*
X4749443Y-9147224D01*
X4749443Y-9147224D02*
X4730395Y-9137700D01*
X4730395Y-9137700D02*
X4720872Y-9128176D01*
X4720872Y-9128176D02*
X4711348Y-9109129D01*
X4711348Y-9109129D02*
X4701824Y-9071033D01*
X4701824Y-9071033D02*
X4701824Y-9023414D01*
X4701824Y-9023414D02*
X4711348Y-8985319D01*
X4711348Y-8985319D02*
X4720872Y-8966271D01*
X4720872Y-8966271D02*
X4730395Y-8956748D01*
X4730395Y-8956748D02*
X4749443Y-8947224D01*
X4939919Y-8947224D02*
X4958967Y-8947224D01*
X4958967Y-8947224D02*
X4978015Y-8956748D01*
X4978015Y-8956748D02*
X4987538Y-8966271D01*
X4987538Y-8966271D02*
X4997062Y-8985319D01*
X4997062Y-8985319D02*
X5006586Y-9023414D01*
X5006586Y-9023414D02*
X5006586Y-9071033D01*
X5006586Y-9071033D02*
X4997062Y-9109129D01*
X4997062Y-9109129D02*
X4987538Y-9128176D01*
X4987538Y-9128176D02*
X4978015Y-9137700D01*
X4978015Y-9137700D02*
X4958967Y-9147224D01*
X4958967Y-9147224D02*
X4939919Y-9147224D01*
X4939919Y-9147224D02*
X4920872Y-9137700D01*
X4920872Y-9137700D02*
X4911348Y-9128176D01*
X4911348Y-9128176D02*
X4901824Y-9109129D01*
X4901824Y-9109129D02*
X4892300Y-9071033D01*
X4892300Y-9071033D02*
X4892300Y-9023414D01*
X4892300Y-9023414D02*
X4901824Y-8985319D01*
X4901824Y-8985319D02*
X4911348Y-8966271D01*
X4911348Y-8966271D02*
X4920872Y-8956748D01*
X4920872Y-8956748D02*
X4939919Y-8947224D01*
X5082776Y-8947224D02*
X5082776Y-8985319D01*
X5158967Y-8947224D02*
X5158967Y-8985319D01*
X5454205Y-9223414D02*
X5444681Y-9213890D01*
X5444681Y-9213890D02*
X5425634Y-9185319D01*
X5425634Y-9185319D02*
X5416110Y-9166271D01*
X5416110Y-9166271D02*
X5406586Y-9137700D01*
X5406586Y-9137700D02*
X5397062Y-9090081D01*
X5397062Y-9090081D02*
X5397062Y-9051986D01*
X5397062Y-9051986D02*
X5406586Y-9004367D01*
X5406586Y-9004367D02*
X5416110Y-8975795D01*
X5416110Y-8975795D02*
X5425634Y-8956748D01*
X5425634Y-8956748D02*
X5444681Y-8928176D01*
X5444681Y-8928176D02*
X5454205Y-8918652D01*
X5520872Y-8966271D02*
X5530396Y-8956748D01*
X5530396Y-8956748D02*
X5549443Y-8947224D01*
X5549443Y-8947224D02*
X5597062Y-8947224D01*
X5597062Y-8947224D02*
X5616110Y-8956748D01*
X5616110Y-8956748D02*
X5625634Y-8966271D01*
X5625634Y-8966271D02*
X5635157Y-8985319D01*
X5635157Y-8985319D02*
X5635157Y-9004367D01*
X5635157Y-9004367D02*
X5625634Y-9032938D01*
X5625634Y-9032938D02*
X5511348Y-9147224D01*
X5511348Y-9147224D02*
X5635157Y-9147224D01*
X5873253Y-9147224D02*
X5873253Y-8947224D01*
X5958967Y-9147224D02*
X5958967Y-9042462D01*
X5958967Y-9042462D02*
X5949443Y-9023414D01*
X5949443Y-9023414D02*
X5930396Y-9013890D01*
X5930396Y-9013890D02*
X5901824Y-9013890D01*
X5901824Y-9013890D02*
X5882776Y-9023414D01*
X5882776Y-9023414D02*
X5873253Y-9032938D01*
X6082776Y-9147224D02*
X6063729Y-9137700D01*
X6063729Y-9137700D02*
X6054205Y-9128176D01*
X6054205Y-9128176D02*
X6044681Y-9109129D01*
X6044681Y-9109129D02*
X6044681Y-9051986D01*
X6044681Y-9051986D02*
X6054205Y-9032938D01*
X6054205Y-9032938D02*
X6063729Y-9023414D01*
X6063729Y-9023414D02*
X6082776Y-9013890D01*
X6082776Y-9013890D02*
X6111348Y-9013890D01*
X6111348Y-9013890D02*
X6130396Y-9023414D01*
X6130396Y-9023414D02*
X6139919Y-9032938D01*
X6139919Y-9032938D02*
X6149443Y-9051986D01*
X6149443Y-9051986D02*
X6149443Y-9109129D01*
X6149443Y-9109129D02*
X6139919Y-9128176D01*
X6139919Y-9128176D02*
X6130396Y-9137700D01*
X6130396Y-9137700D02*
X6111348Y-9147224D01*
X6111348Y-9147224D02*
X6082776Y-9147224D01*
X6263729Y-9147224D02*
X6244681Y-9137700D01*
X6244681Y-9137700D02*
X6235157Y-9118652D01*
X6235157Y-9118652D02*
X6235157Y-8947224D01*
X6416110Y-9137700D02*
X6397062Y-9147224D01*
X6397062Y-9147224D02*
X6358967Y-9147224D01*
X6358967Y-9147224D02*
X6339919Y-9137700D01*
X6339919Y-9137700D02*
X6330396Y-9118652D01*
X6330396Y-9118652D02*
X6330396Y-9042462D01*
X6330396Y-9042462D02*
X6339919Y-9023414D01*
X6339919Y-9023414D02*
X6358967Y-9013890D01*
X6358967Y-9013890D02*
X6397062Y-9013890D01*
X6397062Y-9013890D02*
X6416110Y-9023414D01*
X6416110Y-9023414D02*
X6425634Y-9042462D01*
X6425634Y-9042462D02*
X6425634Y-9061510D01*
X6425634Y-9061510D02*
X6330396Y-9080557D01*
X6501824Y-9137700D02*
X6520872Y-9147224D01*
X6520872Y-9147224D02*
X6558967Y-9147224D01*
X6558967Y-9147224D02*
X6578015Y-9137700D01*
X6578015Y-9137700D02*
X6587538Y-9118652D01*
X6587538Y-9118652D02*
X6587538Y-9109129D01*
X6587538Y-9109129D02*
X6578015Y-9090081D01*
X6578015Y-9090081D02*
X6558967Y-9080557D01*
X6558967Y-9080557D02*
X6530396Y-9080557D01*
X6530396Y-9080557D02*
X6511348Y-9071033D01*
X6511348Y-9071033D02*
X6501824Y-9051986D01*
X6501824Y-9051986D02*
X6501824Y-9042462D01*
X6501824Y-9042462D02*
X6511348Y-9023414D01*
X6511348Y-9023414D02*
X6530396Y-9013890D01*
X6530396Y-9013890D02*
X6558967Y-9013890D01*
X6558967Y-9013890D02*
X6578015Y-9023414D01*
X6654205Y-9223414D02*
X6663729Y-9213890D01*
X6663729Y-9213890D02*
X6682777Y-9185319D01*
X6682777Y-9185319D02*
X6692300Y-9166271D01*
X6692300Y-9166271D02*
X6701824Y-9137700D01*
X6701824Y-9137700D02*
X6711348Y-9090081D01*
X6711348Y-9090081D02*
X6711348Y-9051986D01*
X6711348Y-9051986D02*
X6701824Y-9004367D01*
X6701824Y-9004367D02*
X6692300Y-8975795D01*
X6692300Y-8975795D02*
X6682777Y-8956748D01*
X6682777Y-8956748D02*
X6663729Y-8928176D01*
X6663729Y-8928176D02*
X6654205Y-8918652D01*
D14*
X1877421Y-9354621D02*
X1877421Y-9282779D01*
X1805579Y-9282779D01*
X1805579Y-9354621D01*
X1877421Y-9354621D01*
D11*
X2244681Y-9411224D02*
X2130395Y-9411224D01*
X2187538Y-9411224D02*
X2187538Y-9211224D01*
X2187538Y-9211224D02*
X2168490Y-9239795D01*
X2168490Y-9239795D02*
X2149443Y-9258843D01*
X2149443Y-9258843D02*
X2130395Y-9268367D01*
X2330395Y-9392176D02*
X2339919Y-9401700D01*
X2339919Y-9401700D02*
X2330395Y-9411224D01*
X2330395Y-9411224D02*
X2320871Y-9401700D01*
X2320871Y-9401700D02*
X2330395Y-9392176D01*
X2330395Y-9392176D02*
X2330395Y-9411224D01*
X2463729Y-9211224D02*
X2482776Y-9211224D01*
X2482776Y-9211224D02*
X2501824Y-9220748D01*
X2501824Y-9220748D02*
X2511348Y-9230271D01*
X2511348Y-9230271D02*
X2520871Y-9249319D01*
X2520871Y-9249319D02*
X2530395Y-9287414D01*
X2530395Y-9287414D02*
X2530395Y-9335033D01*
X2530395Y-9335033D02*
X2520871Y-9373129D01*
X2520871Y-9373129D02*
X2511348Y-9392176D01*
X2511348Y-9392176D02*
X2501824Y-9401700D01*
X2501824Y-9401700D02*
X2482776Y-9411224D01*
X2482776Y-9411224D02*
X2463729Y-9411224D01*
X2463729Y-9411224D02*
X2444681Y-9401700D01*
X2444681Y-9401700D02*
X2435157Y-9392176D01*
X2435157Y-9392176D02*
X2425633Y-9373129D01*
X2425633Y-9373129D02*
X2416110Y-9335033D01*
X2416110Y-9335033D02*
X2416110Y-9287414D01*
X2416110Y-9287414D02*
X2425633Y-9249319D01*
X2425633Y-9249319D02*
X2435157Y-9230271D01*
X2435157Y-9230271D02*
X2444681Y-9220748D01*
X2444681Y-9220748D02*
X2463729Y-9211224D01*
X2720871Y-9411224D02*
X2606586Y-9411224D01*
X2663729Y-9411224D02*
X2663729Y-9211224D01*
X2663729Y-9211224D02*
X2644681Y-9239795D01*
X2644681Y-9239795D02*
X2625633Y-9258843D01*
X2625633Y-9258843D02*
X2606586Y-9268367D01*
X2892300Y-9211224D02*
X2854205Y-9211224D01*
X2854205Y-9211224D02*
X2835157Y-9220748D01*
X2835157Y-9220748D02*
X2825633Y-9230271D01*
X2825633Y-9230271D02*
X2806586Y-9258843D01*
X2806586Y-9258843D02*
X2797062Y-9296938D01*
X2797062Y-9296938D02*
X2797062Y-9373129D01*
X2797062Y-9373129D02*
X2806586Y-9392176D01*
X2806586Y-9392176D02*
X2816109Y-9401700D01*
X2816109Y-9401700D02*
X2835157Y-9411224D01*
X2835157Y-9411224D02*
X2873252Y-9411224D01*
X2873252Y-9411224D02*
X2892300Y-9401700D01*
X2892300Y-9401700D02*
X2901824Y-9392176D01*
X2901824Y-9392176D02*
X2911348Y-9373129D01*
X2911348Y-9373129D02*
X2911348Y-9325510D01*
X2911348Y-9325510D02*
X2901824Y-9306462D01*
X2901824Y-9306462D02*
X2892300Y-9296938D01*
X2892300Y-9296938D02*
X2873252Y-9287414D01*
X2873252Y-9287414D02*
X2835157Y-9287414D01*
X2835157Y-9287414D02*
X2816109Y-9296938D01*
X2816109Y-9296938D02*
X2806586Y-9306462D01*
X2806586Y-9306462D02*
X2797062Y-9325510D01*
X2997062Y-9411224D02*
X2997062Y-9277890D01*
X2997062Y-9296938D02*
X3006586Y-9287414D01*
X3006586Y-9287414D02*
X3025633Y-9277890D01*
X3025633Y-9277890D02*
X3054205Y-9277890D01*
X3054205Y-9277890D02*
X3073252Y-9287414D01*
X3073252Y-9287414D02*
X3082776Y-9306462D01*
X3082776Y-9306462D02*
X3082776Y-9411224D01*
X3082776Y-9306462D02*
X3092300Y-9287414D01*
X3092300Y-9287414D02*
X3111348Y-9277890D01*
X3111348Y-9277890D02*
X3139919Y-9277890D01*
X3139919Y-9277890D02*
X3158967Y-9287414D01*
X3158967Y-9287414D02*
X3168490Y-9306462D01*
X3168490Y-9306462D02*
X3168490Y-9411224D01*
X3263729Y-9411224D02*
X3263729Y-9277890D01*
X3263729Y-9296938D02*
X3273252Y-9287414D01*
X3273252Y-9287414D02*
X3292300Y-9277890D01*
X3292300Y-9277890D02*
X3320871Y-9277890D01*
X3320871Y-9277890D02*
X3339919Y-9287414D01*
X3339919Y-9287414D02*
X3349443Y-9306462D01*
X3349443Y-9306462D02*
X3349443Y-9411224D01*
X3349443Y-9306462D02*
X3358967Y-9287414D01*
X3358967Y-9287414D02*
X3378014Y-9277890D01*
X3378014Y-9277890D02*
X3406586Y-9277890D01*
X3406586Y-9277890D02*
X3425633Y-9287414D01*
X3425633Y-9287414D02*
X3435157Y-9306462D01*
X3435157Y-9306462D02*
X3435157Y-9411224D01*
X3825633Y-9201700D02*
X3654205Y-9458843D01*
X4082776Y-9211224D02*
X4101824Y-9211224D01*
X4101824Y-9211224D02*
X4120872Y-9220748D01*
X4120872Y-9220748D02*
X4130395Y-9230271D01*
X4130395Y-9230271D02*
X4139919Y-9249319D01*
X4139919Y-9249319D02*
X4149443Y-9287414D01*
X4149443Y-9287414D02*
X4149443Y-9335033D01*
X4149443Y-9335033D02*
X4139919Y-9373129D01*
X4139919Y-9373129D02*
X4130395Y-9392176D01*
X4130395Y-9392176D02*
X4120872Y-9401700D01*
X4120872Y-9401700D02*
X4101824Y-9411224D01*
X4101824Y-9411224D02*
X4082776Y-9411224D01*
X4082776Y-9411224D02*
X4063729Y-9401700D01*
X4063729Y-9401700D02*
X4054205Y-9392176D01*
X4054205Y-9392176D02*
X4044681Y-9373129D01*
X4044681Y-9373129D02*
X4035157Y-9335033D01*
X4035157Y-9335033D02*
X4035157Y-9287414D01*
X4035157Y-9287414D02*
X4044681Y-9249319D01*
X4044681Y-9249319D02*
X4054205Y-9230271D01*
X4054205Y-9230271D02*
X4063729Y-9220748D01*
X4063729Y-9220748D02*
X4082776Y-9211224D01*
X4235157Y-9392176D02*
X4244681Y-9401700D01*
X4244681Y-9401700D02*
X4235157Y-9411224D01*
X4235157Y-9411224D02*
X4225634Y-9401700D01*
X4225634Y-9401700D02*
X4235157Y-9392176D01*
X4235157Y-9392176D02*
X4235157Y-9411224D01*
X4368491Y-9211224D02*
X4387538Y-9211224D01*
X4387538Y-9211224D02*
X4406586Y-9220748D01*
X4406586Y-9220748D02*
X4416110Y-9230271D01*
X4416110Y-9230271D02*
X4425634Y-9249319D01*
X4425634Y-9249319D02*
X4435157Y-9287414D01*
X4435157Y-9287414D02*
X4435157Y-9335033D01*
X4435157Y-9335033D02*
X4425634Y-9373129D01*
X4425634Y-9373129D02*
X4416110Y-9392176D01*
X4416110Y-9392176D02*
X4406586Y-9401700D01*
X4406586Y-9401700D02*
X4387538Y-9411224D01*
X4387538Y-9411224D02*
X4368491Y-9411224D01*
X4368491Y-9411224D02*
X4349443Y-9401700D01*
X4349443Y-9401700D02*
X4339919Y-9392176D01*
X4339919Y-9392176D02*
X4330395Y-9373129D01*
X4330395Y-9373129D02*
X4320872Y-9335033D01*
X4320872Y-9335033D02*
X4320872Y-9287414D01*
X4320872Y-9287414D02*
X4330395Y-9249319D01*
X4330395Y-9249319D02*
X4339919Y-9230271D01*
X4339919Y-9230271D02*
X4349443Y-9220748D01*
X4349443Y-9220748D02*
X4368491Y-9211224D01*
X4606586Y-9277890D02*
X4606586Y-9411224D01*
X4558967Y-9201700D02*
X4511348Y-9344557D01*
X4511348Y-9344557D02*
X4635157Y-9344557D01*
X4749443Y-9211224D02*
X4768491Y-9211224D01*
X4768491Y-9211224D02*
X4787538Y-9220748D01*
X4787538Y-9220748D02*
X4797062Y-9230271D01*
X4797062Y-9230271D02*
X4806586Y-9249319D01*
X4806586Y-9249319D02*
X4816110Y-9287414D01*
X4816110Y-9287414D02*
X4816110Y-9335033D01*
X4816110Y-9335033D02*
X4806586Y-9373129D01*
X4806586Y-9373129D02*
X4797062Y-9392176D01*
X4797062Y-9392176D02*
X4787538Y-9401700D01*
X4787538Y-9401700D02*
X4768491Y-9411224D01*
X4768491Y-9411224D02*
X4749443Y-9411224D01*
X4749443Y-9411224D02*
X4730395Y-9401700D01*
X4730395Y-9401700D02*
X4720872Y-9392176D01*
X4720872Y-9392176D02*
X4711348Y-9373129D01*
X4711348Y-9373129D02*
X4701824Y-9335033D01*
X4701824Y-9335033D02*
X4701824Y-9287414D01*
X4701824Y-9287414D02*
X4711348Y-9249319D01*
X4711348Y-9249319D02*
X4720872Y-9230271D01*
X4720872Y-9230271D02*
X4730395Y-9220748D01*
X4730395Y-9220748D02*
X4749443Y-9211224D01*
X4939919Y-9211224D02*
X4958967Y-9211224D01*
X4958967Y-9211224D02*
X4978015Y-9220748D01*
X4978015Y-9220748D02*
X4987538Y-9230271D01*
X4987538Y-9230271D02*
X4997062Y-9249319D01*
X4997062Y-9249319D02*
X5006586Y-9287414D01*
X5006586Y-9287414D02*
X5006586Y-9335033D01*
X5006586Y-9335033D02*
X4997062Y-9373129D01*
X4997062Y-9373129D02*
X4987538Y-9392176D01*
X4987538Y-9392176D02*
X4978015Y-9401700D01*
X4978015Y-9401700D02*
X4958967Y-9411224D01*
X4958967Y-9411224D02*
X4939919Y-9411224D01*
X4939919Y-9411224D02*
X4920872Y-9401700D01*
X4920872Y-9401700D02*
X4911348Y-9392176D01*
X4911348Y-9392176D02*
X4901824Y-9373129D01*
X4901824Y-9373129D02*
X4892300Y-9335033D01*
X4892300Y-9335033D02*
X4892300Y-9287414D01*
X4892300Y-9287414D02*
X4901824Y-9249319D01*
X4901824Y-9249319D02*
X4911348Y-9230271D01*
X4911348Y-9230271D02*
X4920872Y-9220748D01*
X4920872Y-9220748D02*
X4939919Y-9211224D01*
X5082776Y-9211224D02*
X5082776Y-9249319D01*
X5158967Y-9211224D02*
X5158967Y-9249319D01*
X5454205Y-9487414D02*
X5444681Y-9477890D01*
X5444681Y-9477890D02*
X5425634Y-9449319D01*
X5425634Y-9449319D02*
X5416110Y-9430271D01*
X5416110Y-9430271D02*
X5406586Y-9401700D01*
X5406586Y-9401700D02*
X5397062Y-9354081D01*
X5397062Y-9354081D02*
X5397062Y-9315986D01*
X5397062Y-9315986D02*
X5406586Y-9268367D01*
X5406586Y-9268367D02*
X5416110Y-9239795D01*
X5416110Y-9239795D02*
X5425634Y-9220748D01*
X5425634Y-9220748D02*
X5444681Y-9192176D01*
X5444681Y-9192176D02*
X5454205Y-9182652D01*
X5558967Y-9296938D02*
X5539919Y-9287414D01*
X5539919Y-9287414D02*
X5530396Y-9277890D01*
X5530396Y-9277890D02*
X5520872Y-9258843D01*
X5520872Y-9258843D02*
X5520872Y-9249319D01*
X5520872Y-9249319D02*
X5530396Y-9230271D01*
X5530396Y-9230271D02*
X5539919Y-9220748D01*
X5539919Y-9220748D02*
X5558967Y-9211224D01*
X5558967Y-9211224D02*
X5597062Y-9211224D01*
X5597062Y-9211224D02*
X5616110Y-9220748D01*
X5616110Y-9220748D02*
X5625634Y-9230271D01*
X5625634Y-9230271D02*
X5635157Y-9249319D01*
X5635157Y-9249319D02*
X5635157Y-9258843D01*
X5635157Y-9258843D02*
X5625634Y-9277890D01*
X5625634Y-9277890D02*
X5616110Y-9287414D01*
X5616110Y-9287414D02*
X5597062Y-9296938D01*
X5597062Y-9296938D02*
X5558967Y-9296938D01*
X5558967Y-9296938D02*
X5539919Y-9306462D01*
X5539919Y-9306462D02*
X5530396Y-9315986D01*
X5530396Y-9315986D02*
X5520872Y-9335033D01*
X5520872Y-9335033D02*
X5520872Y-9373129D01*
X5520872Y-9373129D02*
X5530396Y-9392176D01*
X5530396Y-9392176D02*
X5539919Y-9401700D01*
X5539919Y-9401700D02*
X5558967Y-9411224D01*
X5558967Y-9411224D02*
X5597062Y-9411224D01*
X5597062Y-9411224D02*
X5616110Y-9401700D01*
X5616110Y-9401700D02*
X5625634Y-9392176D01*
X5625634Y-9392176D02*
X5635157Y-9373129D01*
X5635157Y-9373129D02*
X5635157Y-9335033D01*
X5635157Y-9335033D02*
X5625634Y-9315986D01*
X5625634Y-9315986D02*
X5616110Y-9306462D01*
X5616110Y-9306462D02*
X5597062Y-9296938D01*
X5730395Y-9411224D02*
X5768491Y-9411224D01*
X5768491Y-9411224D02*
X5787538Y-9401700D01*
X5787538Y-9401700D02*
X5797062Y-9392176D01*
X5797062Y-9392176D02*
X5816110Y-9363605D01*
X5816110Y-9363605D02*
X5825634Y-9325510D01*
X5825634Y-9325510D02*
X5825634Y-9249319D01*
X5825634Y-9249319D02*
X5816110Y-9230271D01*
X5816110Y-9230271D02*
X5806586Y-9220748D01*
X5806586Y-9220748D02*
X5787538Y-9211224D01*
X5787538Y-9211224D02*
X5749443Y-9211224D01*
X5749443Y-9211224D02*
X5730395Y-9220748D01*
X5730395Y-9220748D02*
X5720872Y-9230271D01*
X5720872Y-9230271D02*
X5711348Y-9249319D01*
X5711348Y-9249319D02*
X5711348Y-9296938D01*
X5711348Y-9296938D02*
X5720872Y-9315986D01*
X5720872Y-9315986D02*
X5730395Y-9325510D01*
X5730395Y-9325510D02*
X5749443Y-9335033D01*
X5749443Y-9335033D02*
X5787538Y-9335033D01*
X5787538Y-9335033D02*
X5806586Y-9325510D01*
X5806586Y-9325510D02*
X5816110Y-9315986D01*
X5816110Y-9315986D02*
X5825634Y-9296938D01*
X6063729Y-9411224D02*
X6063729Y-9211224D01*
X6149443Y-9411224D02*
X6149443Y-9306462D01*
X6149443Y-9306462D02*
X6139919Y-9287414D01*
X6139919Y-9287414D02*
X6120872Y-9277890D01*
X6120872Y-9277890D02*
X6092300Y-9277890D01*
X6092300Y-9277890D02*
X6073253Y-9287414D01*
X6073253Y-9287414D02*
X6063729Y-9296938D01*
X6273253Y-9411224D02*
X6254205Y-9401700D01*
X6254205Y-9401700D02*
X6244681Y-9392176D01*
X6244681Y-9392176D02*
X6235157Y-9373129D01*
X6235157Y-9373129D02*
X6235157Y-9315986D01*
X6235157Y-9315986D02*
X6244681Y-9296938D01*
X6244681Y-9296938D02*
X6254205Y-9287414D01*
X6254205Y-9287414D02*
X6273253Y-9277890D01*
X6273253Y-9277890D02*
X6301824Y-9277890D01*
X6301824Y-9277890D02*
X6320872Y-9287414D01*
X6320872Y-9287414D02*
X6330396Y-9296938D01*
X6330396Y-9296938D02*
X6339919Y-9315986D01*
X6339919Y-9315986D02*
X6339919Y-9373129D01*
X6339919Y-9373129D02*
X6330396Y-9392176D01*
X6330396Y-9392176D02*
X6320872Y-9401700D01*
X6320872Y-9401700D02*
X6301824Y-9411224D01*
X6301824Y-9411224D02*
X6273253Y-9411224D01*
X6454205Y-9411224D02*
X6435157Y-9401700D01*
X6435157Y-9401700D02*
X6425634Y-9382652D01*
X6425634Y-9382652D02*
X6425634Y-9211224D01*
X6606586Y-9401700D02*
X6587538Y-9411224D01*
X6587538Y-9411224D02*
X6549443Y-9411224D01*
X6549443Y-9411224D02*
X6530396Y-9401700D01*
X6530396Y-9401700D02*
X6520872Y-9382652D01*
X6520872Y-9382652D02*
X6520872Y-9306462D01*
X6520872Y-9306462D02*
X6530396Y-9287414D01*
X6530396Y-9287414D02*
X6549443Y-9277890D01*
X6549443Y-9277890D02*
X6587538Y-9277890D01*
X6587538Y-9277890D02*
X6606586Y-9287414D01*
X6606586Y-9287414D02*
X6616110Y-9306462D01*
X6616110Y-9306462D02*
X6616110Y-9325510D01*
X6616110Y-9325510D02*
X6520872Y-9344557D01*
X6692300Y-9401700D02*
X6711348Y-9411224D01*
X6711348Y-9411224D02*
X6749443Y-9411224D01*
X6749443Y-9411224D02*
X6768491Y-9401700D01*
X6768491Y-9401700D02*
X6778015Y-9382652D01*
X6778015Y-9382652D02*
X6778015Y-9373129D01*
X6778015Y-9373129D02*
X6768491Y-9354081D01*
X6768491Y-9354081D02*
X6749443Y-9344557D01*
X6749443Y-9344557D02*
X6720872Y-9344557D01*
X6720872Y-9344557D02*
X6701824Y-9335033D01*
X6701824Y-9335033D02*
X6692300Y-9315986D01*
X6692300Y-9315986D02*
X6692300Y-9306462D01*
X6692300Y-9306462D02*
X6701824Y-9287414D01*
X6701824Y-9287414D02*
X6720872Y-9277890D01*
X6720872Y-9277890D02*
X6749443Y-9277890D01*
X6749443Y-9277890D02*
X6768491Y-9287414D01*
X6844681Y-9487414D02*
X6854205Y-9477890D01*
X6854205Y-9477890D02*
X6873253Y-9449319D01*
X6873253Y-9449319D02*
X6882777Y-9430271D01*
X6882777Y-9430271D02*
X6892300Y-9401700D01*
X6892300Y-9401700D02*
X6901824Y-9354081D01*
X6901824Y-9354081D02*
X6901824Y-9315986D01*
X6901824Y-9315986D02*
X6892300Y-9268367D01*
X6892300Y-9268367D02*
X6882777Y-9239795D01*
X6882777Y-9239795D02*
X6873253Y-9220748D01*
X6873253Y-9220748D02*
X6854205Y-9192176D01*
X6854205Y-9192176D02*
X6844681Y-9182652D01*
D15*
X1835150Y-9639850D02*
X1892300Y-9582700D01*
X1835150Y-9525550D01*
X1778000Y-9582700D01*
X1835150Y-9639850D01*
D11*
X2244681Y-9675224D02*
X2130395Y-9675224D01*
X2187538Y-9675224D02*
X2187538Y-9475224D01*
X2187538Y-9475224D02*
X2168490Y-9503795D01*
X2168490Y-9503795D02*
X2149443Y-9522843D01*
X2149443Y-9522843D02*
X2130395Y-9532367D01*
X2330395Y-9656176D02*
X2339919Y-9665700D01*
X2339919Y-9665700D02*
X2330395Y-9675224D01*
X2330395Y-9675224D02*
X2320871Y-9665700D01*
X2320871Y-9665700D02*
X2330395Y-9656176D01*
X2330395Y-9656176D02*
X2330395Y-9675224D01*
X2530395Y-9675224D02*
X2416110Y-9675224D01*
X2473252Y-9675224D02*
X2473252Y-9475224D01*
X2473252Y-9475224D02*
X2454205Y-9503795D01*
X2454205Y-9503795D02*
X2435157Y-9522843D01*
X2435157Y-9522843D02*
X2416110Y-9532367D01*
X2701824Y-9541890D02*
X2701824Y-9675224D01*
X2654205Y-9465700D02*
X2606586Y-9608557D01*
X2606586Y-9608557D02*
X2730395Y-9608557D01*
X2787538Y-9475224D02*
X2911348Y-9475224D01*
X2911348Y-9475224D02*
X2844681Y-9551414D01*
X2844681Y-9551414D02*
X2873252Y-9551414D01*
X2873252Y-9551414D02*
X2892300Y-9560938D01*
X2892300Y-9560938D02*
X2901824Y-9570462D01*
X2901824Y-9570462D02*
X2911348Y-9589510D01*
X2911348Y-9589510D02*
X2911348Y-9637129D01*
X2911348Y-9637129D02*
X2901824Y-9656176D01*
X2901824Y-9656176D02*
X2892300Y-9665700D01*
X2892300Y-9665700D02*
X2873252Y-9675224D01*
X2873252Y-9675224D02*
X2816109Y-9675224D01*
X2816109Y-9675224D02*
X2797062Y-9665700D01*
X2797062Y-9665700D02*
X2787538Y-9656176D01*
X2997062Y-9675224D02*
X2997062Y-9541890D01*
X2997062Y-9560938D02*
X3006586Y-9551414D01*
X3006586Y-9551414D02*
X3025633Y-9541890D01*
X3025633Y-9541890D02*
X3054205Y-9541890D01*
X3054205Y-9541890D02*
X3073252Y-9551414D01*
X3073252Y-9551414D02*
X3082776Y-9570462D01*
X3082776Y-9570462D02*
X3082776Y-9675224D01*
X3082776Y-9570462D02*
X3092300Y-9551414D01*
X3092300Y-9551414D02*
X3111348Y-9541890D01*
X3111348Y-9541890D02*
X3139919Y-9541890D01*
X3139919Y-9541890D02*
X3158967Y-9551414D01*
X3158967Y-9551414D02*
X3168490Y-9570462D01*
X3168490Y-9570462D02*
X3168490Y-9675224D01*
X3263729Y-9675224D02*
X3263729Y-9541890D01*
X3263729Y-9560938D02*
X3273252Y-9551414D01*
X3273252Y-9551414D02*
X3292300Y-9541890D01*
X3292300Y-9541890D02*
X3320871Y-9541890D01*
X3320871Y-9541890D02*
X3339919Y-9551414D01*
X3339919Y-9551414D02*
X3349443Y-9570462D01*
X3349443Y-9570462D02*
X3349443Y-9675224D01*
X3349443Y-9570462D02*
X3358967Y-9551414D01*
X3358967Y-9551414D02*
X3378014Y-9541890D01*
X3378014Y-9541890D02*
X3406586Y-9541890D01*
X3406586Y-9541890D02*
X3425633Y-9551414D01*
X3425633Y-9551414D02*
X3435157Y-9570462D01*
X3435157Y-9570462D02*
X3435157Y-9675224D01*
X3825633Y-9465700D02*
X3654205Y-9722843D01*
X4082776Y-9475224D02*
X4101824Y-9475224D01*
X4101824Y-9475224D02*
X4120872Y-9484748D01*
X4120872Y-9484748D02*
X4130395Y-9494271D01*
X4130395Y-9494271D02*
X4139919Y-9513319D01*
X4139919Y-9513319D02*
X4149443Y-9551414D01*
X4149443Y-9551414D02*
X4149443Y-9599033D01*
X4149443Y-9599033D02*
X4139919Y-9637129D01*
X4139919Y-9637129D02*
X4130395Y-9656176D01*
X4130395Y-9656176D02*
X4120872Y-9665700D01*
X4120872Y-9665700D02*
X4101824Y-9675224D01*
X4101824Y-9675224D02*
X4082776Y-9675224D01*
X4082776Y-9675224D02*
X4063729Y-9665700D01*
X4063729Y-9665700D02*
X4054205Y-9656176D01*
X4054205Y-9656176D02*
X4044681Y-9637129D01*
X4044681Y-9637129D02*
X4035157Y-9599033D01*
X4035157Y-9599033D02*
X4035157Y-9551414D01*
X4035157Y-9551414D02*
X4044681Y-9513319D01*
X4044681Y-9513319D02*
X4054205Y-9494271D01*
X4054205Y-9494271D02*
X4063729Y-9484748D01*
X4063729Y-9484748D02*
X4082776Y-9475224D01*
X4235157Y-9656176D02*
X4244681Y-9665700D01*
X4244681Y-9665700D02*
X4235157Y-9675224D01*
X4235157Y-9675224D02*
X4225634Y-9665700D01*
X4225634Y-9665700D02*
X4235157Y-9656176D01*
X4235157Y-9656176D02*
X4235157Y-9675224D01*
X4368491Y-9475224D02*
X4387538Y-9475224D01*
X4387538Y-9475224D02*
X4406586Y-9484748D01*
X4406586Y-9484748D02*
X4416110Y-9494271D01*
X4416110Y-9494271D02*
X4425634Y-9513319D01*
X4425634Y-9513319D02*
X4435157Y-9551414D01*
X4435157Y-9551414D02*
X4435157Y-9599033D01*
X4435157Y-9599033D02*
X4425634Y-9637129D01*
X4425634Y-9637129D02*
X4416110Y-9656176D01*
X4416110Y-9656176D02*
X4406586Y-9665700D01*
X4406586Y-9665700D02*
X4387538Y-9675224D01*
X4387538Y-9675224D02*
X4368491Y-9675224D01*
X4368491Y-9675224D02*
X4349443Y-9665700D01*
X4349443Y-9665700D02*
X4339919Y-9656176D01*
X4339919Y-9656176D02*
X4330395Y-9637129D01*
X4330395Y-9637129D02*
X4320872Y-9599033D01*
X4320872Y-9599033D02*
X4320872Y-9551414D01*
X4320872Y-9551414D02*
X4330395Y-9513319D01*
X4330395Y-9513319D02*
X4339919Y-9494271D01*
X4339919Y-9494271D02*
X4349443Y-9484748D01*
X4349443Y-9484748D02*
X4368491Y-9475224D01*
X4606586Y-9541890D02*
X4606586Y-9675224D01*
X4558967Y-9465700D02*
X4511348Y-9608557D01*
X4511348Y-9608557D02*
X4635157Y-9608557D01*
X4806586Y-9475224D02*
X4711348Y-9475224D01*
X4711348Y-9475224D02*
X4701824Y-9570462D01*
X4701824Y-9570462D02*
X4711348Y-9560938D01*
X4711348Y-9560938D02*
X4730395Y-9551414D01*
X4730395Y-9551414D02*
X4778015Y-9551414D01*
X4778015Y-9551414D02*
X4797062Y-9560938D01*
X4797062Y-9560938D02*
X4806586Y-9570462D01*
X4806586Y-9570462D02*
X4816110Y-9589510D01*
X4816110Y-9589510D02*
X4816110Y-9637129D01*
X4816110Y-9637129D02*
X4806586Y-9656176D01*
X4806586Y-9656176D02*
X4797062Y-9665700D01*
X4797062Y-9665700D02*
X4778015Y-9675224D01*
X4778015Y-9675224D02*
X4730395Y-9675224D01*
X4730395Y-9675224D02*
X4711348Y-9665700D01*
X4711348Y-9665700D02*
X4701824Y-9656176D01*
X4939919Y-9475224D02*
X4958967Y-9475224D01*
X4958967Y-9475224D02*
X4978015Y-9484748D01*
X4978015Y-9484748D02*
X4987538Y-9494271D01*
X4987538Y-9494271D02*
X4997062Y-9513319D01*
X4997062Y-9513319D02*
X5006586Y-9551414D01*
X5006586Y-9551414D02*
X5006586Y-9599033D01*
X5006586Y-9599033D02*
X4997062Y-9637129D01*
X4997062Y-9637129D02*
X4987538Y-9656176D01*
X4987538Y-9656176D02*
X4978015Y-9665700D01*
X4978015Y-9665700D02*
X4958967Y-9675224D01*
X4958967Y-9675224D02*
X4939919Y-9675224D01*
X4939919Y-9675224D02*
X4920872Y-9665700D01*
X4920872Y-9665700D02*
X4911348Y-9656176D01*
X4911348Y-9656176D02*
X4901824Y-9637129D01*
X4901824Y-9637129D02*
X4892300Y-9599033D01*
X4892300Y-9599033D02*
X4892300Y-9551414D01*
X4892300Y-9551414D02*
X4901824Y-9513319D01*
X4901824Y-9513319D02*
X4911348Y-9494271D01*
X4911348Y-9494271D02*
X4920872Y-9484748D01*
X4920872Y-9484748D02*
X4939919Y-9475224D01*
X5082776Y-9475224D02*
X5082776Y-9513319D01*
X5158967Y-9475224D02*
X5158967Y-9513319D01*
X5454205Y-9751414D02*
X5444681Y-9741890D01*
X5444681Y-9741890D02*
X5425634Y-9713319D01*
X5425634Y-9713319D02*
X5416110Y-9694271D01*
X5416110Y-9694271D02*
X5406586Y-9665700D01*
X5406586Y-9665700D02*
X5397062Y-9618081D01*
X5397062Y-9618081D02*
X5397062Y-9579986D01*
X5397062Y-9579986D02*
X5406586Y-9532367D01*
X5406586Y-9532367D02*
X5416110Y-9503795D01*
X5416110Y-9503795D02*
X5425634Y-9484748D01*
X5425634Y-9484748D02*
X5444681Y-9456176D01*
X5444681Y-9456176D02*
X5454205Y-9446652D01*
X5635157Y-9675224D02*
X5520872Y-9675224D01*
X5578015Y-9675224D02*
X5578015Y-9475224D01*
X5578015Y-9475224D02*
X5558967Y-9503795D01*
X5558967Y-9503795D02*
X5539919Y-9522843D01*
X5539919Y-9522843D02*
X5520872Y-9532367D01*
X5701824Y-9475224D02*
X5835157Y-9475224D01*
X5835157Y-9475224D02*
X5749443Y-9675224D01*
X6063729Y-9675224D02*
X6063729Y-9475224D01*
X6149443Y-9675224D02*
X6149443Y-9570462D01*
X6149443Y-9570462D02*
X6139919Y-9551414D01*
X6139919Y-9551414D02*
X6120872Y-9541890D01*
X6120872Y-9541890D02*
X6092300Y-9541890D01*
X6092300Y-9541890D02*
X6073253Y-9551414D01*
X6073253Y-9551414D02*
X6063729Y-9560938D01*
X6273253Y-9675224D02*
X6254205Y-9665700D01*
X6254205Y-9665700D02*
X6244681Y-9656176D01*
X6244681Y-9656176D02*
X6235157Y-9637129D01*
X6235157Y-9637129D02*
X6235157Y-9579986D01*
X6235157Y-9579986D02*
X6244681Y-9560938D01*
X6244681Y-9560938D02*
X6254205Y-9551414D01*
X6254205Y-9551414D02*
X6273253Y-9541890D01*
X6273253Y-9541890D02*
X6301824Y-9541890D01*
X6301824Y-9541890D02*
X6320872Y-9551414D01*
X6320872Y-9551414D02*
X6330396Y-9560938D01*
X6330396Y-9560938D02*
X6339919Y-9579986D01*
X6339919Y-9579986D02*
X6339919Y-9637129D01*
X6339919Y-9637129D02*
X6330396Y-9656176D01*
X6330396Y-9656176D02*
X6320872Y-9665700D01*
X6320872Y-9665700D02*
X6301824Y-9675224D01*
X6301824Y-9675224D02*
X6273253Y-9675224D01*
X6454205Y-9675224D02*
X6435157Y-9665700D01*
X6435157Y-9665700D02*
X6425634Y-9646652D01*
X6425634Y-9646652D02*
X6425634Y-9475224D01*
X6606586Y-9665700D02*
X6587538Y-9675224D01*
X6587538Y-9675224D02*
X6549443Y-9675224D01*
X6549443Y-9675224D02*
X6530396Y-9665700D01*
X6530396Y-9665700D02*
X6520872Y-9646652D01*
X6520872Y-9646652D02*
X6520872Y-9570462D01*
X6520872Y-9570462D02*
X6530396Y-9551414D01*
X6530396Y-9551414D02*
X6549443Y-9541890D01*
X6549443Y-9541890D02*
X6587538Y-9541890D01*
X6587538Y-9541890D02*
X6606586Y-9551414D01*
X6606586Y-9551414D02*
X6616110Y-9570462D01*
X6616110Y-9570462D02*
X6616110Y-9589510D01*
X6616110Y-9589510D02*
X6520872Y-9608557D01*
X6692300Y-9665700D02*
X6711348Y-9675224D01*
X6711348Y-9675224D02*
X6749443Y-9675224D01*
X6749443Y-9675224D02*
X6768491Y-9665700D01*
X6768491Y-9665700D02*
X6778015Y-9646652D01*
X6778015Y-9646652D02*
X6778015Y-9637129D01*
X6778015Y-9637129D02*
X6768491Y-9618081D01*
X6768491Y-9618081D02*
X6749443Y-9608557D01*
X6749443Y-9608557D02*
X6720872Y-9608557D01*
X6720872Y-9608557D02*
X6701824Y-9599033D01*
X6701824Y-9599033D02*
X6692300Y-9579986D01*
X6692300Y-9579986D02*
X6692300Y-9570462D01*
X6692300Y-9570462D02*
X6701824Y-9551414D01*
X6701824Y-9551414D02*
X6720872Y-9541890D01*
X6720872Y-9541890D02*
X6749443Y-9541890D01*
X6749443Y-9541890D02*
X6768491Y-9551414D01*
X6844681Y-9751414D02*
X6854205Y-9741890D01*
X6854205Y-9741890D02*
X6873253Y-9713319D01*
X6873253Y-9713319D02*
X6882777Y-9694271D01*
X6882777Y-9694271D02*
X6892300Y-9665700D01*
X6892300Y-9665700D02*
X6901824Y-9618081D01*
X6901824Y-9618081D02*
X6901824Y-9579986D01*
X6901824Y-9579986D02*
X6892300Y-9532367D01*
X6892300Y-9532367D02*
X6882777Y-9503795D01*
X6882777Y-9503795D02*
X6873253Y-9484748D01*
X6873253Y-9484748D02*
X6854205Y-9456176D01*
X6854205Y-9456176D02*
X6844681Y-9446652D01*
D16*
X1765300Y-9783200D02*
X1892300Y-9910200D01*
X1892300Y-9783200D02*
X1765300Y-9910200D01*
X1892300Y-9846700D02*
G75*
G03*
X1892300Y-9846700I-63500J0D01*
G01*
D11*
X2244681Y-9939224D02*
X2130395Y-9939224D01*
X2187538Y-9939224D02*
X2187538Y-9739224D01*
X2187538Y-9739224D02*
X2168490Y-9767795D01*
X2168490Y-9767795D02*
X2149443Y-9786843D01*
X2149443Y-9786843D02*
X2130395Y-9796367D01*
X2330395Y-9920176D02*
X2339919Y-9929700D01*
X2339919Y-9929700D02*
X2330395Y-9939224D01*
X2330395Y-9939224D02*
X2320871Y-9929700D01*
X2320871Y-9929700D02*
X2330395Y-9920176D01*
X2330395Y-9920176D02*
X2330395Y-9939224D01*
X2416110Y-9758271D02*
X2425633Y-9748748D01*
X2425633Y-9748748D02*
X2444681Y-9739224D01*
X2444681Y-9739224D02*
X2492300Y-9739224D01*
X2492300Y-9739224D02*
X2511348Y-9748748D01*
X2511348Y-9748748D02*
X2520871Y-9758271D01*
X2520871Y-9758271D02*
X2530395Y-9777319D01*
X2530395Y-9777319D02*
X2530395Y-9796367D01*
X2530395Y-9796367D02*
X2520871Y-9824938D01*
X2520871Y-9824938D02*
X2406586Y-9939224D01*
X2406586Y-9939224D02*
X2530395Y-9939224D01*
X2597062Y-9739224D02*
X2730395Y-9739224D01*
X2730395Y-9739224D02*
X2644681Y-9939224D01*
X2844681Y-9739224D02*
X2863729Y-9739224D01*
X2863729Y-9739224D02*
X2882776Y-9748748D01*
X2882776Y-9748748D02*
X2892300Y-9758271D01*
X2892300Y-9758271D02*
X2901824Y-9777319D01*
X2901824Y-9777319D02*
X2911348Y-9815414D01*
X2911348Y-9815414D02*
X2911348Y-9863033D01*
X2911348Y-9863033D02*
X2901824Y-9901129D01*
X2901824Y-9901129D02*
X2892300Y-9920176D01*
X2892300Y-9920176D02*
X2882776Y-9929700D01*
X2882776Y-9929700D02*
X2863729Y-9939224D01*
X2863729Y-9939224D02*
X2844681Y-9939224D01*
X2844681Y-9939224D02*
X2825633Y-9929700D01*
X2825633Y-9929700D02*
X2816109Y-9920176D01*
X2816109Y-9920176D02*
X2806586Y-9901129D01*
X2806586Y-9901129D02*
X2797062Y-9863033D01*
X2797062Y-9863033D02*
X2797062Y-9815414D01*
X2797062Y-9815414D02*
X2806586Y-9777319D01*
X2806586Y-9777319D02*
X2816109Y-9758271D01*
X2816109Y-9758271D02*
X2825633Y-9748748D01*
X2825633Y-9748748D02*
X2844681Y-9739224D01*
X2997062Y-9939224D02*
X2997062Y-9805890D01*
X2997062Y-9824938D02*
X3006586Y-9815414D01*
X3006586Y-9815414D02*
X3025633Y-9805890D01*
X3025633Y-9805890D02*
X3054205Y-9805890D01*
X3054205Y-9805890D02*
X3073252Y-9815414D01*
X3073252Y-9815414D02*
X3082776Y-9834462D01*
X3082776Y-9834462D02*
X3082776Y-9939224D01*
X3082776Y-9834462D02*
X3092300Y-9815414D01*
X3092300Y-9815414D02*
X3111348Y-9805890D01*
X3111348Y-9805890D02*
X3139919Y-9805890D01*
X3139919Y-9805890D02*
X3158967Y-9815414D01*
X3158967Y-9815414D02*
X3168490Y-9834462D01*
X3168490Y-9834462D02*
X3168490Y-9939224D01*
X3263729Y-9939224D02*
X3263729Y-9805890D01*
X3263729Y-9824938D02*
X3273252Y-9815414D01*
X3273252Y-9815414D02*
X3292300Y-9805890D01*
X3292300Y-9805890D02*
X3320871Y-9805890D01*
X3320871Y-9805890D02*
X3339919Y-9815414D01*
X3339919Y-9815414D02*
X3349443Y-9834462D01*
X3349443Y-9834462D02*
X3349443Y-9939224D01*
X3349443Y-9834462D02*
X3358967Y-9815414D01*
X3358967Y-9815414D02*
X3378014Y-9805890D01*
X3378014Y-9805890D02*
X3406586Y-9805890D01*
X3406586Y-9805890D02*
X3425633Y-9815414D01*
X3425633Y-9815414D02*
X3435157Y-9834462D01*
X3435157Y-9834462D02*
X3435157Y-9939224D01*
X3825633Y-9729700D02*
X3654205Y-9986843D01*
X4082776Y-9739224D02*
X4101824Y-9739224D01*
X4101824Y-9739224D02*
X4120872Y-9748748D01*
X4120872Y-9748748D02*
X4130395Y-9758271D01*
X4130395Y-9758271D02*
X4139919Y-9777319D01*
X4139919Y-9777319D02*
X4149443Y-9815414D01*
X4149443Y-9815414D02*
X4149443Y-9863033D01*
X4149443Y-9863033D02*
X4139919Y-9901129D01*
X4139919Y-9901129D02*
X4130395Y-9920176D01*
X4130395Y-9920176D02*
X4120872Y-9929700D01*
X4120872Y-9929700D02*
X4101824Y-9939224D01*
X4101824Y-9939224D02*
X4082776Y-9939224D01*
X4082776Y-9939224D02*
X4063729Y-9929700D01*
X4063729Y-9929700D02*
X4054205Y-9920176D01*
X4054205Y-9920176D02*
X4044681Y-9901129D01*
X4044681Y-9901129D02*
X4035157Y-9863033D01*
X4035157Y-9863033D02*
X4035157Y-9815414D01*
X4035157Y-9815414D02*
X4044681Y-9777319D01*
X4044681Y-9777319D02*
X4054205Y-9758271D01*
X4054205Y-9758271D02*
X4063729Y-9748748D01*
X4063729Y-9748748D02*
X4082776Y-9739224D01*
X4235157Y-9920176D02*
X4244681Y-9929700D01*
X4244681Y-9929700D02*
X4235157Y-9939224D01*
X4235157Y-9939224D02*
X4225634Y-9929700D01*
X4225634Y-9929700D02*
X4235157Y-9920176D01*
X4235157Y-9920176D02*
X4235157Y-9939224D01*
X4368491Y-9739224D02*
X4387538Y-9739224D01*
X4387538Y-9739224D02*
X4406586Y-9748748D01*
X4406586Y-9748748D02*
X4416110Y-9758271D01*
X4416110Y-9758271D02*
X4425634Y-9777319D01*
X4425634Y-9777319D02*
X4435157Y-9815414D01*
X4435157Y-9815414D02*
X4435157Y-9863033D01*
X4435157Y-9863033D02*
X4425634Y-9901129D01*
X4425634Y-9901129D02*
X4416110Y-9920176D01*
X4416110Y-9920176D02*
X4406586Y-9929700D01*
X4406586Y-9929700D02*
X4387538Y-9939224D01*
X4387538Y-9939224D02*
X4368491Y-9939224D01*
X4368491Y-9939224D02*
X4349443Y-9929700D01*
X4349443Y-9929700D02*
X4339919Y-9920176D01*
X4339919Y-9920176D02*
X4330395Y-9901129D01*
X4330395Y-9901129D02*
X4320872Y-9863033D01*
X4320872Y-9863033D02*
X4320872Y-9815414D01*
X4320872Y-9815414D02*
X4330395Y-9777319D01*
X4330395Y-9777319D02*
X4339919Y-9758271D01*
X4339919Y-9758271D02*
X4349443Y-9748748D01*
X4349443Y-9748748D02*
X4368491Y-9739224D01*
X4616110Y-9739224D02*
X4520872Y-9739224D01*
X4520872Y-9739224D02*
X4511348Y-9834462D01*
X4511348Y-9834462D02*
X4520872Y-9824938D01*
X4520872Y-9824938D02*
X4539919Y-9815414D01*
X4539919Y-9815414D02*
X4587538Y-9815414D01*
X4587538Y-9815414D02*
X4606586Y-9824938D01*
X4606586Y-9824938D02*
X4616110Y-9834462D01*
X4616110Y-9834462D02*
X4625634Y-9853510D01*
X4625634Y-9853510D02*
X4625634Y-9901129D01*
X4625634Y-9901129D02*
X4616110Y-9920176D01*
X4616110Y-9920176D02*
X4606586Y-9929700D01*
X4606586Y-9929700D02*
X4587538Y-9939224D01*
X4587538Y-9939224D02*
X4539919Y-9939224D01*
X4539919Y-9939224D02*
X4520872Y-9929700D01*
X4520872Y-9929700D02*
X4511348Y-9920176D01*
X4749443Y-9739224D02*
X4768491Y-9739224D01*
X4768491Y-9739224D02*
X4787538Y-9748748D01*
X4787538Y-9748748D02*
X4797062Y-9758271D01*
X4797062Y-9758271D02*
X4806586Y-9777319D01*
X4806586Y-9777319D02*
X4816110Y-9815414D01*
X4816110Y-9815414D02*
X4816110Y-9863033D01*
X4816110Y-9863033D02*
X4806586Y-9901129D01*
X4806586Y-9901129D02*
X4797062Y-9920176D01*
X4797062Y-9920176D02*
X4787538Y-9929700D01*
X4787538Y-9929700D02*
X4768491Y-9939224D01*
X4768491Y-9939224D02*
X4749443Y-9939224D01*
X4749443Y-9939224D02*
X4730395Y-9929700D01*
X4730395Y-9929700D02*
X4720872Y-9920176D01*
X4720872Y-9920176D02*
X4711348Y-9901129D01*
X4711348Y-9901129D02*
X4701824Y-9863033D01*
X4701824Y-9863033D02*
X4701824Y-9815414D01*
X4701824Y-9815414D02*
X4711348Y-9777319D01*
X4711348Y-9777319D02*
X4720872Y-9758271D01*
X4720872Y-9758271D02*
X4730395Y-9748748D01*
X4730395Y-9748748D02*
X4749443Y-9739224D01*
X4939919Y-9739224D02*
X4958967Y-9739224D01*
X4958967Y-9739224D02*
X4978015Y-9748748D01*
X4978015Y-9748748D02*
X4987538Y-9758271D01*
X4987538Y-9758271D02*
X4997062Y-9777319D01*
X4997062Y-9777319D02*
X5006586Y-9815414D01*
X5006586Y-9815414D02*
X5006586Y-9863033D01*
X5006586Y-9863033D02*
X4997062Y-9901129D01*
X4997062Y-9901129D02*
X4987538Y-9920176D01*
X4987538Y-9920176D02*
X4978015Y-9929700D01*
X4978015Y-9929700D02*
X4958967Y-9939224D01*
X4958967Y-9939224D02*
X4939919Y-9939224D01*
X4939919Y-9939224D02*
X4920872Y-9929700D01*
X4920872Y-9929700D02*
X4911348Y-9920176D01*
X4911348Y-9920176D02*
X4901824Y-9901129D01*
X4901824Y-9901129D02*
X4892300Y-9863033D01*
X4892300Y-9863033D02*
X4892300Y-9815414D01*
X4892300Y-9815414D02*
X4901824Y-9777319D01*
X4901824Y-9777319D02*
X4911348Y-9758271D01*
X4911348Y-9758271D02*
X4920872Y-9748748D01*
X4920872Y-9748748D02*
X4939919Y-9739224D01*
X5082776Y-9739224D02*
X5082776Y-9777319D01*
X5158967Y-9739224D02*
X5158967Y-9777319D01*
X5454205Y-10015414D02*
X5444681Y-10005890D01*
X5444681Y-10005890D02*
X5425634Y-9977319D01*
X5425634Y-9977319D02*
X5416110Y-9958271D01*
X5416110Y-9958271D02*
X5406586Y-9929700D01*
X5406586Y-9929700D02*
X5397062Y-9882081D01*
X5397062Y-9882081D02*
X5397062Y-9843986D01*
X5397062Y-9843986D02*
X5406586Y-9796367D01*
X5406586Y-9796367D02*
X5416110Y-9767795D01*
X5416110Y-9767795D02*
X5425634Y-9748748D01*
X5425634Y-9748748D02*
X5444681Y-9720176D01*
X5444681Y-9720176D02*
X5454205Y-9710652D01*
X5616110Y-9739224D02*
X5578015Y-9739224D01*
X5578015Y-9739224D02*
X5558967Y-9748748D01*
X5558967Y-9748748D02*
X5549443Y-9758271D01*
X5549443Y-9758271D02*
X5530396Y-9786843D01*
X5530396Y-9786843D02*
X5520872Y-9824938D01*
X5520872Y-9824938D02*
X5520872Y-9901129D01*
X5520872Y-9901129D02*
X5530396Y-9920176D01*
X5530396Y-9920176D02*
X5539919Y-9929700D01*
X5539919Y-9929700D02*
X5558967Y-9939224D01*
X5558967Y-9939224D02*
X5597062Y-9939224D01*
X5597062Y-9939224D02*
X5616110Y-9929700D01*
X5616110Y-9929700D02*
X5625634Y-9920176D01*
X5625634Y-9920176D02*
X5635157Y-9901129D01*
X5635157Y-9901129D02*
X5635157Y-9853510D01*
X5635157Y-9853510D02*
X5625634Y-9834462D01*
X5625634Y-9834462D02*
X5616110Y-9824938D01*
X5616110Y-9824938D02*
X5597062Y-9815414D01*
X5597062Y-9815414D02*
X5558967Y-9815414D01*
X5558967Y-9815414D02*
X5539919Y-9824938D01*
X5539919Y-9824938D02*
X5530396Y-9834462D01*
X5530396Y-9834462D02*
X5520872Y-9853510D01*
X5873253Y-9939224D02*
X5873253Y-9739224D01*
X5958967Y-9939224D02*
X5958967Y-9834462D01*
X5958967Y-9834462D02*
X5949443Y-9815414D01*
X5949443Y-9815414D02*
X5930396Y-9805890D01*
X5930396Y-9805890D02*
X5901824Y-9805890D01*
X5901824Y-9805890D02*
X5882776Y-9815414D01*
X5882776Y-9815414D02*
X5873253Y-9824938D01*
X6082776Y-9939224D02*
X6063729Y-9929700D01*
X6063729Y-9929700D02*
X6054205Y-9920176D01*
X6054205Y-9920176D02*
X6044681Y-9901129D01*
X6044681Y-9901129D02*
X6044681Y-9843986D01*
X6044681Y-9843986D02*
X6054205Y-9824938D01*
X6054205Y-9824938D02*
X6063729Y-9815414D01*
X6063729Y-9815414D02*
X6082776Y-9805890D01*
X6082776Y-9805890D02*
X6111348Y-9805890D01*
X6111348Y-9805890D02*
X6130396Y-9815414D01*
X6130396Y-9815414D02*
X6139919Y-9824938D01*
X6139919Y-9824938D02*
X6149443Y-9843986D01*
X6149443Y-9843986D02*
X6149443Y-9901129D01*
X6149443Y-9901129D02*
X6139919Y-9920176D01*
X6139919Y-9920176D02*
X6130396Y-9929700D01*
X6130396Y-9929700D02*
X6111348Y-9939224D01*
X6111348Y-9939224D02*
X6082776Y-9939224D01*
X6263729Y-9939224D02*
X6244681Y-9929700D01*
X6244681Y-9929700D02*
X6235157Y-9910652D01*
X6235157Y-9910652D02*
X6235157Y-9739224D01*
X6416110Y-9929700D02*
X6397062Y-9939224D01*
X6397062Y-9939224D02*
X6358967Y-9939224D01*
X6358967Y-9939224D02*
X6339919Y-9929700D01*
X6339919Y-9929700D02*
X6330396Y-9910652D01*
X6330396Y-9910652D02*
X6330396Y-9834462D01*
X6330396Y-9834462D02*
X6339919Y-9815414D01*
X6339919Y-9815414D02*
X6358967Y-9805890D01*
X6358967Y-9805890D02*
X6397062Y-9805890D01*
X6397062Y-9805890D02*
X6416110Y-9815414D01*
X6416110Y-9815414D02*
X6425634Y-9834462D01*
X6425634Y-9834462D02*
X6425634Y-9853510D01*
X6425634Y-9853510D02*
X6330396Y-9872557D01*
X6501824Y-9929700D02*
X6520872Y-9939224D01*
X6520872Y-9939224D02*
X6558967Y-9939224D01*
X6558967Y-9939224D02*
X6578015Y-9929700D01*
X6578015Y-9929700D02*
X6587538Y-9910652D01*
X6587538Y-9910652D02*
X6587538Y-9901129D01*
X6587538Y-9901129D02*
X6578015Y-9882081D01*
X6578015Y-9882081D02*
X6558967Y-9872557D01*
X6558967Y-9872557D02*
X6530396Y-9872557D01*
X6530396Y-9872557D02*
X6511348Y-9863033D01*
X6511348Y-9863033D02*
X6501824Y-9843986D01*
X6501824Y-9843986D02*
X6501824Y-9834462D01*
X6501824Y-9834462D02*
X6511348Y-9815414D01*
X6511348Y-9815414D02*
X6530396Y-9805890D01*
X6530396Y-9805890D02*
X6558967Y-9805890D01*
X6558967Y-9805890D02*
X6578015Y-9815414D01*
X6654205Y-10015414D02*
X6663729Y-10005890D01*
X6663729Y-10005890D02*
X6682777Y-9977319D01*
X6682777Y-9977319D02*
X6692300Y-9958271D01*
X6692300Y-9958271D02*
X6701824Y-9929700D01*
X6701824Y-9929700D02*
X6711348Y-9882081D01*
X6711348Y-9882081D02*
X6711348Y-9843986D01*
X6711348Y-9843986D02*
X6701824Y-9796367D01*
X6701824Y-9796367D02*
X6692300Y-9767795D01*
X6692300Y-9767795D02*
X6682777Y-9748748D01*
X6682777Y-9748748D02*
X6663729Y-9720176D01*
X6663729Y-9720176D02*
X6654205Y-9710652D01*
D17*
X1739900Y-10034500D02*
X1892300Y-10186900D01*
X1892300Y-10034500D02*
X1739900Y-10186900D01*
X1816100Y-10034500D02*
X1816100Y-10186900D01*
X1739900Y-10110700D02*
X1892300Y-10110700D01*
D11*
X2244681Y-10203224D02*
X2130395Y-10203224D01*
X2187538Y-10203224D02*
X2187538Y-10003224D01*
X2187538Y-10003224D02*
X2168490Y-10031795D01*
X2168490Y-10031795D02*
X2149443Y-10050843D01*
X2149443Y-10050843D02*
X2130395Y-10060367D01*
X2330395Y-10184176D02*
X2339919Y-10193700D01*
X2339919Y-10193700D02*
X2330395Y-10203224D01*
X2330395Y-10203224D02*
X2320871Y-10193700D01*
X2320871Y-10193700D02*
X2330395Y-10184176D01*
X2330395Y-10184176D02*
X2330395Y-10203224D01*
X2520871Y-10003224D02*
X2425633Y-10003224D01*
X2425633Y-10003224D02*
X2416110Y-10098462D01*
X2416110Y-10098462D02*
X2425633Y-10088938D01*
X2425633Y-10088938D02*
X2444681Y-10079414D01*
X2444681Y-10079414D02*
X2492300Y-10079414D01*
X2492300Y-10079414D02*
X2511348Y-10088938D01*
X2511348Y-10088938D02*
X2520871Y-10098462D01*
X2520871Y-10098462D02*
X2530395Y-10117510D01*
X2530395Y-10117510D02*
X2530395Y-10165129D01*
X2530395Y-10165129D02*
X2520871Y-10184176D01*
X2520871Y-10184176D02*
X2511348Y-10193700D01*
X2511348Y-10193700D02*
X2492300Y-10203224D01*
X2492300Y-10203224D02*
X2444681Y-10203224D01*
X2444681Y-10203224D02*
X2425633Y-10193700D01*
X2425633Y-10193700D02*
X2416110Y-10184176D01*
X2606586Y-10022271D02*
X2616110Y-10012748D01*
X2616110Y-10012748D02*
X2635157Y-10003224D01*
X2635157Y-10003224D02*
X2682776Y-10003224D01*
X2682776Y-10003224D02*
X2701824Y-10012748D01*
X2701824Y-10012748D02*
X2711348Y-10022271D01*
X2711348Y-10022271D02*
X2720871Y-10041319D01*
X2720871Y-10041319D02*
X2720871Y-10060367D01*
X2720871Y-10060367D02*
X2711348Y-10088938D01*
X2711348Y-10088938D02*
X2597062Y-10203224D01*
X2597062Y-10203224D02*
X2720871Y-10203224D01*
X2892300Y-10069890D02*
X2892300Y-10203224D01*
X2844681Y-9993700D02*
X2797062Y-10136557D01*
X2797062Y-10136557D02*
X2920871Y-10136557D01*
X2997062Y-10203224D02*
X2997062Y-10069890D01*
X2997062Y-10088938D02*
X3006586Y-10079414D01*
X3006586Y-10079414D02*
X3025633Y-10069890D01*
X3025633Y-10069890D02*
X3054205Y-10069890D01*
X3054205Y-10069890D02*
X3073252Y-10079414D01*
X3073252Y-10079414D02*
X3082776Y-10098462D01*
X3082776Y-10098462D02*
X3082776Y-10203224D01*
X3082776Y-10098462D02*
X3092300Y-10079414D01*
X3092300Y-10079414D02*
X3111348Y-10069890D01*
X3111348Y-10069890D02*
X3139919Y-10069890D01*
X3139919Y-10069890D02*
X3158967Y-10079414D01*
X3158967Y-10079414D02*
X3168490Y-10098462D01*
X3168490Y-10098462D02*
X3168490Y-10203224D01*
X3263729Y-10203224D02*
X3263729Y-10069890D01*
X3263729Y-10088938D02*
X3273252Y-10079414D01*
X3273252Y-10079414D02*
X3292300Y-10069890D01*
X3292300Y-10069890D02*
X3320871Y-10069890D01*
X3320871Y-10069890D02*
X3339919Y-10079414D01*
X3339919Y-10079414D02*
X3349443Y-10098462D01*
X3349443Y-10098462D02*
X3349443Y-10203224D01*
X3349443Y-10098462D02*
X3358967Y-10079414D01*
X3358967Y-10079414D02*
X3378014Y-10069890D01*
X3378014Y-10069890D02*
X3406586Y-10069890D01*
X3406586Y-10069890D02*
X3425633Y-10079414D01*
X3425633Y-10079414D02*
X3435157Y-10098462D01*
X3435157Y-10098462D02*
X3435157Y-10203224D01*
X3825633Y-9993700D02*
X3654205Y-10250843D01*
X4082776Y-10003224D02*
X4101824Y-10003224D01*
X4101824Y-10003224D02*
X4120872Y-10012748D01*
X4120872Y-10012748D02*
X4130395Y-10022271D01*
X4130395Y-10022271D02*
X4139919Y-10041319D01*
X4139919Y-10041319D02*
X4149443Y-10079414D01*
X4149443Y-10079414D02*
X4149443Y-10127033D01*
X4149443Y-10127033D02*
X4139919Y-10165129D01*
X4139919Y-10165129D02*
X4130395Y-10184176D01*
X4130395Y-10184176D02*
X4120872Y-10193700D01*
X4120872Y-10193700D02*
X4101824Y-10203224D01*
X4101824Y-10203224D02*
X4082776Y-10203224D01*
X4082776Y-10203224D02*
X4063729Y-10193700D01*
X4063729Y-10193700D02*
X4054205Y-10184176D01*
X4054205Y-10184176D02*
X4044681Y-10165129D01*
X4044681Y-10165129D02*
X4035157Y-10127033D01*
X4035157Y-10127033D02*
X4035157Y-10079414D01*
X4035157Y-10079414D02*
X4044681Y-10041319D01*
X4044681Y-10041319D02*
X4054205Y-10022271D01*
X4054205Y-10022271D02*
X4063729Y-10012748D01*
X4063729Y-10012748D02*
X4082776Y-10003224D01*
X4235157Y-10184176D02*
X4244681Y-10193700D01*
X4244681Y-10193700D02*
X4235157Y-10203224D01*
X4235157Y-10203224D02*
X4225634Y-10193700D01*
X4225634Y-10193700D02*
X4235157Y-10184176D01*
X4235157Y-10184176D02*
X4235157Y-10203224D01*
X4368491Y-10003224D02*
X4387538Y-10003224D01*
X4387538Y-10003224D02*
X4406586Y-10012748D01*
X4406586Y-10012748D02*
X4416110Y-10022271D01*
X4416110Y-10022271D02*
X4425634Y-10041319D01*
X4425634Y-10041319D02*
X4435157Y-10079414D01*
X4435157Y-10079414D02*
X4435157Y-10127033D01*
X4435157Y-10127033D02*
X4425634Y-10165129D01*
X4425634Y-10165129D02*
X4416110Y-10184176D01*
X4416110Y-10184176D02*
X4406586Y-10193700D01*
X4406586Y-10193700D02*
X4387538Y-10203224D01*
X4387538Y-10203224D02*
X4368491Y-10203224D01*
X4368491Y-10203224D02*
X4349443Y-10193700D01*
X4349443Y-10193700D02*
X4339919Y-10184176D01*
X4339919Y-10184176D02*
X4330395Y-10165129D01*
X4330395Y-10165129D02*
X4320872Y-10127033D01*
X4320872Y-10127033D02*
X4320872Y-10079414D01*
X4320872Y-10079414D02*
X4330395Y-10041319D01*
X4330395Y-10041319D02*
X4339919Y-10022271D01*
X4339919Y-10022271D02*
X4349443Y-10012748D01*
X4349443Y-10012748D02*
X4368491Y-10003224D01*
X4606586Y-10003224D02*
X4568491Y-10003224D01*
X4568491Y-10003224D02*
X4549443Y-10012748D01*
X4549443Y-10012748D02*
X4539919Y-10022271D01*
X4539919Y-10022271D02*
X4520872Y-10050843D01*
X4520872Y-10050843D02*
X4511348Y-10088938D01*
X4511348Y-10088938D02*
X4511348Y-10165129D01*
X4511348Y-10165129D02*
X4520872Y-10184176D01*
X4520872Y-10184176D02*
X4530395Y-10193700D01*
X4530395Y-10193700D02*
X4549443Y-10203224D01*
X4549443Y-10203224D02*
X4587538Y-10203224D01*
X4587538Y-10203224D02*
X4606586Y-10193700D01*
X4606586Y-10193700D02*
X4616110Y-10184176D01*
X4616110Y-10184176D02*
X4625634Y-10165129D01*
X4625634Y-10165129D02*
X4625634Y-10117510D01*
X4625634Y-10117510D02*
X4616110Y-10098462D01*
X4616110Y-10098462D02*
X4606586Y-10088938D01*
X4606586Y-10088938D02*
X4587538Y-10079414D01*
X4587538Y-10079414D02*
X4549443Y-10079414D01*
X4549443Y-10079414D02*
X4530395Y-10088938D01*
X4530395Y-10088938D02*
X4520872Y-10098462D01*
X4520872Y-10098462D02*
X4511348Y-10117510D01*
X4749443Y-10003224D02*
X4768491Y-10003224D01*
X4768491Y-10003224D02*
X4787538Y-10012748D01*
X4787538Y-10012748D02*
X4797062Y-10022271D01*
X4797062Y-10022271D02*
X4806586Y-10041319D01*
X4806586Y-10041319D02*
X4816110Y-10079414D01*
X4816110Y-10079414D02*
X4816110Y-10127033D01*
X4816110Y-10127033D02*
X4806586Y-10165129D01*
X4806586Y-10165129D02*
X4797062Y-10184176D01*
X4797062Y-10184176D02*
X4787538Y-10193700D01*
X4787538Y-10193700D02*
X4768491Y-10203224D01*
X4768491Y-10203224D02*
X4749443Y-10203224D01*
X4749443Y-10203224D02*
X4730395Y-10193700D01*
X4730395Y-10193700D02*
X4720872Y-10184176D01*
X4720872Y-10184176D02*
X4711348Y-10165129D01*
X4711348Y-10165129D02*
X4701824Y-10127033D01*
X4701824Y-10127033D02*
X4701824Y-10079414D01*
X4701824Y-10079414D02*
X4711348Y-10041319D01*
X4711348Y-10041319D02*
X4720872Y-10022271D01*
X4720872Y-10022271D02*
X4730395Y-10012748D01*
X4730395Y-10012748D02*
X4749443Y-10003224D01*
X4939919Y-10003224D02*
X4958967Y-10003224D01*
X4958967Y-10003224D02*
X4978015Y-10012748D01*
X4978015Y-10012748D02*
X4987538Y-10022271D01*
X4987538Y-10022271D02*
X4997062Y-10041319D01*
X4997062Y-10041319D02*
X5006586Y-10079414D01*
X5006586Y-10079414D02*
X5006586Y-10127033D01*
X5006586Y-10127033D02*
X4997062Y-10165129D01*
X4997062Y-10165129D02*
X4987538Y-10184176D01*
X4987538Y-10184176D02*
X4978015Y-10193700D01*
X4978015Y-10193700D02*
X4958967Y-10203224D01*
X4958967Y-10203224D02*
X4939919Y-10203224D01*
X4939919Y-10203224D02*
X4920872Y-10193700D01*
X4920872Y-10193700D02*
X4911348Y-10184176D01*
X4911348Y-10184176D02*
X4901824Y-10165129D01*
X4901824Y-10165129D02*
X4892300Y-10127033D01*
X4892300Y-10127033D02*
X4892300Y-10079414D01*
X4892300Y-10079414D02*
X4901824Y-10041319D01*
X4901824Y-10041319D02*
X4911348Y-10022271D01*
X4911348Y-10022271D02*
X4920872Y-10012748D01*
X4920872Y-10012748D02*
X4939919Y-10003224D01*
X5082776Y-10003224D02*
X5082776Y-10041319D01*
X5158967Y-10003224D02*
X5158967Y-10041319D01*
X5454205Y-10279414D02*
X5444681Y-10269890D01*
X5444681Y-10269890D02*
X5425634Y-10241319D01*
X5425634Y-10241319D02*
X5416110Y-10222271D01*
X5416110Y-10222271D02*
X5406586Y-10193700D01*
X5406586Y-10193700D02*
X5397062Y-10146081D01*
X5397062Y-10146081D02*
X5397062Y-10107986D01*
X5397062Y-10107986D02*
X5406586Y-10060367D01*
X5406586Y-10060367D02*
X5416110Y-10031795D01*
X5416110Y-10031795D02*
X5425634Y-10012748D01*
X5425634Y-10012748D02*
X5444681Y-9984176D01*
X5444681Y-9984176D02*
X5454205Y-9974652D01*
X5635157Y-10203224D02*
X5520872Y-10203224D01*
X5578015Y-10203224D02*
X5578015Y-10003224D01*
X5578015Y-10003224D02*
X5558967Y-10031795D01*
X5558967Y-10031795D02*
X5539919Y-10050843D01*
X5539919Y-10050843D02*
X5520872Y-10060367D01*
X5806586Y-10003224D02*
X5768491Y-10003224D01*
X5768491Y-10003224D02*
X5749443Y-10012748D01*
X5749443Y-10012748D02*
X5739919Y-10022271D01*
X5739919Y-10022271D02*
X5720872Y-10050843D01*
X5720872Y-10050843D02*
X5711348Y-10088938D01*
X5711348Y-10088938D02*
X5711348Y-10165129D01*
X5711348Y-10165129D02*
X5720872Y-10184176D01*
X5720872Y-10184176D02*
X5730395Y-10193700D01*
X5730395Y-10193700D02*
X5749443Y-10203224D01*
X5749443Y-10203224D02*
X5787538Y-10203224D01*
X5787538Y-10203224D02*
X5806586Y-10193700D01*
X5806586Y-10193700D02*
X5816110Y-10184176D01*
X5816110Y-10184176D02*
X5825634Y-10165129D01*
X5825634Y-10165129D02*
X5825634Y-10117510D01*
X5825634Y-10117510D02*
X5816110Y-10098462D01*
X5816110Y-10098462D02*
X5806586Y-10088938D01*
X5806586Y-10088938D02*
X5787538Y-10079414D01*
X5787538Y-10079414D02*
X5749443Y-10079414D01*
X5749443Y-10079414D02*
X5730395Y-10088938D01*
X5730395Y-10088938D02*
X5720872Y-10098462D01*
X5720872Y-10098462D02*
X5711348Y-10117510D01*
X6063729Y-10203224D02*
X6063729Y-10003224D01*
X6149443Y-10203224D02*
X6149443Y-10098462D01*
X6149443Y-10098462D02*
X6139919Y-10079414D01*
X6139919Y-10079414D02*
X6120872Y-10069890D01*
X6120872Y-10069890D02*
X6092300Y-10069890D01*
X6092300Y-10069890D02*
X6073253Y-10079414D01*
X6073253Y-10079414D02*
X6063729Y-10088938D01*
X6273253Y-10203224D02*
X6254205Y-10193700D01*
X6254205Y-10193700D02*
X6244681Y-10184176D01*
X6244681Y-10184176D02*
X6235157Y-10165129D01*
X6235157Y-10165129D02*
X6235157Y-10107986D01*
X6235157Y-10107986D02*
X6244681Y-10088938D01*
X6244681Y-10088938D02*
X6254205Y-10079414D01*
X6254205Y-10079414D02*
X6273253Y-10069890D01*
X6273253Y-10069890D02*
X6301824Y-10069890D01*
X6301824Y-10069890D02*
X6320872Y-10079414D01*
X6320872Y-10079414D02*
X6330396Y-10088938D01*
X6330396Y-10088938D02*
X6339919Y-10107986D01*
X6339919Y-10107986D02*
X6339919Y-10165129D01*
X6339919Y-10165129D02*
X6330396Y-10184176D01*
X6330396Y-10184176D02*
X6320872Y-10193700D01*
X6320872Y-10193700D02*
X6301824Y-10203224D01*
X6301824Y-10203224D02*
X6273253Y-10203224D01*
X6454205Y-10203224D02*
X6435157Y-10193700D01*
X6435157Y-10193700D02*
X6425634Y-10174652D01*
X6425634Y-10174652D02*
X6425634Y-10003224D01*
X6606586Y-10193700D02*
X6587538Y-10203224D01*
X6587538Y-10203224D02*
X6549443Y-10203224D01*
X6549443Y-10203224D02*
X6530396Y-10193700D01*
X6530396Y-10193700D02*
X6520872Y-10174652D01*
X6520872Y-10174652D02*
X6520872Y-10098462D01*
X6520872Y-10098462D02*
X6530396Y-10079414D01*
X6530396Y-10079414D02*
X6549443Y-10069890D01*
X6549443Y-10069890D02*
X6587538Y-10069890D01*
X6587538Y-10069890D02*
X6606586Y-10079414D01*
X6606586Y-10079414D02*
X6616110Y-10098462D01*
X6616110Y-10098462D02*
X6616110Y-10117510D01*
X6616110Y-10117510D02*
X6520872Y-10136557D01*
X6692300Y-10193700D02*
X6711348Y-10203224D01*
X6711348Y-10203224D02*
X6749443Y-10203224D01*
X6749443Y-10203224D02*
X6768491Y-10193700D01*
X6768491Y-10193700D02*
X6778015Y-10174652D01*
X6778015Y-10174652D02*
X6778015Y-10165129D01*
X6778015Y-10165129D02*
X6768491Y-10146081D01*
X6768491Y-10146081D02*
X6749443Y-10136557D01*
X6749443Y-10136557D02*
X6720872Y-10136557D01*
X6720872Y-10136557D02*
X6701824Y-10127033D01*
X6701824Y-10127033D02*
X6692300Y-10107986D01*
X6692300Y-10107986D02*
X6692300Y-10098462D01*
X6692300Y-10098462D02*
X6701824Y-10079414D01*
X6701824Y-10079414D02*
X6720872Y-10069890D01*
X6720872Y-10069890D02*
X6749443Y-10069890D01*
X6749443Y-10069890D02*
X6768491Y-10079414D01*
X6844681Y-10279414D02*
X6854205Y-10269890D01*
X6854205Y-10269890D02*
X6873253Y-10241319D01*
X6873253Y-10241319D02*
X6882777Y-10222271D01*
X6882777Y-10222271D02*
X6892300Y-10193700D01*
X6892300Y-10193700D02*
X6901824Y-10146081D01*
X6901824Y-10146081D02*
X6901824Y-10107986D01*
X6901824Y-10107986D02*
X6892300Y-10060367D01*
X6892300Y-10060367D02*
X6882777Y-10031795D01*
X6882777Y-10031795D02*
X6873253Y-10012748D01*
X6873253Y-10012748D02*
X6854205Y-9984176D01*
X6854205Y-9984176D02*
X6844681Y-9974652D01*
D18*
X1714500Y-10294200D02*
X1892300Y-10472000D01*
X1892300Y-10294200D02*
X1714500Y-10472000D01*
X1866262Y-10445962D02*
X1866262Y-10320238D01*
X1740538Y-10320238D01*
X1740538Y-10445962D01*
X1866262Y-10445962D01*
D11*
X2244681Y-10475624D02*
X2130395Y-10475624D01*
X2187538Y-10475624D02*
X2187538Y-10275624D01*
X2187538Y-10275624D02*
X2168490Y-10304195D01*
X2168490Y-10304195D02*
X2149443Y-10323243D01*
X2149443Y-10323243D02*
X2130395Y-10332767D01*
X2330395Y-10456576D02*
X2339919Y-10466100D01*
X2339919Y-10466100D02*
X2330395Y-10475624D01*
X2330395Y-10475624D02*
X2320871Y-10466100D01*
X2320871Y-10466100D02*
X2330395Y-10456576D01*
X2330395Y-10456576D02*
X2330395Y-10475624D01*
X2406586Y-10275624D02*
X2539919Y-10275624D01*
X2539919Y-10275624D02*
X2454205Y-10475624D01*
X2597062Y-10275624D02*
X2730395Y-10275624D01*
X2730395Y-10275624D02*
X2644681Y-10475624D01*
X2835157Y-10361338D02*
X2816109Y-10351814D01*
X2816109Y-10351814D02*
X2806586Y-10342290D01*
X2806586Y-10342290D02*
X2797062Y-10323243D01*
X2797062Y-10323243D02*
X2797062Y-10313719D01*
X2797062Y-10313719D02*
X2806586Y-10294671D01*
X2806586Y-10294671D02*
X2816109Y-10285148D01*
X2816109Y-10285148D02*
X2835157Y-10275624D01*
X2835157Y-10275624D02*
X2873252Y-10275624D01*
X2873252Y-10275624D02*
X2892300Y-10285148D01*
X2892300Y-10285148D02*
X2901824Y-10294671D01*
X2901824Y-10294671D02*
X2911348Y-10313719D01*
X2911348Y-10313719D02*
X2911348Y-10323243D01*
X2911348Y-10323243D02*
X2901824Y-10342290D01*
X2901824Y-10342290D02*
X2892300Y-10351814D01*
X2892300Y-10351814D02*
X2873252Y-10361338D01*
X2873252Y-10361338D02*
X2835157Y-10361338D01*
X2835157Y-10361338D02*
X2816109Y-10370862D01*
X2816109Y-10370862D02*
X2806586Y-10380386D01*
X2806586Y-10380386D02*
X2797062Y-10399433D01*
X2797062Y-10399433D02*
X2797062Y-10437529D01*
X2797062Y-10437529D02*
X2806586Y-10456576D01*
X2806586Y-10456576D02*
X2816109Y-10466100D01*
X2816109Y-10466100D02*
X2835157Y-10475624D01*
X2835157Y-10475624D02*
X2873252Y-10475624D01*
X2873252Y-10475624D02*
X2892300Y-10466100D01*
X2892300Y-10466100D02*
X2901824Y-10456576D01*
X2901824Y-10456576D02*
X2911348Y-10437529D01*
X2911348Y-10437529D02*
X2911348Y-10399433D01*
X2911348Y-10399433D02*
X2901824Y-10380386D01*
X2901824Y-10380386D02*
X2892300Y-10370862D01*
X2892300Y-10370862D02*
X2873252Y-10361338D01*
X2997062Y-10475624D02*
X2997062Y-10342290D01*
X2997062Y-10361338D02*
X3006586Y-10351814D01*
X3006586Y-10351814D02*
X3025633Y-10342290D01*
X3025633Y-10342290D02*
X3054205Y-10342290D01*
X3054205Y-10342290D02*
X3073252Y-10351814D01*
X3073252Y-10351814D02*
X3082776Y-10370862D01*
X3082776Y-10370862D02*
X3082776Y-10475624D01*
X3082776Y-10370862D02*
X3092300Y-10351814D01*
X3092300Y-10351814D02*
X3111348Y-10342290D01*
X3111348Y-10342290D02*
X3139919Y-10342290D01*
X3139919Y-10342290D02*
X3158967Y-10351814D01*
X3158967Y-10351814D02*
X3168490Y-10370862D01*
X3168490Y-10370862D02*
X3168490Y-10475624D01*
X3263729Y-10475624D02*
X3263729Y-10342290D01*
X3263729Y-10361338D02*
X3273252Y-10351814D01*
X3273252Y-10351814D02*
X3292300Y-10342290D01*
X3292300Y-10342290D02*
X3320871Y-10342290D01*
X3320871Y-10342290D02*
X3339919Y-10351814D01*
X3339919Y-10351814D02*
X3349443Y-10370862D01*
X3349443Y-10370862D02*
X3349443Y-10475624D01*
X3349443Y-10370862D02*
X3358967Y-10351814D01*
X3358967Y-10351814D02*
X3378014Y-10342290D01*
X3378014Y-10342290D02*
X3406586Y-10342290D01*
X3406586Y-10342290D02*
X3425633Y-10351814D01*
X3425633Y-10351814D02*
X3435157Y-10370862D01*
X3435157Y-10370862D02*
X3435157Y-10475624D01*
X3825633Y-10266100D02*
X3654205Y-10523243D01*
X4082776Y-10275624D02*
X4101824Y-10275624D01*
X4101824Y-10275624D02*
X4120872Y-10285148D01*
X4120872Y-10285148D02*
X4130395Y-10294671D01*
X4130395Y-10294671D02*
X4139919Y-10313719D01*
X4139919Y-10313719D02*
X4149443Y-10351814D01*
X4149443Y-10351814D02*
X4149443Y-10399433D01*
X4149443Y-10399433D02*
X4139919Y-10437529D01*
X4139919Y-10437529D02*
X4130395Y-10456576D01*
X4130395Y-10456576D02*
X4120872Y-10466100D01*
X4120872Y-10466100D02*
X4101824Y-10475624D01*
X4101824Y-10475624D02*
X4082776Y-10475624D01*
X4082776Y-10475624D02*
X4063729Y-10466100D01*
X4063729Y-10466100D02*
X4054205Y-10456576D01*
X4054205Y-10456576D02*
X4044681Y-10437529D01*
X4044681Y-10437529D02*
X4035157Y-10399433D01*
X4035157Y-10399433D02*
X4035157Y-10351814D01*
X4035157Y-10351814D02*
X4044681Y-10313719D01*
X4044681Y-10313719D02*
X4054205Y-10294671D01*
X4054205Y-10294671D02*
X4063729Y-10285148D01*
X4063729Y-10285148D02*
X4082776Y-10275624D01*
X4235157Y-10456576D02*
X4244681Y-10466100D01*
X4244681Y-10466100D02*
X4235157Y-10475624D01*
X4235157Y-10475624D02*
X4225634Y-10466100D01*
X4225634Y-10466100D02*
X4235157Y-10456576D01*
X4235157Y-10456576D02*
X4235157Y-10475624D01*
X4368491Y-10275624D02*
X4387538Y-10275624D01*
X4387538Y-10275624D02*
X4406586Y-10285148D01*
X4406586Y-10285148D02*
X4416110Y-10294671D01*
X4416110Y-10294671D02*
X4425634Y-10313719D01*
X4425634Y-10313719D02*
X4435157Y-10351814D01*
X4435157Y-10351814D02*
X4435157Y-10399433D01*
X4435157Y-10399433D02*
X4425634Y-10437529D01*
X4425634Y-10437529D02*
X4416110Y-10456576D01*
X4416110Y-10456576D02*
X4406586Y-10466100D01*
X4406586Y-10466100D02*
X4387538Y-10475624D01*
X4387538Y-10475624D02*
X4368491Y-10475624D01*
X4368491Y-10475624D02*
X4349443Y-10466100D01*
X4349443Y-10466100D02*
X4339919Y-10456576D01*
X4339919Y-10456576D02*
X4330395Y-10437529D01*
X4330395Y-10437529D02*
X4320872Y-10399433D01*
X4320872Y-10399433D02*
X4320872Y-10351814D01*
X4320872Y-10351814D02*
X4330395Y-10313719D01*
X4330395Y-10313719D02*
X4339919Y-10294671D01*
X4339919Y-10294671D02*
X4349443Y-10285148D01*
X4349443Y-10285148D02*
X4368491Y-10275624D01*
X4501824Y-10275624D02*
X4635157Y-10275624D01*
X4635157Y-10275624D02*
X4549443Y-10475624D01*
X4749443Y-10275624D02*
X4768491Y-10275624D01*
X4768491Y-10275624D02*
X4787538Y-10285148D01*
X4787538Y-10285148D02*
X4797062Y-10294671D01*
X4797062Y-10294671D02*
X4806586Y-10313719D01*
X4806586Y-10313719D02*
X4816110Y-10351814D01*
X4816110Y-10351814D02*
X4816110Y-10399433D01*
X4816110Y-10399433D02*
X4806586Y-10437529D01*
X4806586Y-10437529D02*
X4797062Y-10456576D01*
X4797062Y-10456576D02*
X4787538Y-10466100D01*
X4787538Y-10466100D02*
X4768491Y-10475624D01*
X4768491Y-10475624D02*
X4749443Y-10475624D01*
X4749443Y-10475624D02*
X4730395Y-10466100D01*
X4730395Y-10466100D02*
X4720872Y-10456576D01*
X4720872Y-10456576D02*
X4711348Y-10437529D01*
X4711348Y-10437529D02*
X4701824Y-10399433D01*
X4701824Y-10399433D02*
X4701824Y-10351814D01*
X4701824Y-10351814D02*
X4711348Y-10313719D01*
X4711348Y-10313719D02*
X4720872Y-10294671D01*
X4720872Y-10294671D02*
X4730395Y-10285148D01*
X4730395Y-10285148D02*
X4749443Y-10275624D01*
X4939919Y-10275624D02*
X4958967Y-10275624D01*
X4958967Y-10275624D02*
X4978015Y-10285148D01*
X4978015Y-10285148D02*
X4987538Y-10294671D01*
X4987538Y-10294671D02*
X4997062Y-10313719D01*
X4997062Y-10313719D02*
X5006586Y-10351814D01*
X5006586Y-10351814D02*
X5006586Y-10399433D01*
X5006586Y-10399433D02*
X4997062Y-10437529D01*
X4997062Y-10437529D02*
X4987538Y-10456576D01*
X4987538Y-10456576D02*
X4978015Y-10466100D01*
X4978015Y-10466100D02*
X4958967Y-10475624D01*
X4958967Y-10475624D02*
X4939919Y-10475624D01*
X4939919Y-10475624D02*
X4920872Y-10466100D01*
X4920872Y-10466100D02*
X4911348Y-10456576D01*
X4911348Y-10456576D02*
X4901824Y-10437529D01*
X4901824Y-10437529D02*
X4892300Y-10399433D01*
X4892300Y-10399433D02*
X4892300Y-10351814D01*
X4892300Y-10351814D02*
X4901824Y-10313719D01*
X4901824Y-10313719D02*
X4911348Y-10294671D01*
X4911348Y-10294671D02*
X4920872Y-10285148D01*
X4920872Y-10285148D02*
X4939919Y-10275624D01*
X5082776Y-10275624D02*
X5082776Y-10313719D01*
X5158967Y-10275624D02*
X5158967Y-10313719D01*
X5454205Y-10551814D02*
X5444681Y-10542290D01*
X5444681Y-10542290D02*
X5425634Y-10513719D01*
X5425634Y-10513719D02*
X5416110Y-10494671D01*
X5416110Y-10494671D02*
X5406586Y-10466100D01*
X5406586Y-10466100D02*
X5397062Y-10418481D01*
X5397062Y-10418481D02*
X5397062Y-10380386D01*
X5397062Y-10380386D02*
X5406586Y-10332767D01*
X5406586Y-10332767D02*
X5416110Y-10304195D01*
X5416110Y-10304195D02*
X5425634Y-10285148D01*
X5425634Y-10285148D02*
X5444681Y-10256576D01*
X5444681Y-10256576D02*
X5454205Y-10247052D01*
X5568491Y-10275624D02*
X5587538Y-10275624D01*
X5587538Y-10275624D02*
X5606586Y-10285148D01*
X5606586Y-10285148D02*
X5616110Y-10294671D01*
X5616110Y-10294671D02*
X5625634Y-10313719D01*
X5625634Y-10313719D02*
X5635157Y-10351814D01*
X5635157Y-10351814D02*
X5635157Y-10399433D01*
X5635157Y-10399433D02*
X5625634Y-10437529D01*
X5625634Y-10437529D02*
X5616110Y-10456576D01*
X5616110Y-10456576D02*
X5606586Y-10466100D01*
X5606586Y-10466100D02*
X5587538Y-10475624D01*
X5587538Y-10475624D02*
X5568491Y-10475624D01*
X5568491Y-10475624D02*
X5549443Y-10466100D01*
X5549443Y-10466100D02*
X5539919Y-10456576D01*
X5539919Y-10456576D02*
X5530396Y-10437529D01*
X5530396Y-10437529D02*
X5520872Y-10399433D01*
X5520872Y-10399433D02*
X5520872Y-10351814D01*
X5520872Y-10351814D02*
X5530396Y-10313719D01*
X5530396Y-10313719D02*
X5539919Y-10294671D01*
X5539919Y-10294671D02*
X5549443Y-10285148D01*
X5549443Y-10285148D02*
X5568491Y-10275624D01*
X5873253Y-10475624D02*
X5873253Y-10275624D01*
X5958967Y-10475624D02*
X5958967Y-10370862D01*
X5958967Y-10370862D02*
X5949443Y-10351814D01*
X5949443Y-10351814D02*
X5930396Y-10342290D01*
X5930396Y-10342290D02*
X5901824Y-10342290D01*
X5901824Y-10342290D02*
X5882776Y-10351814D01*
X5882776Y-10351814D02*
X5873253Y-10361338D01*
X6082776Y-10475624D02*
X6063729Y-10466100D01*
X6063729Y-10466100D02*
X6054205Y-10456576D01*
X6054205Y-10456576D02*
X6044681Y-10437529D01*
X6044681Y-10437529D02*
X6044681Y-10380386D01*
X6044681Y-10380386D02*
X6054205Y-10361338D01*
X6054205Y-10361338D02*
X6063729Y-10351814D01*
X6063729Y-10351814D02*
X6082776Y-10342290D01*
X6082776Y-10342290D02*
X6111348Y-10342290D01*
X6111348Y-10342290D02*
X6130396Y-10351814D01*
X6130396Y-10351814D02*
X6139919Y-10361338D01*
X6139919Y-10361338D02*
X6149443Y-10380386D01*
X6149443Y-10380386D02*
X6149443Y-10437529D01*
X6149443Y-10437529D02*
X6139919Y-10456576D01*
X6139919Y-10456576D02*
X6130396Y-10466100D01*
X6130396Y-10466100D02*
X6111348Y-10475624D01*
X6111348Y-10475624D02*
X6082776Y-10475624D01*
X6263729Y-10475624D02*
X6244681Y-10466100D01*
X6244681Y-10466100D02*
X6235157Y-10447052D01*
X6235157Y-10447052D02*
X6235157Y-10275624D01*
X6416110Y-10466100D02*
X6397062Y-10475624D01*
X6397062Y-10475624D02*
X6358967Y-10475624D01*
X6358967Y-10475624D02*
X6339919Y-10466100D01*
X6339919Y-10466100D02*
X6330396Y-10447052D01*
X6330396Y-10447052D02*
X6330396Y-10370862D01*
X6330396Y-10370862D02*
X6339919Y-10351814D01*
X6339919Y-10351814D02*
X6358967Y-10342290D01*
X6358967Y-10342290D02*
X6397062Y-10342290D01*
X6397062Y-10342290D02*
X6416110Y-10351814D01*
X6416110Y-10351814D02*
X6425634Y-10370862D01*
X6425634Y-10370862D02*
X6425634Y-10389910D01*
X6425634Y-10389910D02*
X6330396Y-10408957D01*
X6501824Y-10466100D02*
X6520872Y-10475624D01*
X6520872Y-10475624D02*
X6558967Y-10475624D01*
X6558967Y-10475624D02*
X6578015Y-10466100D01*
X6578015Y-10466100D02*
X6587538Y-10447052D01*
X6587538Y-10447052D02*
X6587538Y-10437529D01*
X6587538Y-10437529D02*
X6578015Y-10418481D01*
X6578015Y-10418481D02*
X6558967Y-10408957D01*
X6558967Y-10408957D02*
X6530396Y-10408957D01*
X6530396Y-10408957D02*
X6511348Y-10399433D01*
X6511348Y-10399433D02*
X6501824Y-10380386D01*
X6501824Y-10380386D02*
X6501824Y-10370862D01*
X6501824Y-10370862D02*
X6511348Y-10351814D01*
X6511348Y-10351814D02*
X6530396Y-10342290D01*
X6530396Y-10342290D02*
X6558967Y-10342290D01*
X6558967Y-10342290D02*
X6578015Y-10351814D01*
X6825634Y-10399433D02*
X6978015Y-10399433D01*
X6901824Y-10475624D02*
X6901824Y-10323243D01*
X7311348Y-10342290D02*
X7311348Y-10475624D01*
X7263729Y-10266100D02*
X7216110Y-10408957D01*
X7216110Y-10408957D02*
X7339919Y-10408957D01*
X7558967Y-10466100D02*
X7578015Y-10475624D01*
X7578015Y-10475624D02*
X7616110Y-10475624D01*
X7616110Y-10475624D02*
X7635158Y-10466100D01*
X7635158Y-10466100D02*
X7644681Y-10447052D01*
X7644681Y-10447052D02*
X7644681Y-10437529D01*
X7644681Y-10437529D02*
X7635158Y-10418481D01*
X7635158Y-10418481D02*
X7616110Y-10408957D01*
X7616110Y-10408957D02*
X7587539Y-10408957D01*
X7587539Y-10408957D02*
X7568491Y-10399433D01*
X7568491Y-10399433D02*
X7558967Y-10380386D01*
X7558967Y-10380386D02*
X7558967Y-10370862D01*
X7558967Y-10370862D02*
X7568491Y-10351814D01*
X7568491Y-10351814D02*
X7587539Y-10342290D01*
X7587539Y-10342290D02*
X7616110Y-10342290D01*
X7616110Y-10342290D02*
X7635158Y-10351814D01*
X7758967Y-10475624D02*
X7739920Y-10466100D01*
X7739920Y-10466100D02*
X7730396Y-10447052D01*
X7730396Y-10447052D02*
X7730396Y-10275624D01*
X7863729Y-10475624D02*
X7844681Y-10466100D01*
X7844681Y-10466100D02*
X7835158Y-10456576D01*
X7835158Y-10456576D02*
X7825634Y-10437529D01*
X7825634Y-10437529D02*
X7825634Y-10380386D01*
X7825634Y-10380386D02*
X7835158Y-10361338D01*
X7835158Y-10361338D02*
X7844681Y-10351814D01*
X7844681Y-10351814D02*
X7863729Y-10342290D01*
X7863729Y-10342290D02*
X7892301Y-10342290D01*
X7892301Y-10342290D02*
X7911348Y-10351814D01*
X7911348Y-10351814D02*
X7920872Y-10361338D01*
X7920872Y-10361338D02*
X7930396Y-10380386D01*
X7930396Y-10380386D02*
X7930396Y-10437529D01*
X7930396Y-10437529D02*
X7920872Y-10456576D01*
X7920872Y-10456576D02*
X7911348Y-10466100D01*
X7911348Y-10466100D02*
X7892301Y-10475624D01*
X7892301Y-10475624D02*
X7863729Y-10475624D01*
X7987539Y-10342290D02*
X8063729Y-10342290D01*
X8016110Y-10275624D02*
X8016110Y-10447052D01*
X8016110Y-10447052D02*
X8025634Y-10466100D01*
X8025634Y-10466100D02*
X8044681Y-10475624D01*
X8044681Y-10475624D02*
X8063729Y-10475624D01*
X8120872Y-10466100D02*
X8139920Y-10475624D01*
X8139920Y-10475624D02*
X8178015Y-10475624D01*
X8178015Y-10475624D02*
X8197062Y-10466100D01*
X8197062Y-10466100D02*
X8206586Y-10447052D01*
X8206586Y-10447052D02*
X8206586Y-10437529D01*
X8206586Y-10437529D02*
X8197062Y-10418481D01*
X8197062Y-10418481D02*
X8178015Y-10408957D01*
X8178015Y-10408957D02*
X8149443Y-10408957D01*
X8149443Y-10408957D02*
X8130396Y-10399433D01*
X8130396Y-10399433D02*
X8120872Y-10380386D01*
X8120872Y-10380386D02*
X8120872Y-10370862D01*
X8120872Y-10370862D02*
X8130396Y-10351814D01*
X8130396Y-10351814D02*
X8149443Y-10342290D01*
X8149443Y-10342290D02*
X8178015Y-10342290D01*
X8178015Y-10342290D02*
X8197062Y-10351814D01*
X8273253Y-10551814D02*
X8282777Y-10542290D01*
X8282777Y-10542290D02*
X8301824Y-10513719D01*
X8301824Y-10513719D02*
X8311348Y-10494671D01*
X8311348Y-10494671D02*
X8320872Y-10466100D01*
X8320872Y-10466100D02*
X8330396Y-10418481D01*
X8330396Y-10418481D02*
X8330396Y-10380386D01*
X8330396Y-10380386D02*
X8320872Y-10332767D01*
X8320872Y-10332767D02*
X8311348Y-10304195D01*
X8311348Y-10304195D02*
X8301824Y-10285148D01*
X8301824Y-10285148D02*
X8282777Y-10256576D01*
X8282777Y-10256576D02*
X8273253Y-10247052D01*
M02*
